<?xml version="1.0" encoding="UTF-8"?>
<svg version="1.1" xmlns="http://www.w3.org/2000/svg" width="905" height="886">
<path d="M0 0 C0.87884857 -0.02491516 1.75769714 -0.04983032 2.66317749 -0.07550049 C5.50794896 -0.13682729 8.34990518 -0.15594742 11.1953125 -0.16015625 C12.17786011 -0.16423492 13.16040771 -0.1683136 14.17272949 -0.17251587 C42.95865605 -0.12221929 69.28199999 8.67394147 95.01708984 21.17431641 C98.08952535 22.66534461 101.1742267 24.12598768 104.26475525 25.5789032 C120.49254828 33.21698461 136.395606 41.2389989 151.86425781 50.33837891 C154.20048267 51.70713729 156.54993987 53.04900375 158.90625 54.3828125 C168.32591838 59.75157925 177.14680851 65.73674636 185.9375 72.07324219 C190.40803647 75.27040863 194.929691 78.39434937 199.4453125 81.52734375 C201.41279034 82.89448819 203.38023798 84.26167609 205.34765625 85.62890625 C206.33362793 86.3137207 207.31959961 86.99853516 208.33544922 87.70410156 C221.15920746 96.61129566 233.97596825 105.52813319 246.76245117 114.48876953 C253.10555622 118.93202254 259.46124011 123.35698065 265.8203125 127.77734375 C268.71059608 129.78771218 271.60071301 131.79831983 274.49072266 133.80908203 C276.35723922 135.10743031 278.2240939 136.40529266 280.09130859 137.70263672 C293.5261537 147.04093147 306.72569789 156.43058507 319.16015625 167.08203125 C323.81147422 171.06402357 328.56928601 174.91539824 333.3203125 178.77734375 C339.22338612 183.57574862 345.08768827 188.41187314 350.8828125 193.33984375 C355.35399115 197.13989082 359.88036843 200.85139789 364.4765625 204.5 C375.34540703 213.20403346 386.02400988 222.13851682 396.55371094 231.24902344 C398.42450288 232.86748081 400.29813081 234.48261811 402.171875 236.09765625 C407.68554626 240.85683238 413.18247564 245.62543522 418.5703125 250.52734375 C421.84181085 253.49702347 425.19000822 256.3207393 428.6328125 259.08984375 C433.44616687 262.97990306 437.967927 267.10606209 442.48144531 271.33300781 C446.69078266 275.25290643 451.07757014 278.88986046 455.5625 282.4921875 C459.69966213 285.92028926 463.61580513 289.57461009 467.5546875 293.2265625 C469.76087197 295.26136258 471.98663511 297.25380613 474.2578125 299.21484375 C479.50382046 303.7657285 484.56391559 308.52034036 489.65771484 313.23974609 C492.22544426 315.61442449 494.8034407 317.9778252 497.3828125 320.33984375 C497.87362305 320.7894043 498.36443359 321.23896484 498.87011719 321.70214844 C499.85882532 322.60765168 500.84759467 323.51308809 501.83642578 324.41845703 C504.33195657 326.70376871 506.82605777 328.99063955 509.3203125 331.27734375 C510.32030575 332.19401779 511.32030574 333.11068445 512.3203125 334.02734375 C542.3203125 361.52734375 542.3203125 361.52734375 543.82080078 362.90283203 C544.81911911 363.81793008 545.81749136 364.7329693 546.81591797 365.64794922 C549.3420967 367.96313227 551.86728082 370.27938385 554.390625 372.59765625 C555.1489563 373.29375 555.1489563 373.29375 555.92260742 374.00390625 C556.93397496 374.93273634 557.94456102 375.8624181 558.9543457 376.79296875 C561.27003445 378.92198812 563.60289317 381.02216401 565.98046875 383.08203125 C571.22012343 387.63332326 575.67039909 392.39331418 579.98046875 397.83203125 C582.49194483 400.99338845 585.0794838 404.07746862 587.6953125 407.15234375 C588.15671631 407.69673096 588.61812012 408.24111816 589.09350586 408.80200195 C591.41514011 411.54032945 593.74339609 414.27283087 596.078125 417 C606.34299615 429.01130589 615.87892086 441.04804395 624.01367188 454.62158203 C625.34353177 456.81565207 626.7106066 458.98262608 628.0859375 461.1484375 C634.55104228 471.45462006 640.12959856 482.09679781 645.4453125 493.02734375 C645.77518158 493.70064728 646.10505066 494.37395081 646.44491577 495.06765747 C647.39463898 497.01335289 648.33227511 498.96437409 649.265625 500.91796875 C649.80719238 502.04750977 650.34875977 503.17705078 650.90673828 504.34082031 C653.81249999 511.40498297 654.69594639 518.11486057 655.171875 525.6640625 C655.23563324 526.6017598 655.29939148 527.53945709 655.36508179 528.50556946 C655.49794243 530.48793279 655.62715884 532.47054337 655.75292969 534.45336914 C655.94192276 537.41178226 656.1458208 540.3688822 656.3515625 543.32617188 C656.68157944 548.20756183 656.95499095 553.08951776 657.1862793 557.9765625 C657.27220584 559.77209848 657.36635304 561.56727109 657.47094727 563.36181641 C658.34625196 579.36783542 655.34698552 594.32602643 651.99072266 609.92828369 C651.42658711 612.57721457 650.88440427 615.23043488 650.34265518 617.88401985 C649.68369855 621.10315041 649.00978466 624.31911485 648.3359375 627.53515625 C648.09409729 628.70305695 647.85225708 629.87095764 647.60308838 631.07424927 C645.62926772 640.22667656 643.29520563 649.30760019 638.17578125 657.2578125 C637.58861328 658.18247314 637.00144531 659.10713379 636.39648438 660.05981445 C635.77322266 661.01847412 635.14996094 661.97713379 634.5078125 662.96484375 C633.16765165 665.06620405 631.82781773 667.16777288 630.48828125 669.26953125 C629.80169434 670.33913086 629.11510742 671.40873047 628.40771484 672.51074219 C625.00060406 677.8425717 621.66382041 683.2179946 618.3203125 688.58984375 C615.99241756 692.32244338 613.65781745 696.05075723 611.3203125 699.77734375 C610.71002197 700.75840088 610.09973145 701.73945801 609.47094727 702.75024414 C608.86565186 703.71567139 608.26035645 704.68109863 607.63671875 705.67578125 C606.82763062 706.97201416 606.82763062 706.97201416 606.00219727 708.29443359 C601.04782518 715.60840719 594.4577383 721.71524569 588.2578125 727.96484375 C587.69247803 728.53501221 587.12714355 729.10518066 586.54467773 729.69262695 C583.60136918 732.62407928 580.59919907 735.4318446 577.44921875 738.140625 C572.84096678 742.12675464 568.59009743 746.4346956 564.3203125 750.77734375 C552.8557868 762.43750982 540.57969419 772.56833779 527.23046875 782.00390625 C523.66112008 784.52765111 520.1193629 787.08815603 516.58129883 789.65551758 C513.5183857 791.87586408 510.44740087 794.08490554 507.37597656 796.29345703 C505.60833849 797.5694314 503.84993467 798.85679561 502.09375 800.1484375 C492.68640392 806.91229451 482.59511654 812.4173073 472.47314453 818.02734375 C469.28032892 819.7995369 466.09429877 821.58336919 462.91015625 823.37109375 C451.79920701 829.60865813 451.79920701 829.60865813 447.6706543 831.89160156 C445.26447139 833.24592327 442.8931311 834.62612715 440.52661133 836.04589844 C428.33225421 843.24537955 415.53054784 848.33140585 402.2878418 853.28417969 C398.62236228 854.65625552 394.96613389 856.05102699 391.31054688 857.44921875 C388.93540302 858.3489962 386.55976814 859.2474788 384.18359375 860.14453125 C383.11442215 860.55186493 382.04525055 860.95919861 380.94367981 861.37887573 C368.03157357 866.18547884 354.76550383 869.23615848 341.28515625 871.9765625 C339.90842094 872.25956261 338.53175926 872.54292107 337.15516663 872.82661438 C334.30458103 873.41317636 331.45344854 873.99696456 328.60180664 874.57836914 C324.95989746 875.32091225 321.31900761 876.06831392 317.67845821 876.81749249 C314.1726807 877.53875915 310.66644853 878.25780313 307.16015625 878.9765625 C306.50127851 879.11178503 305.84240078 879.24700756 305.16355705 879.38632774 C303.29149658 879.77007677 301.41907058 880.1520413 299.54663086 880.53393555 C298.48600937 880.75059372 297.42538788 880.96725189 296.33262634 881.19047546 C290.56366491 882.31440235 285.01557829 882.96230569 279.140625 883.09375 C278.32623459 883.11512024 277.51184418 883.13649048 276.67277527 883.1585083 C268.71471094 883.35700236 260.75492908 883.47653147 252.79527283 883.59065247 C246.86023713 883.68092411 240.92993897 883.8124978 234.99755859 884.01367188 C203.23643669 885.08488047 173.27781307 883.96579776 142.0078125 878.02734375 C140.93522879 877.82440893 140.93522879 877.82440893 139.84097672 877.61737442 C135.08037532 876.71160321 130.32943721 875.76558397 125.58203125 874.79296875 C123.80655411 874.43011024 123.80655411 874.43011024 121.99520874 874.05992126 C112.14900355 871.94433584 103.03369942 868.80181155 94.01171875 864.34375 C93.37114532 864.02972733 92.7305719 863.71570465 92.07058716 863.39216614 C90.70911992 862.72434675 89.34880178 862.05418003 87.98959351 861.3817749 C84.34280389 859.57821597 80.68703278 857.79305488 77.03125 856.0078125 C76.29353867 855.64721741 75.55582733 855.28662231 74.79576111 854.9151001 C67.91212373 851.55953652 60.9676485 848.34692486 54.0078125 845.15234375 C49.44085469 843.03683252 44.87954672 840.90944299 40.3203125 838.77734375 C39.72458435 838.50017517 39.1288562 838.22300659 38.51507568 837.93743896 C23.18718555 830.8002036 9.20126983 823.29427625 -3.78466797 812.33789062 C-6.62456536 809.99923769 -9.6023485 807.88264179 -12.6171875 805.77734375 C-19.73001268 800.76991482 -26.7263771 795.61140781 -33.71875 790.4375 C-37.05542089 787.96968499 -40.40495991 785.52096835 -43.765625 783.0859375 C-59.71845949 771.50363626 -73.08027112 758.66922328 -85.94140625 743.765625 C-88.15225239 741.23681447 -90.41565193 738.75861811 -92.6796875 736.27734375 C-96.11233511 732.51383854 -99.4952376 728.71605024 -102.8359375 724.87109375 C-105.08845207 722.31315348 -107.38285842 719.79555395 -109.6796875 717.27734375 C-113.13544163 713.48800249 -116.5449164 709.66650677 -119.91015625 705.796875 C-123.45545704 701.75069286 -127.07427749 697.76991188 -130.6796875 693.77734375 C-132.97585565 691.23460721 -135.27040585 688.6905467 -137.55859375 686.140625 C-138.87387901 684.67515983 -140.19339479 683.21346547 -141.51953125 681.7578125 C-149.5200837 672.85016794 -155.84968031 663.15240213 -161.5546875 652.65234375 C-162.78245141 650.42630907 -164.01162057 648.20104888 -165.2421875 645.9765625 C-165.83257812 644.90712402 -166.42296875 643.83768555 -167.03125 642.73583984 C-169.14527119 638.9417479 -171.33237377 635.19622381 -173.5546875 631.46484375 C-177.694088 624.48669567 -181.76759604 617.47140552 -185.8069458 610.43496704 C-186.4986738 609.23116282 -187.19176703 608.02814175 -187.88641357 606.82601929 C-188.87743233 605.11023965 -189.86256673 603.39106568 -190.84765625 601.671875 C-191.70266724 600.18457886 -191.70266724 600.18457886 -192.57495117 598.66723633 C-198.72118319 587.47730303 -203.69784936 576.12701459 -208.1640625 564.1875 C-208.75189146 562.62906294 -209.34005383 561.07075159 -209.92852783 559.51255798 C-211.15041471 556.27144427 -212.36647329 553.02821811 -213.57861328 549.78344727 C-215.1175123 545.66618261 -216.67379068 541.55573675 -218.23488998 537.44684696 C-219.45104564 534.23845067 -220.65633224 531.02604911 -221.85871124 527.81246758 C-222.42754276 526.29676494 -222.9999034 524.78238103 -223.57616425 523.26948738 C-227.27526032 513.53960488 -229.9980175 504.09196352 -231.6796875 493.77734375 C-231.79506489 493.07222971 -231.91044228 492.36711567 -232.02931595 491.64063454 C-232.93707251 486.04007894 -233.77511375 480.43002612 -234.59765625 474.81640625 C-234.72729578 473.93463085 -234.85693531 473.05285545 -234.99050331 472.14435959 C-235.67629823 467.47374357 -236.35668069 462.80237404 -237.03295898 458.13037109 C-237.58435719 454.32801588 -238.14614441 450.52742967 -238.7175293 446.72802734 C-241.82751099 426.02171966 -244.8497812 405.77261572 -243.6796875 384.77734375 C-243.62183075 383.60155762 -243.563974 382.42577148 -243.50436401 381.21435547 C-243.07806999 372.70790477 -242.53291426 364.21249596 -241.9420166 355.71606445 C-241.75768612 353.02991882 -241.58307555 350.34317688 -241.40855598 347.65637875 C-241.19415032 344.37213669 -240.97189125 341.08843102 -240.75 337.8046875 C-240.67282745 336.63139389 -240.59565491 335.45810028 -240.5161438 334.24925232 C-239.48287415 319.52083123 -237.39505326 305.35450163 -234.1171875 290.9765625 C-233.76271698 289.40504586 -233.40839108 287.83349659 -233.05419922 286.26191711 C-232.31349619 282.98570058 -231.56619878 279.7110673 -230.81494141 276.43725586 C-230.06036451 273.14459339 -229.31801426 269.84957555 -228.58740234 266.55151367 C-224.27832101 247.11355171 -219.43446564 228.47928524 -211.96520996 209.97067261 C-210.64169257 206.68296165 -209.35600263 203.38249191 -208.07910156 200.07641602 C-205.51484705 193.44506311 -202.91264428 186.82910579 -200.3046875 180.21484375 C-199.42033678 177.96558762 -198.53622179 175.71623879 -197.65234375 173.46679688 C-193.32089579 162.45031207 -193.32089579 162.45031207 -191.73165894 158.44639587 C-191.02204462 156.64596904 -190.32364522 154.84108693 -189.63577271 153.03224182 C-187.91846914 148.57295309 -186.27707229 144.6527345 -183.28125 140.875 C-182.64445312 140.05773437 -182.00765625 139.24046875 -181.3515625 138.3984375 C-180.67609375 137.55410156 -180.000625 136.70976562 -179.3046875 135.83984375 C-177.85798486 133.98806437 -176.41269899 132.13517737 -174.96875 130.28125 C-174.2459082 129.35844238 -173.52306641 128.43563477 -172.77832031 127.48486328 C-169.66779224 123.47186231 -166.67118421 119.37939899 -163.6796875 115.27734375 C-158.62074524 108.37229554 -153.49005983 101.52548204 -148.3046875 94.71484375 C-147.66273438 93.87050781 -147.02078125 93.02617188 -146.359375 92.15625 C-139.42111838 83.06770724 -132.39922762 74.23507806 -124.4921875 65.96484375 C-123.80705078 65.24103516 -123.12191406 64.51722656 -122.41601562 63.77148438 C-111.06639057 51.81013746 -98.6749025 41.96939607 -85.16870117 32.55932617 C-83.42958624 31.31422564 -81.72861549 30.0148731 -80.05981445 28.67700195 C-69.68517329 20.7367782 -57.88848244 17.1022244 -45.6171875 12.96484375 C-43.46486592 12.22252402 -41.31316773 11.47839422 -39.16210938 10.73242188 C-34.27780256 9.0441932 -29.39044901 7.3664299 -24.48852539 5.72996521 C-22.53600649 5.06776558 -20.59123085 4.38246872 -18.65307617 3.67933655 C-12.32657294 1.43166537 -6.70882608 0.12016915 0 0 Z " fill="#FE0000" transform="translate(245.6796875,0.22265625)"/>
</svg>
