<?xml version="1.0" encoding="UTF-8" standalone="no"?>
<svg
   version="1.1"
   width="1304"
   height="666"
   id="svg23"
   sodipodi:docname="lower-teeth.svg"
   inkscape:version="1.3.2 (091e20e, 2023-11-25, custom)"
   xmlns:inkscape="http://www.inkscape.org/namespaces/inkscape"
   xmlns:sodipodi="http://sodipodi.sourceforge.net/DTD/sodipodi-0.dtd"
   xmlns="http://www.w3.org/2000/svg"
   xmlns:svg="http://www.w3.org/2000/svg">
  <defs
     id="defs23" />
  <sodipodi:namedview
     id="namedview23"
     pagecolor="#0a0a0a"
     bordercolor="#000000"
     borderopacity="0.25"
     inkscape:showpageshadow="2"
     inkscape:pageopacity="0.0"
     inkscape:pagecheckerboard="0"
     inkscape:deskcolor="#0f0f0f"
     inkscape:zoom="0.65107362"
     inkscape:cx="652"
     inkscape:cy="332.52768"
     inkscape:window-width="1366"
     inkscape:window-height="705"
     inkscape:window-x="-8"
     inkscape:window-y="-8"
     inkscape:window-maximized="1"
     inkscape:current-layer="svg23" />
  <path
     d="M0 0 C1.18351615 3.55054846 0.92508897 6.50953072 0.65795898 10.17166138 C0.58467833 11.27466562 0.58467833 11.27466562 0.50991726 12.39995277 C0.34429725 14.87138285 0.17014882 17.342139 -0.00390625 19.81298828 C-0.12414142 21.5820204 -0.24382833 23.35108985 -0.36300659 25.12019348 C-0.62103707 28.93455565 -0.88273653 32.74864242 -1.14718628 36.56256485 C-1.56534319 42.59690566 -1.97400686 48.63186598 -2.38110352 54.66696167 C-3.3941043 69.66265479 -4.41906882 84.6575275 -5.44763184 99.65216064 C-6.24614359 111.2944534 -7.04109298 122.93696476 -7.8250227 134.58024967 C-8.22906538 140.57526704 -8.64055682 146.56971184 -9.05770874 152.56383061 C-9.31619195 156.30163553 -9.5679997 160.03986859 -9.81799698 163.77824974 C-9.93492661 165.50655148 -10.05458717 167.23467106 -10.17724228 168.96257591 C-11.33581096 183.93187224 -11.33581096 183.93187224 -8.30444336 198.54003906 C-7.95516281 199.53693756 -7.60588226 200.53383606 -7.24601746 201.5609436 C-6.86448013 202.61848846 -6.48294281 203.67603333 -6.08984375 204.765625 C-5.49089043 206.46203629 -5.49089043 206.46203629 -4.87983704 208.19271851 C-3.79890266 211.24838904 -2.70952687 214.3008789 -1.61616516 217.35211945 C-0.47433878 220.54522588 0.65627776 223.74229687 1.78808594 226.93896484 C3.8560045 232.77448155 5.93317609 238.60665042 8.01491356 244.43725014 C10.21840175 250.60945874 12.41261578 256.78494415 14.60546875 262.9609375 C16.87026214 269.33857518 19.13703759 275.71546804 21.41493225 282.08843994 C22.01050685 283.75970578 22.60306428 285.4320606 23.18885994 287.1067791 C24.71812278 291.46134778 26.29575003 295.78284059 27.99505615 300.0741272 C33.72517883 314.91381886 35.7765018 329.00453814 36.96875 344.796875 C37.17903286 347.29376934 37.39185365 349.79045109 37.60705566 352.28692627 C38.15981809 358.78402481 38.67611704 365.28351328 39.18493652 371.78417969 C39.60645636 377.09000546 40.05406494 382.39340434 40.50298309 387.69697189 C41.43205566 398.67950125 42.34465677 409.66354209 43.20898438 420.65136719 C43.2899234 421.64166931 43.37086243 422.63197144 43.45425415 423.65228271 C43.95256799 430.11356087 44.08976759 436.52054118 44 443 C36.97712958 445.74078768 29.94776225 448.46415607 22.91235352 451.17260742 C20.51963573 452.09642854 18.12866578 453.02478989 15.73950195 453.95776367 C12.30608736 455.29761539 8.86672914 456.62104198 5.42578125 457.94140625 C4.35789871 458.36216934 3.29001617 458.78293243 2.18977356 459.21644592 C1.18911362 459.59691574 0.18845367 459.97738556 -0.8425293 460.36938477 C-1.71967087 460.70913834 -2.59681244 461.04889191 -3.50053406 461.39894104 C-6.42390775 462.1019392 -8.14983156 461.91996116 -11 461 C-13.02681831 459.12909079 -14.773145 457.32527058 -16.5625 455.25 C-17.62600404 454.0570259 -18.68981466 452.86432505 -19.75390625 451.671875 C-20.29289551 451.06021484 -20.83188477 450.44855469 -21.38720703 449.81835938 C-23.88190515 447.00568732 -26.44173027 444.2547361 -29 441.5 C-30.00035876 440.41699794 -31.0003578 439.3336635 -32 438.25 C-32.7425 437.445625 -32.7425 437.445625 -33.5 436.625 C-35 435 -36.5 433.375 -38 431.75 C-38.4952417 431.2135083 -38.9904834 430.6770166 -39.50073242 430.12426758 C-40.49837218 429.04345056 -41.49593108 427.96255891 -42.4934082 426.8815918 C-45.02885428 424.1341339 -47.56579382 421.38808099 -50.10546875 418.64453125 C-50.62173828 418.08636719 -51.13800781 417.52820313 -51.66992188 416.953125 C-52.63031569 415.91486141 -53.59119211 414.87704385 -54.55273438 413.83984375 C-55.47544371 412.84189203 -56.39154563 411.83779653 -57.30145168 410.82815742 C-58.43686301 409.60610761 -59.60959848 408.41774244 -60.81586552 407.26557732 C-84.38926249 383.50407662 -95.75417772 348.42755289 -95.89962673 315.7889576 C-95.86920493 309.95399444 -95.71219321 304.12640687 -95.53484845 298.29432821 C-95.37458203 292.09471466 -95.36357911 285.89451118 -95.33421326 279.69314575 C-95.25763329 268.04003194 -95.05411093 256.39304169 -94.80047601 244.74258149 C-94.60234747 235.4321979 -94.46542827 226.12293301 -94.37329102 216.81103516 C-94.36343888 215.81814792 -94.36343888 215.81814792 -94.35338772 214.80520235 C-94.32074627 211.48234197 -94.2892146 208.15947213 -94.25809014 204.8365972 C-93.99934245 177.554384 -93.56193087 150.27754023 -93 123 C-92.67 123 -92.34 123 -92 123 C-83.75 167.55 -75.5 212.1 -67 258 C-66.20230493 230.84613912 -66.20230493 230.84613912 -65.71875 203.69140625 C-65.7005021 202.20132525 -65.68189422 200.71124863 -65.66296387 199.22117615 C-65.59596232 193.89965267 -65.53408106 188.57807484 -65.47393799 183.25646973 C-65.44781276 180.94636636 -65.42125898 178.63626835 -65.39453125 176.32617188 C-65.38598114 175.57329895 -65.37743103 174.82042603 -65.36862183 174.04473877 C-65.3247016 170.33994997 -65.2712004 166.63571574 -65.19726562 162.93139648 C-65.18327728 162.22721085 -65.16928894 161.52302521 -65.15487671 160.79750061 C-65.12743881 159.41983809 -65.09963517 158.04218279 -65.07144165 156.66453552 C-65.00135854 152.79296643 -65.03785889 148.94185409 -65.16796875 145.07226562 C-65.47924183 129.58094866 -59.09079681 117.84792596 -52 104.375 C-50.79667994 102.01926028 -49.59733853 99.66148429 -48.40185547 97.30175781 C-46.03543609 92.6393933 -43.65213344 87.98639528 -41.25292969 83.34082031 C-37.41217371 75.88461418 -33.73505084 68.35533196 -30.10693359 60.79394531 C-28.47989395 57.40717855 -26.8366727 54.0282804 -25.1953125 50.6484375 C-24.52761957 49.271834 -23.8599777 47.89520574 -23.19238281 46.51855469 C-19.25725686 38.40687565 -15.31698752 30.29770757 -11.37054443 22.19152832 C-10.46209941 20.32463435 -9.55441614 18.45736951 -8.64752197 16.58972168 C-7.39193564 14.00418707 -6.13378693 11.41991504 -4.875 8.8359375 C-4.49673065 8.05554108 -4.1184613 7.27514465 -3.72872925 6.47109985 C-1.1140682 1.1140682 -1.1140682 1.1140682 0 0 Z "
     fill="#FCFCFC"
     transform="translate(484,154)"
     id="path1"
     style="fill:#cccccc;fill-opacity:1" />
  <path
     d="M0 0 C1.57652913 2.9346195 2.59910914 5.76785611 3.48266602 8.97680664 C3.76322845 9.9878949 4.04379089 10.99898315 4.33285522 12.04071045 C4.78877548 13.70858612 4.78877548 13.70858612 5.25390625 15.41015625 C5.74608139 17.19126801 5.74608139 17.19126801 6.24819946 19.00836182 C7.16280231 22.32171093 8.07359977 25.63606376 8.98278427 28.95090103 C9.96972152 32.54579345 10.96139508 36.1393795 11.95239258 39.7331543 C13.93062058 46.91034411 15.90399921 54.0888594 17.87577152 61.26782513 C19.55788643 67.39186687 21.24182768 73.51540413 22.92675781 79.63867188 C23.42633073 81.45439652 23.92590349 83.27012121 24.42547607 85.08584595 C25.18787093 87.85674383 25.95033505 90.62762258 26.71298981 93.39844894 C29.60124967 103.89215157 32.48307436 114.38754745 35.34960938 124.88720703 C36.41217127 128.77652842 37.47537859 132.66567282 38.5390625 136.5546875 C38.80285454 137.5193758 39.06664658 138.4840641 39.33843231 139.47798538 C42.83063042 152.23676252 46.39918177 164.97133327 50.04466248 177.68714905 C51.95856333 184.36368309 53.84888026 191.04682897 55.73393345 197.7315588 C57.2453081 203.08286988 58.78708699 208.42404786 60.3540535 213.75932693 C61.3214297 217.08246234 62.25725422 220.41394099 63.18555069 223.74818039 C63.61112707 225.25331291 64.04873642 226.755123 64.50127792 228.25236893 C68.51520638 241.57219785 68.40846509 254.47286913 68.08332253 268.30290413 C68.00201755 271.91047936 67.9537493 275.51681883 67.91777039 279.12510681 C67.76910228 293.3489158 67.46328272 307.56957139 67.10895252 321.78955841 C66.93340428 328.88671949 66.78264348 335.98277724 66.68969727 343.08154297 C66.60742659 349.36218731 66.4801286 355.64004624 66.29928225 361.91865396 C66.20575414 365.21579984 66.14000789 368.50948933 66.11527443 371.80796814 C65.92219204 394.32900539 65.92219204 394.32900539 59.46957684 400.90084076 C56.77963503 403.20484048 53.98558937 405.08692504 51 407 C49.14977366 408.50023585 47.3131214 410.01762592 45.5 411.5625 C44.62472656 412.26375 43.74945312 412.965 42.84765625 413.6875 C40.7006632 415.43101151 38.59117459 417.19591843 36.49609375 419 C35.90441406 419.50845459 35.31273437 420.01690918 34.703125 420.54077148 C33.54485345 421.53904397 32.38978244 422.54104461 31.23828125 423.54711914 C27.22074336 427 27.22074336 427 25 427 C24.92367568 408.65721104 25.03937661 390.31840233 25.21875 371.9765625 C25.22973724 370.84347404 25.24072449 369.71038559 25.25204468 368.54296112 C25.35569517 357.88651786 25.46264441 347.23010891 25.57275391 336.57373047 C25.9347803 301.38082283 26.06786171 266.19464353 26 231 C25.88846148 232.02798108 25.77692295 233.05596216 25.66200447 234.11509418 C22.9504013 259.10273295 20.22933779 284.08932757 17.49829292 309.07484913 C16.17781262 321.15757067 14.86043318 333.24061542 13.55029297 345.32446289 C12.40866066 355.85403465 11.26127184 366.38296024 10.106902 376.91114348 C9.49560857 382.48818626 8.88724582 388.06551435 8.28577042 393.64362526 C7.71997252 398.89000887 7.14650273 404.1354961 6.56704712 409.38038826 C6.35535587 411.30904325 6.14650906 413.23801282 5.94067001 415.16730118 C5.65993674 417.79458807 5.36913601 420.42056756 5.07571411 423.04646301 C4.99593893 423.81591415 4.91616375 424.58536528 4.83397114 425.37813312 C4.42282046 428.96170329 4.03911522 430.94132717 2 434 C-7.7015388 427.2176182 -17.31600033 420.3340519 -26.83032227 413.29125977 C-32.93668101 408.77375929 -39.07904958 404.30908042 -45.24780273 399.87719727 C-46.64725564 398.87057325 -48.02713155 397.83638585 -49.39038086 396.78125 C-51.54570941 395.31008552 -53.44923678 394.30752424 -55.79907227 393.234375 C-61.43493291 390.37475888 -65.89011858 387.34478906 -67.95050049 381.13552856 C-69.59622515 372.70949052 -69.61155648 364.19909846 -69.47216034 355.64874649 C-69.43713361 353.35096467 -69.42668334 351.05397235 -69.41900635 348.75595093 C-69.18777412 316.86677702 -61.19163686 288.01572233 -51.18989563 257.96225929 C-48.80277277 250.78323548 -46.45027651 243.59295754 -44.1091423 236.39882278 C-43.32923448 234.00889638 -42.54542806 231.62024042 -41.75877762 229.23252487 C-25.85101455 180.93524988 -16.18582989 133.74089134 -10.56430125 83.23143846 C-9.47524814 73.46961047 -8.29797808 63.71859158 -7.12304688 53.96679688 C-5.92539805 44.00957796 -4.73441946 34.05196197 -3.59831238 24.08750916 C-3.42715106 22.59293093 -3.25598818 21.09835288 -3.08482361 19.60377502 C-2.76872791 16.84153281 -2.45757533 14.07879413 -2.14926147 11.31567383 C-2.01139725 10.10870346 -1.87353302 8.90173309 -1.73149109 7.65818787 C-1.61350001 6.6070452 -1.49550894 5.55590254 -1.37394238 4.47290707 C-1 2 -1 2 0 0 Z "
     fill="#FCFCFC"
     transform="translate(617,232)"
     id="path2"
     style="fill:#e5e5e5;fill-opacity:1" />
  <path
     d="M0 0 C30.62997401 30.62997401 22.79214573 127.41714469 22.85305119 166.3107152 C22.85006187 173.86007181 22.80554355 181.40927478 22.76656771 188.95851541 C22.73104398 197.88874067 22.81140911 206.81308279 22.95019531 215.7421875 C24.71083912 331.60938473 24.71083912 331.60938473 -8.71697998 368.03015137 C-10.7541809 370.10209412 -12.85052971 372.04780199 -15 374 C-16.22088575 375.34344637 -17.42653302 376.70106473 -18.609375 378.078125 C-22.04632186 382.07669033 -25.62816659 385.91903185 -29.25 389.75 C-34.66464856 395.50156002 -40.04172152 401.28302029 -45.3671875 407.1171875 C-47.22178052 409.14788431 -49.08043838 411.17411626 -50.9453125 413.1953125 C-51.43547852 413.72737305 -51.92564453 414.25943359 -52.43066406 414.80761719 C-53.78380516 416.27603603 -55.13795984 417.74352067 -56.4921875 419.2109375 C-59.07500442 422.08341613 -61.54558472 425.01775348 -64 428 C-70.82737232 426.04735696 -77.4681148 423.79264933 -84.09375 421.2421875 C-85.00709106 420.8936673 -85.92043213 420.54514709 -86.8614502 420.18606567 C-88.77122403 419.45659556 -90.68035775 418.72544756 -92.58886719 417.99267578 C-95.51880343 416.86778077 -98.45062181 415.74791 -101.3828125 414.62890625 C-103.24490134 413.91695346 -105.10688442 413.20472395 -106.96875 412.4921875 C-107.84575562 412.15677948 -108.72276123 411.82137146 -109.62634277 411.47579956 C-110.43478638 411.16522614 -111.24322998 410.85465271 -112.07617188 410.53466797 C-113.1434552 410.12521439 -113.1434552 410.12521439 -114.2322998 409.70748901 C-116 409 -116 409 -118 408 C-117.34876507 393.61114399 -116.27166586 379.27947865 -115.0390625 364.9296875 C-114.89711519 363.26814322 -114.89711519 363.26814322 -114.75230026 361.57303238 C-114.25318114 355.73326909 -113.75028164 349.89384622 -113.24414062 344.0546875 C-112.72456715 338.05171626 -112.21831466 332.04769685 -111.71494484 326.04334831 C-111.32250348 321.39118337 -110.92024646 316.73990425 -110.51533127 312.08880997 C-110.32429711 309.87486133 -110.1369242 307.66059343 -109.95338821 305.44601059 C-109.6962854 302.35476995 -109.42524016 299.2650432 -109.15087891 296.17529297 C-109.07907913 295.27437424 -109.00727936 294.37345551 -108.93330383 293.44523621 C-108.12779547 284.69659078 -105.38699324 277.23662382 -101.296875 269.51953125 C-100.94224182 268.83743088 -100.58760864 268.15533051 -100.222229 267.45256042 C-99.46344615 265.99410154 -98.70196804 264.53704216 -97.93798828 263.08129883 C-96.72394969 260.76274958 -95.52247311 258.43807053 -94.32421875 256.11132812 C-90.91281091 249.49302417 -87.50081583 242.87704459 -83.94372559 236.33554077 C-76.82602323 223.10423911 -71.11211608 210.33980847 -67.19921875 195.8515625 C-66.77722184 194.32849235 -66.35398761 192.80576457 -65.92961121 191.28335571 C-65.04865878 188.11500592 -64.17518862 184.94473933 -63.30804443 181.77258301 C-62.03492195 177.11822013 -60.74029878 172.47005926 -59.43994141 167.82324219 C-57.09731497 159.4448253 -54.77154994 151.06180552 -52.45013428 142.67749023 C-51.37968504 138.81211004 -50.3079878 134.94707599 -49.23632812 131.08203125 C-49.02541975 130.32118855 -48.81451138 129.56034584 -48.59721184 128.7764473 C-47.55931019 125.03266737 -46.52056274 121.28912582 -45.48001099 117.54608154 C-45.08120421 116.11113401 -44.68243057 114.67617726 -44.28369141 113.24121094 C-44.09041323 112.54570507 -43.89713505 111.8501992 -43.69799995 111.1336174 C-42.41894241 106.5251804 -41.15621719 101.91254076 -39.89990234 97.29785156 C-39.57865891 96.12678864 -39.25741547 94.95572571 -38.92643738 93.74917603 C-38.33388143 91.58868502 -37.74640499 89.42679181 -37.16499329 87.26327515 C-36.90647079 86.3251297 -36.6479483 85.38698425 -36.3815918 84.42041016 C-36.16125778 83.6086734 -35.94092377 82.79693665 -35.71391296 81.96060181 C-35 80 -35 80 -33 78 C-33 114.3 -33 150.6 -33 188 C-22.11 125.96 -11.22 63.92 0 0 Z "
     fill="#FCFCFC"
     transform="translate(815,230)"
     id="path3"
     style="fill:#e5e5e5;fill-opacity:1" />
  <path
     d="M0 0 C2.17592616 2.85113199 3.99289994 5.66344133 5.6796875 8.83203125 C6.44406128 10.25829834 6.44406128 10.25829834 7.22387695 11.71337891 C7.76874756 12.73608887 8.31361816 13.75879883 8.875 14.8125 C13.25598408 22.97552707 17.71591849 31.08151927 22.3125 39.125 C28.11087747 49.29808972 33.63602285 59.60437318 39.1237793 69.94677734 C39.79993194 71.22104749 40.47611973 72.49529899 41.15234375 73.76953125 C41.48235886 74.39144348 41.81237396 75.01335571 42.15238953 75.65411377 C45.10323029 81.20815104 48.10393863 86.73392257 51.125 92.25 C55.61019574 100.44394449 60.06648208 108.65300703 64.5 116.875 C65.08797363 117.96329102 65.67594727 119.05158203 66.28173828 120.17285156 C67.11680908 121.72311035 67.11680908 121.72311035 67.96875 123.3046875 C68.45794922 124.21202637 68.94714844 125.11936523 69.45117188 126.05419922 C69.96228516 127.02631348 70.47339844 127.99842773 71 129 C71.6579657 130.01699982 72.3159314 131.03399963 72.99383545 132.08181763 C76.40198734 138.98046366 76.16613815 147.088001 76.64746094 154.63671875 C76.77467585 156.43467874 76.90338267 158.23253371 77.03346252 160.0302887 C77.38140563 164.89958383 77.7080974 169.77009446 78.03065395 174.64112854 C78.37266095 179.75537857 78.73329056 184.86831735 79.09161377 189.98144531 C79.69117566 198.57525259 80.27790903 207.16985678 80.85595703 215.76513672 C81.59524493 226.75703286 82.35536396 237.74738203 83.12228012 248.73738098 C83.78428197 258.22619239 84.43674509 267.71565643 85.08765125 277.20523453 C85.29578129 280.23408366 85.50516587 283.26284415 85.71471405 286.29159546 C86.04525233 291.07815652 86.3697976 295.86509085 86.68995476 300.6523571 C86.80742397 302.39700693 86.9266711 304.14153824 87.04795265 305.8859272 C87.62625891 314.22199061 88.11440524 322.55281996 88.23248291 330.90966797 C88.26225912 332.81279251 88.26225912 332.81279251 88.29263687 334.75436401 C87.92434253 338.83911707 86.79580616 340.87625733 83.78320312 343.57421875 C83.21537109 344.00347656 82.64753906 344.43273437 82.0625 344.875 C80.94848313 345.82987161 79.83516697 346.78556151 78.72265625 347.7421875 C77.82417969 348.48726563 76.92570312 349.23234375 76 350 C75.67 350.66 75.34 351.32 75 352 C74.34 352 73.68 352 73 352 C72.75161377 352.57508301 72.50322754 353.15016602 72.24731445 353.74267578 C70.81342903 356.33764635 69.16340731 358.04690985 67.04296875 360.1171875 C65.86831055 361.27541016 65.86831055 361.27541016 64.66992188 362.45703125 C63.85072266 363.25496094 63.03152344 364.05289062 62.1875 364.875 C57.21054567 369.7447095 52.32917733 374.53803591 48 380 C42.80771145 379.42770367 38.6896297 376.9017839 34.1875 374.4375 C33.00510742 373.80038086 33.00510742 373.80038086 31.79882812 373.15039062 C29.86265549 372.10603084 27.93056161 371.05467606 26 370 C25.82825244 361.50108541 26.36547188 353.14427765 27.09375 344.6796875 C27.20635107 343.32695598 27.31844212 341.97418193 27.43005371 340.62136841 C27.7816738 336.37215057 28.14055447 332.12356187 28.5 327.875 C28.91699505 322.93727568 29.33089571 317.99931591 29.73908997 313.06085587 C29.90215995 311.10377418 30.06985609 309.14707971 30.2376709 307.19039917 C30.77129486 300.76635049 31.12167399 294.44611404 31 288 C30.75610031 288.82970306 30.51220062 289.65940613 30.26091003 290.51425171 C27.95168482 298.36964062 25.64219273 306.22495101 23.33240795 314.0801754 C22.14520704 318.11769802 20.95810591 322.15524991 19.77124023 326.19287109 C18.62382566 330.09626881 17.47613928 333.99958653 16.32827187 337.9028511 C15.89245423 339.38499791 15.45673119 340.86717253 15.02110863 342.34937668 C12.70215233 350.23938157 10.37671225 358.12714528 8 366 C7.34 366 6.68 366 6 366 C3.80898838 361.6366186 1.76057276 357.2326331 -0.20117188 352.76147461 C-0.87557842 351.26713665 -1.57989852 349.78575478 -2.3203125 348.32299805 C-10.68345928 331.68382061 -7.19278113 314.91899101 -4.81506348 297.24649048 C-3.89484578 290.32327415 -3.1083632 283.38655709 -2.33105469 276.44604492 C-2.18717945 275.16278226 -2.04330421 273.8795196 -1.89506912 272.55737019 C-1.67253457 270.57034451 -1.45000381 268.58331837 -1.22792649 266.59624153 C-0.4673977 259.79606169 0.31031445 252.99788109 1.09047842 246.19992983 C1.32869921 244.12390217 1.56657436 242.04783514 1.80437088 239.97175884 C2.61237996 232.91975508 3.42350862 225.86812005 4.23828125 218.81689453 C4.963048 212.5442454 5.68252543 206.27101262 6.39621997 199.9970938 C6.77001573 196.7131659 7.14725893 193.42969489 7.52951813 190.14673996 C7.95253692 186.51181249 8.3664097 182.87594676 8.77832031 179.23974609 C8.90294647 178.18826385 9.02757263 177.13678162 9.15597534 176.05343628 C10.51541385 163.85845525 9.98666559 151.89069165 9.08203125 139.67944336 C8.98310172 138.29802827 8.88459353 136.91658295 8.78646851 135.53511047 C8.57629684 132.58803385 8.36330575 129.64118028 8.14804077 126.69447136 C7.80693809 122.02360561 7.47293367 117.35224789 7.13989258 112.68080139 C6.49208317 103.6069646 5.83778634 94.53360209 5.18226624 85.46031952 C4.34765773 73.9081709 3.51430021 62.3559402 2.69032955 50.80302721 C2.35967768 46.17051939 2.02489018 41.53833561 1.68678284 36.90636623 C1.47650845 34.01392846 1.26980811 31.12124288 1.06401443 28.2284832 C0.92377499 26.27215848 0.77928566 24.31613982 0.63461304 22.36013794 C0.10767843 14.89201457 -0.11363531 7.48626003 0 0 Z M32 282 C33 285 33 285 33 285 Z "
     fill="#FCFCFC"
     transform="translate(967,135)"
     id="path4"
     style="fill:#999999;fill-opacity:1" />
  <path
     d="M0 0 C1.97043262 3.53063605 2.98501808 7.14473956 4.06518555 11.03149414 C4.26307741 11.7392653 4.46096928 12.44703646 4.66485786 13.17625523 C5.32602986 15.54482527 5.98132917 17.91498027 6.63671875 20.28515625 C7.10907086 21.98133201 7.58179202 23.67740503 8.05485535 25.37338257 C9.60461569 30.93488767 11.14622515 36.49863849 12.6875 42.0625 C14.581728 48.89506765 16.47681286 55.72739771 18.37210083 62.5596714 C18.93130744 64.57609141 19.49026514 66.59258046 20.04898071 68.60913658 C23.92320855 82.59112171 27.85070506 96.55687244 31.82458687 110.51084328 C33.41987924 116.12163661 35.00371318 121.73567473 36.58681774 127.34991741 C37.84303787 131.80139313 39.10652931 136.25051508 40.38778687 140.69485474 C41.59502433 144.88286242 42.7820489 149.07612437 43.95534706 153.27376175 C44.38275515 154.78963874 44.81704706 156.3035994 45.25966454 157.81510544 C48.95307391 170.44986067 50.13966894 182.89456833 51 196 C51.1322864 197.83947072 51.26606534 199.67883478 51.40142822 201.51808167 C51.80468277 207.06397868 52.17657574 212.61171783 52.54296875 218.16015625 C52.6770202 220.17557319 52.811079 222.19098964 52.94514465 224.20640564 C53.22169854 228.37487064 53.49609975 232.54347131 53.76928711 236.7121582 C54.11932206 242.04620541 54.47813849 247.3796257 54.83884716 252.71296024 C55.11715154 256.85019482 55.3892657 260.98781969 55.65966225 265.12557793 C55.78935056 267.09407138 55.92132777 269.06241549 56.05568504 271.03059578 C56.24183155 273.76618834 56.41922466 276.50221664 56.59448242 279.23852539 C56.65104004 280.04108765 56.70759766 280.8436499 56.76586914 281.67053223 C57.22887391 289.17470011 56.29812782 294.22934275 51.875 300.4375 C50.95669282 301.76970399 50.04013945 303.10311799 49.125 304.4375 C48.62355469 305.16453125 48.12210938 305.8915625 47.60546875 306.640625 C45.26700783 310.0771953 43.00715939 313.56292972 40.7487793 317.05249023 C39.4865715 318.99587911 38.21436795 320.932808 36.93286133 322.86352539 C33.54118357 327.98603585 30.32508387 333.13402372 27.32421875 338.49609375 C19.13265724 352.6523741 12.09958863 359.23795473 -3.82421875 363.6796875 C-4.70166748 363.89351074 -5.57911621 364.10733398 -6.4831543 364.32763672 C-9.06452436 364.95063845 -9.06452436 364.95063845 -11.63598633 366.14501953 C-14 367 -14 367 -17 366 C-16.71566605 365.09101959 -16.43133209 364.18203918 -16.13838196 363.24551392 C-12.52876493 351.70565204 -8.92023227 340.16545125 -5.3125 328.625 C-4.88379545 327.25365906 -4.88379545 327.25365906 -4.44643021 325.85461426 C4.07877113 298.58300232 12.58529815 271.30595194 21 244 C14.69255286 255.63914018 8.71865876 267.4304275 2.8125 279.27734375 C1.86003967 281.18413455 0.90739968 283.09083561 -0.04541016 284.99745178 C-2.52621808 289.96284591 -5.00461929 294.92943734 -7.48248291 299.89630127 C-10.02199625 304.98564411 -12.5638368 310.07382434 -15.10546875 315.16210938 C-20.07256221 325.10695069 -25.03710825 335.05306127 -30 345 C-30.66 345 -31.32 345 -32 345 C-44.08014874 328.70781411 -46.3976766 312.76661115 -47.66363525 293.18151855 C-47.8645588 290.23711131 -48.10981276 287.29712743 -48.35696888 284.35629272 C-48.86731081 278.27747293 -49.3444466 272.19589666 -49.75317383 266.109375 C-49.86209709 264.51561035 -49.86209709 264.51561035 -49.97322083 262.88964844 C-50.01483869 258.39880779 -49.39770969 255.08965342 -46.734375 251.4609375 C-46.26338379 250.80826904 -45.79239258 250.15560059 -45.30712891 249.4831543 C-44.79327637 248.78746338 -44.27942383 248.09177246 -43.75 247.375 C-42.64706956 245.84864378 -41.54555632 244.3212627 -40.4453125 242.79296875 C-39.87458008 242.00325684 -39.30384766 241.21354492 -38.71582031 240.39990234 C-35.95541064 236.53894231 -33.29130929 232.61376312 -30.625 228.6875 C-25.28884529 220.84859751 -19.869981 213.07051619 -14.40478516 205.32104492 C-13.8432373 204.52287354 -13.28168945 203.72470215 -12.703125 202.90234375 C-11.95530762 201.84261353 -11.95530762 201.84261353 -11.19238281 200.76147461 C-5.57976238 192.47010351 -7.62377468 178.23885565 -7.25976562 168.43066406 C-7.19253328 166.67686491 -7.12503632 164.92307589 -7.05729675 163.16929626 C-6.91273004 159.41320936 -6.76991449 155.65706154 -6.62846375 151.90085602 C-6.40456548 145.95825133 -6.17608547 140.01582808 -5.94689941 134.07342529 C-5.3786519 119.32147662 -4.81636459 104.56930146 -4.25531006 89.81707764 C-3.81852109 78.3339925 -3.38007737 66.85097565 -2.93664885 55.36814475 C-2.70881886 49.46349135 -2.48440686 43.55872107 -2.26259613 37.65383863 C-2.12390031 33.98126433 -1.98217737 30.30881138 -1.8396244 26.63638496 C-1.77425668 24.93650432 -1.71013799 23.23657511 -1.64737511 21.5365963 C-1.56137714 19.21201822 -1.47086579 16.88765684 -1.37927246 14.56329346 C-1.32987267 13.26402546 -1.28047287 11.96475746 -1.22957611 10.62611771 C-1.00154156 7.02434863 -0.56041548 3.5619539 0 0 Z "
     fill="#FBFBFB"
     transform="translate(896,224)"
     id="path5"
     style="fill:#b2b2b2;fill-opacity:1" />
  <path
     d="M0 0 C0.33 0 0.66 0 1 0 C1.14723763 0.90311889 1.29447525 1.80623777 1.44617462 2.7367239 C5.07073483 24.96884839 8.69535759 47.20096269 12.32004547 69.43306637 C15.51651374 89.03869193 15.51651374 89.03869193 17.0623166 98.52037346 C17.40650229 100.63151065 17.75070085 102.74264574 18.09491235 104.85377872 C18.94672737 110.07825414 19.79833326 115.30276347 20.64949322 120.52734566 C22.30885734 130.71133036 23.97182727 140.89470305 25.64228821 151.07687378 C26.28062794 154.97093202 26.91847031 158.86507138 27.5559082 162.75927734 C27.70929425 163.69612232 27.86268029 164.6329673 28.0207144 165.59820151 C29.91627255 177.18912385 31.74974751 188.78669629 33.49682617 200.40087891 C34.01481595 203.78703942 34.534288 207.17296917 35.0541687 210.5588398 C35.48914631 213.44774152 35.89681002 216.33948495 36.30224609 219.23265076 C38.36219767 233.10570893 43.00520202 243.04602016 52.20605469 253.83691406 C54.94932843 257.14467201 57.17095125 260.732224 59.4375 264.375 C60.29857776 265.71235882 61.16193131 267.04825458 62.02734375 268.3828125 C65.49756717 273.76793617 68.95727868 279.15980863 72.4133606 284.55401611 C73.47763644 286.21509584 74.54240185 287.87586186 75.60717773 289.53662109 C76.26274658 290.56094238 76.91831543 291.58526367 77.59375 292.640625 C78.17833984 293.55360352 78.76292969 294.46658203 79.36523438 295.40722656 C79.90470703 296.2628418 80.44417969 297.11845703 81 298 C81.87881836 299.24861816 81.87881836 299.24861816 82.77539062 300.52246094 C84 303 84 303 83.88378906 305.43603516 C82.8242092 308.50998756 81.4461117 311.18320516 79.859375 314.0234375 C79.54083557 314.59784073 79.22229614 315.17224396 78.894104 315.76405334 C77.85260388 317.6380967 76.80149299 319.50654811 75.75 321.375 C75.02291609 322.67817602 74.29635886 323.98164603 73.5703125 325.28540039 C71.38965999 329.19560148 69.1957689 333.09827378 67 337 C66.37287109 338.11648926 65.74574219 339.23297852 65.09960938 340.38330078 C58.78501839 351.61832968 52.41299173 362.82085732 46 374 C39.72948971 370.80974038 34.14417957 367.00593137 28.52441406 362.80371094 C21.34183588 357.45483187 13.96905431 352.38499577 6.59326172 347.30737305 C5.63822754 346.64777588 4.68319336 345.98817871 3.69921875 345.30859375 C2.84158936 344.71876709 1.98395996 344.12894043 1.1003418 343.52124023 C-2.88530482 340.63450722 -2.88530482 340.63450722 -3.39947605 337.79005146 C-3.47007709 336.8644451 -3.54067812 335.93883875 -3.61341858 334.98518372 C-3.69886429 333.92395294 -3.78431 332.86272217 -3.87234497 331.76933289 C-3.95709076 330.59997696 -4.04183655 329.43062103 -4.12915039 328.22583008 C-4.22537186 326.99807861 -4.32159332 325.77032715 -4.42073059 324.50537109 C-4.68341643 321.13159352 -4.93797362 317.75738059 -5.18914723 314.38273835 C-5.45412859 310.85006557 -5.72982032 307.31823011 -6.00450134 303.78630066 C-6.52391539 297.08745662 -7.0343745 290.3879632 -7.54132217 283.68816537 C-8.28431253 273.87305393 -9.03885479 264.05882926 -9.79559231 254.2447691 C-9.85118677 253.52374895 -9.90678123 252.80272881 -9.96406037 252.05985957 C-10.07498469 250.62139212 -10.1859385 249.18292694 -10.29692262 247.7444641 C-10.62085193 243.54177795 -10.94157228 239.33886255 -11.25949681 235.13571799 C-11.50482562 231.89740518 -11.75285023 228.65929818 -12.00024414 225.42114258 C-12.08701416 224.26190781 -12.17378418 223.10267303 -12.26318359 221.90830994 C-12.38712242 220.29531509 -12.38712242 220.29531509 -12.51356506 218.6497345 C-12.58378907 217.72224301 -12.65401308 216.79475153 -12.72636509 215.83915424 C-13.04362828 212.547326 -13.53230803 209.27384382 -14 206 C-17.3 230.42 -20.6 254.84 -24 280 C-24.33 280 -24.66 280 -25 280 C-26.58508015 265.20520744 -27.79682393 250.3951788 -28.85986328 235.55419922 C-29.12515495 231.87284984 -29.40033544 228.19232056 -29.67578125 224.51171875 C-29.8495638 222.10941872 -30.02276067 219.70707624 -30.1953125 217.3046875 C-30.31714401 215.70075638 -30.31714401 215.70075638 -30.44143677 214.06442261 C-31.56588812 197.94851696 -30.9305198 182.88919046 -28.26196289 166.98999023 C-27.96681431 165.16651597 -27.67291163 163.34283969 -27.38014221 161.51898193 C-26.59129265 156.62747987 -25.78501889 151.73900329 -24.97505879 146.85095859 C-24.12755898 141.71881176 -23.29577497 136.58411666 -22.46202087 131.44972229 C-21.06334666 122.85040734 -19.65414125 114.2528747 -18.23754883 105.65649414 C-16.41735767 94.61064409 -14.6142988 83.56206882 -12.81667423 72.51252651 C-11.26946998 63.00272792 -9.7151449 53.4940955 -8.15932155 43.98570371 C-7.65948673 40.92950004 -7.16051521 37.87315625 -6.66160774 34.81680107 C-5.88023337 30.0332168 -5.09444774 25.25037712 -4.30515099 20.46809387 C-4.01551161 18.70943054 -3.72726236 16.95053765 -3.44046783 15.19140816 C-3.05049624 12.80110977 -2.65553308 10.41169131 -2.25917053 8.02244568 C-2.14535492 7.31781124 -2.03153932 6.6131768 -1.91427475 5.88718981 C-1.11422422 1.11422422 -1.11422422 1.11422422 0 0 Z "
     fill="#FBFBFB"
     transform="translate(295,168)"
     id="path6"
     style="fill:#999999;fill-opacity:1" />
  <path
     d="M0 0 C1.75644323 3.51288646 2.26238504 4.74577598 2.44810486 8.39993286 C2.52145302 9.71173271 2.52145302 9.71173271 2.59628296 11.05003357 C2.6404837 12.00176956 2.68468445 12.95350555 2.73022461 13.93408203 C2.78421921 14.94272812 2.83821381 15.95137421 2.8938446 16.99058533 C3.0100784 19.18113487 3.12228057 21.37190118 3.23093987 23.56283951 C3.40375302 27.03613686 3.58816012 30.5086432 3.77577209 33.98117065 C4.30687018 43.85477013 4.81505551 53.72952874 5.32006836 63.60449219 C5.62984866 69.64619169 5.95159223 75.68716531 6.28015327 81.72787094 C6.46181278 85.13840797 6.6293355 88.54945604 6.7966156 91.96072388 C6.91043919 94.07037425 7.02498999 96.17998555 7.14038086 98.28955078 C7.18255737 99.22914139 7.22473389 100.16873199 7.26818848 101.13679504 C7.77704999 109.90783145 9.98710988 117.35506893 14.06977081 125.10845375 C19.98771872 136.627159 20.0453988 147.26030616 19.78125 159.9765625 C19.76628639 162.1255785 19.75491892 164.27462222 19.74694824 166.42367554 C19.71673823 172.01707393 19.63845155 177.60874891 19.54931641 183.20147705 C19.46674481 188.93356018 19.43078592 194.66592813 19.390625 200.3984375 C19.30542075 211.59970601 19.16930149 222.79970844 19 234 C16.42362412 235.36907416 13.84031896 236.72028455 11.25 238.0625 C10.52039063 238.45244141 9.79078125 238.84238281 9.0390625 239.24414062 C7.97558594 239.79038086 7.97558594 239.79038086 6.890625 240.34765625 C6.24125977 240.68804932 5.59189453 241.02844238 4.92285156 241.37915039 C2.50917802 242.15847642 1.34073279 241.93408121 -1 241 C-2.86276192 239.0815019 -4.52210035 237.20197238 -6.1875 235.125 C-6.9136853 234.2431604 -6.9136853 234.2431604 -7.65454102 233.34350586 C-9.11227646 231.56965233 -10.55731782 229.78610547 -12 228 C-13.47855938 226.18700457 -14.95768135 224.37446773 -16.4375 222.5625 C-17.15808594 221.67691406 -17.87867188 220.79132813 -18.62109375 219.87890625 C-21.87426127 215.94198595 -25.2094595 212.07810357 -28.54296875 208.20922852 C-32.47315061 203.63850259 -36.33167226 199.02117845 -40.08203125 194.30078125 C-41.87113595 192.040957 -41.87113595 192.040957 -43.69921875 190.48046875 C-45.125 189.1875 -45.125 189.1875 -47 186 C-47.31573322 174.52956985 -44.71443062 162.73945095 -42.91015625 151.453125 C-42.60221055 149.50498852 -42.29455269 147.55680652 -41.98716736 145.60858154 C-41.34644481 141.5570909 -40.70124829 137.50634428 -40.05297852 133.45605469 C-39.22168565 128.25896219 -38.40341543 123.05991144 -37.58857059 117.86021805 C-36.95863133 113.85142649 -36.32112588 109.84386639 -35.68136406 105.83663177 C-35.37621595 103.91842456 -35.07362888 101.99980814 -34.77363777 100.08078766 C-34.35568743 97.41354227 -33.92740597 94.74815999 -33.49633789 92.08300781 C-33.37418915 91.289328 -33.25204041 90.49564819 -33.12619019 89.67791748 C-32.22843074 84.22843074 -32.22843074 84.22843074 -30 82 C-29.94465088 83.00788574 -29.88930176 84.01577148 -29.83227539 85.05419922 C-29.62390543 88.83769153 -29.41258963 92.62101481 -29.20043945 96.40429688 C-29.10948183 98.03348482 -29.01929497 99.66271601 -28.92993164 101.29199219 C-28.80043009 103.6505121 -28.66804301 106.00885617 -28.53515625 108.3671875 C-28.49656998 109.08115692 -28.4579837 109.79512634 -28.41822815 110.5307312 C-28.10296537 116.05229838 -27.55181474 121.48185258 -27 127 C-18.09 85.09 -9.18 43.18 0 0 Z "
     fill="#FAFAFA"
     transform="translate(227,206)"
     id="path7"
     style="fill:#808080;fill-opacity:1" />
  <path
     d="M0 0 C2.13886495 3.20829743 3.05280835 5.92849295 4.20800781 9.60302734 C4.52621616 10.60837336 4.52621616 10.60837336 4.85085297 11.63402939 C5.55619882 13.86658088 6.25467012 16.10122148 6.953125 18.3359375 C7.45038562 19.91491068 7.948054 21.4937555 8.44610596 23.07247925 C9.7781354 27.29904532 11.10417514 31.52746834 12.4289856 35.75630188 C13.79244536 40.1051775 15.16126037 44.45236713 16.52929688 48.79980469 C24.40799118 73.84926749 32.24338263 98.91245245 40 124 C39.96970703 123.175 39.93941406 122.35 39.90820312 121.5 C38.80991939 91.22116231 38.80991939 91.22116231 39 78 C40.73468702 80.60203053 41.40670333 81.97965537 42.15837097 84.88226318 C42.36450516 85.66720154 42.57063934 86.45213989 42.78302002 87.26086426 C43.00181824 88.11805054 43.22061646 88.97523682 43.44604492 89.85839844 C43.68202896 90.7644281 43.918013 91.67045776 44.16114807 92.60394287 C44.94052857 95.60416946 45.71105148 98.60657893 46.48046875 101.609375 C47.01796216 103.69585454 47.55558705 105.78230021 48.09333801 107.86871338 C49.21970437 112.24570953 50.34110768 116.62394504 51.4597168 121.00292969 C52.89282959 126.60946435 54.34325168 132.21136044 55.79812145 137.81228256 C56.91454222 142.12175514 58.01909723 146.43420447 59.12038612 150.74756622 C59.64999883 152.81387687 60.18389083 154.87909565 60.72215843 156.94316864 C61.47461589 159.83376418 62.21034187 162.72813893 62.94213867 165.62402344 C63.16700958 166.47311279 63.39188049 167.32220215 63.62356567 168.19702148 C65.05095738 173.94643909 65.69676825 179.04495416 62.609375 184.421875 C61.99578125 185.19015625 61.3821875 185.9584375 60.75 186.75 C56.88691691 191.78790263 53.25410828 196.9351448 49.6875 202.1875 C48.56132959 203.83993349 47.43502722 205.49227707 46.30859375 207.14453125 C45.47690674 208.3658374 45.47690674 208.3658374 44.62841797 209.61181641 C42.17787971 213.20569425 39.71518024 216.7911555 37.25 220.375 C36.58556885 221.34119263 36.58556885 221.34119263 35.90771484 222.3269043 C31.61848518 228.56051057 27.31203529 234.78215159 23 241 C20.02661611 240.19327141 17.07611459 239.32193874 14.125 238.4375 C13.28324219 238.20998047 12.44148438 237.98246094 11.57421875 237.74804688 C10.36572266 237.37583008 10.36572266 237.37583008 9.1328125 236.99609375 C8.38918457 236.78138428 7.64555664 236.5666748 6.87939453 236.34545898 C4.00766102 234.2895843 3.7156413 231.30280637 3 228 C2.56161137 225.19040285 2.28197409 222.37659378 2.02270508 219.54541016 C1.94277817 218.72979111 1.86285126 217.91417206 1.78050232 217.07383728 C1.52005478 214.39618284 1.26935677 211.71772734 1.01953125 209.0390625 C0.84094671 207.16487682 0.66204246 205.29072157 0.48283386 203.41659546 C0.10948493 199.49493509 -0.25881845 195.57284016 -0.6237793 191.65039062 C-1.09048114 186.64063642 -1.57148892 181.63237488 -2.0565443 176.62436867 C-2.42931795 172.75578257 -2.79352422 168.88642492 -3.15529823 165.01679611 C-3.32909019 163.17068039 -3.50571159 161.32482864 -3.6852932 159.47926712 C-3.93599027 156.89137656 -4.17485569 154.30264274 -4.41088867 151.71337891 C-4.48614777 150.96192093 -4.56140686 150.21046295 -4.63894653 149.43623352 C-5.22920898 142.71932877 -5.1536653 135.77754579 -2.3359375 129.5390625 C3.72752034 114.67875904 3.39009414 100.78015961 2.45692444 85.08255005 C1.81794077 74.32960167 1.45805819 63.56586323 1.06906128 52.80151367 C0.94119492 49.34974474 0.80321682 45.89852601 0.66235352 42.44726562 C0.09840246 28.29073939 -0.12436742 14.1674261 0 0 Z "
     fill="#FAFAFA"
     transform="translate(1067,190)"
     id="path8"
     style="fill:#808080;fill-opacity:1" />
  <path
     d="M0 0 C0.33 0 0.66 0 1 0 C0.36803165 6.93354938 -0.89243222 13.53553969 -2.46850586 20.31201172 C-2.84429527 21.95533981 -2.84429527 21.95533981 -3.22767639 23.63186646 C-4.05211963 27.23221571 -4.88353912 30.83091694 -5.71484375 34.4296875 C-6.29205892 36.94626387 -6.86875679 39.46295894 -7.44496155 41.97976685 C-8.80607495 47.92060239 -10.17129367 53.860479 -11.53888279 59.79982674 C-14.12955617 71.05115668 -16.71291976 82.30415913 -19.29245186 93.55804825 C-20.13759087 97.24040764 -20.98608639 100.9219818 -21.83494568 104.60348511 C-22.35744273 106.87869733 -22.87983294 109.1539341 -23.40209961 111.42919922 C-23.63645721 112.44149597 -23.87081482 113.45379272 -24.11227417 114.49676514 C-25.59388871 120.96881544 -26.86736759 127.45791462 -28 134 C-25.383738 128.6481539 -22.76948085 123.29533469 -20.15698242 117.94165039 C-19.27014729 116.12498304 -18.38278898 114.30857098 -17.49487305 112.49243164 C-10.56166575 98.33352881 -10.56166575 98.33352881 -4 84 C-3.67 84 -3.34 84 -3 84 C-0.90406993 115.55441306 -2.29381811 143.19214182 -11.4375 173.375 C-11.63874859 174.04046341 -11.83999718 174.70592682 -12.04734421 175.39155579 C-18.78767481 197.57534962 -18.78767481 197.57534962 -21 202 C-25.34705378 201.78413603 -29.66641174 201.40061999 -34 201 C-34.68416992 200.96696777 -35.36833984 200.93393555 -36.07324219 200.89990234 C-36.76836914 200.86461426 -37.46349609 200.82932617 -38.1796875 200.79296875 C-38.80085449 200.76871826 -39.42202148 200.74446777 -40.06201172 200.71948242 C-43.56215141 200.19819288 -46.848652 199.63415201 -50 198 C-52.01879883 195.08886719 -52.01879883 195.08886719 -53.51953125 191.421875 C-53.79991745 190.76067657 -54.08030365 190.09947815 -54.3691864 189.41824341 C-54.96412837 188.00879008 -55.54710248 186.59423379 -56.11889648 185.17523193 C-56.99120965 183.02170126 -57.90184781 180.88911924 -58.828125 178.75830078 C-60.68678633 174.47654443 -62.50182845 170.17722147 -64.3125 165.875 C-64.93790741 164.39573031 -65.56355764 162.91656325 -66.18945312 161.4375 C-67.79963142 157.62773258 -69.40766769 153.81726919 -71 150 C-71.4127417 149.21254395 -71.8254834 148.42508789 -72.25073242 147.61376953 C-74.73250875 138.95625981 -70.12355443 129.07159499 -67.51171875 120.80859375 C-67.1714865 119.72560847 -67.1714865 119.72560847 -66.82438087 118.62074471 C-65.62089602 114.79304336 -64.40689685 110.96886273 -63.18432617 107.1472168 C-62.18752833 104.02541651 -61.20993942 100.89863303 -60.24975586 97.76538086 C-55.0157637 80.70571857 -50.30003201 65.40798233 -38 52 C-36.71702909 50.32266889 -35.45435318 48.62939823 -34.22265625 46.9140625 C-33.69647705 46.20088867 -33.17029785 45.48771484 -32.62817383 44.75292969 C-32.11150146 44.05071289 -31.5948291 43.34849609 -31.0625 42.625 C-30.48459717 41.8402832 -29.90669434 41.05556641 -29.3112793 40.24707031 C-25.28331697 34.76838437 -21.28920276 29.26597582 -17.3125 23.75 C-8.41651319 11.41517142 -8.41651319 11.41517142 -4.75 6.375 C-4.28376221 5.72885742 -3.81752441 5.08271484 -3.3371582 4.41699219 C-2.24956245 2.92625545 -1.12843136 1.46006959 0 0 Z M-30 136 C-29 138 -29 138 -29 138 Z "
     fill="#FAFAFA"
     transform="translate(191,141)"
     id="path9"
     style="fill:#666666;fill-opacity:1" />
  <path
     d="M0 0 C3.91871918 3.59059676 6.81927628 7.74916265 9.875 12.0625 C11.03955133 13.69068615 12.20494346 15.31827119 13.37109375 16.9453125 C13.97034668 17.78223633 14.56959961 18.61916016 15.18701172 19.48144531 C18.07252966 23.48992943 21.00287681 27.46489125 23.9375 31.4375 C24.51226074 32.21593262 25.08702148 32.99436523 25.67919922 33.79638672 C26.85215942 35.3846003 28.02533777 36.9726528 29.19873047 38.56054688 C31.06317165 41.08555314 32.9246012 43.61275406 34.78515625 46.140625 C35.71823608 47.40821655 35.71823608 47.40821655 36.67016602 48.70141602 C37.84922442 50.30333086 39.02811139 51.90537191 40.20678711 53.50756836 C41.01708374 54.60790405 41.01708374 54.60790405 41.84375 55.73046875 C42.30974609 56.36364014 42.77574219 56.99681152 43.25585938 57.64916992 C44.87933217 59.90789137 44.87933217 59.90789137 46.35284424 61.52833557 C51.62190524 67.80383635 53.72285161 75.06593382 56.109375 82.75390625 C56.56550429 84.1834438 57.02298766 85.61254993 57.48175049 87.04124451 C58.6784418 90.78081482 59.85625711 94.52606755 61.0302124 98.27282715 C62.2256793 102.0756547 63.44008441 105.87242173 64.65234375 109.66992188 C66.42442118 115.23215908 68.19057747 120.79620568 69.94042969 126.36547852 C70.46621613 128.03804466 70.46621613 128.03804466 71.00262451 129.74440002 C71.33175842 130.81874802 71.66089233 131.89309601 72 133 C72.37430145 134.21504715 72.74860291 135.4300943 73.13424683 136.68196106 C75.29056067 144.94613324 71.66452129 151.94439572 68.4140625 159.4296875 C67.95647552 160.50123077 67.49888855 161.57277405 67.0274353 162.67678833 C66.06235316 164.92957794 65.09217051 167.1801886 64.1171875 169.42871094 C62.62340355 172.87868709 61.15054531 176.33707205 59.6796875 179.796875 C58.73821369 181.98751014 57.79554681 184.177633 56.8515625 186.3671875 C56.19046982 187.92178177 56.19046982 187.92178177 55.51602173 189.50778198 C55.09904022 190.46282623 54.68205872 191.41787048 54.25244141 192.40185547 C53.8890567 193.24376434 53.525672 194.08567322 53.15127563 194.95309448 C52 197 52 197 49 199 C46.93457031 199.50244141 46.93457031 199.50244141 44.578125 199.8515625 C43.71703125 199.98046875 42.8559375 200.109375 41.96875 200.2421875 C41.0715625 200.36851562 40.174375 200.49484375 39.25 200.625 C37.92742187 200.82609375 37.92742187 200.82609375 36.578125 201.03125 C31.6626 201.7480974 26.97963722 202.05715837 22 202 C21.64083496 200.85176758 21.28166992 199.70353516 20.91162109 198.52050781 C20.40742414 196.9146515 19.90301188 195.30886277 19.3984375 193.703125 C19.12897308 192.84309875 18.85950867 191.98307251 18.58187866 191.09698486 C17.23093986 186.80863892 15.85482071 182.53455285 14.37988281 178.28710938 C3.5445999 147.05047623 2.52437429 117.86892146 4 85 C6.80668899 87.65752751 8.17710919 90.14170552 9.78515625 93.6796875 C10.31689453 94.83855469 10.84863281 95.99742187 11.39648438 97.19140625 C11.95215713 98.41911962 12.50749669 99.64698386 13.0625 100.875 C14.13539497 103.22716677 15.20965511 105.57871123 16.28515625 107.9296875 C16.56146881 108.53520447 16.83778137 109.14072144 17.12246704 109.7645874 C21.30370197 118.89504213 25.66421769 127.94223179 30 137 C27.86819784 127.51738859 25.7359013 118.03488851 23.60311317 108.55249882 C22.57415196 103.97757308 21.54541564 99.40259698 20.51715088 94.82751465 C14.57738619 68.39214419 14.57738619 68.39214419 8.5765686 41.97058678 C8.14089615 40.06274267 7.70581842 38.15476278 7.27075195 36.2467804 C5.97035567 30.54396493 4.66616119 24.842079 3.35449219 19.1418457 C2.9001938 17.15190039 2.44607958 15.16191302 1.9921875 13.171875 C1.68415695 11.84475746 1.68415695 11.84475746 1.36990356 10.49082947 C1.09568069 9.2825222 1.09568069 9.2825222 0.81591797 8.04980469 C0.65703094 7.35844421 0.49814392 6.66708374 0.33444214 5.95477295 C0 4 0 4 0 0 Z "
     fill="#FAFAFA"
     transform="translate(1112,130)"
     id="path10"
     style="fill:#666666;fill-opacity:1" />
  <path
     d="M0 0 C0.33 0 0.66 0 1 0 C0.30944855 15.31242716 -0.68550043 30.59422027 -1.77734375 45.8828125 C-1.95048673 48.31891876 -2.12362818 50.75502512 -2.29676819 53.19113159 C-2.6573706 58.2554706 -3.01992954 63.31966556 -3.38354492 68.38378906 C-3.8477174 74.85449042 -4.30392167 81.32572827 -4.75833797 87.79712105 C-5.1118053 92.81099232 -5.47098844 97.82444245 -5.83172798 102.83779526 C-6.00246889 105.2241306 -6.17110601 107.61061749 -6.33753777 109.99725723 C-6.57046691 113.3295281 -6.81149418 116.66112248 -7.05444336 119.99267578 C-7.12048767 120.9632341 -7.18653198 121.93379242 -7.25457764 122.9337616 C-7.8614301 131.05975962 -9.23598889 138.8835711 -11.58813477 146.69335938 C-11.88506729 147.68718628 -12.18199982 148.68101318 -12.4879303 149.70495605 C-12.80257736 150.74075806 -13.11722443 151.77656006 -13.44140625 152.84375 C-13.76914536 153.93465942 -14.09688446 155.02556885 -14.43455505 156.14953613 C-15.12241726 158.43595539 -15.81247643 160.72171475 -16.50463867 163.00683594 C-17.56737006 166.51608142 -18.62310238 170.02737537 -19.67773438 173.5390625 C-20.34855413 175.76574681 -21.01976406 177.99231362 -21.69140625 180.21875 C-22.16641319 181.79674377 -22.16641319 181.79674377 -22.65101624 183.40661621 C-22.9447966 184.37522583 -23.23857697 185.34383545 -23.54125977 186.34179688 C-23.79948013 187.19543823 -24.0577005 188.04907959 -24.32374573 188.92858887 C-25 191 -25 191 -26 193 C-30.35607386 191.66318093 -34.25532085 190.00555878 -38.25 187.8125 C-39.28640625 187.26207031 -40.3228125 186.71164062 -41.390625 186.14453125 C-44.68004626 183.44109971 -45.04364459 180.96677062 -46 177 C-46.21998657 176.14185196 -46.43997314 175.28370392 -46.66662598 174.39955139 C-48.77142254 166.03330081 -50.53428899 157.60230344 -52.125 149.125 C-52.25468925 148.43707367 -52.38437851 147.74914734 -52.51799774 147.04037476 C-59.38914875 109.83915003 -50.30621766 75.75407729 -40 40 C-39.34 40.33 -38.68 40.66 -38 41 C-37.67 57.5 -37.34 74 -37 91 C-34.2805732 85.5611464 -31.8303135 80.30186804 -29.671875 74.65625 C-29.36546585 73.86513321 -29.0590567 73.07401642 -28.74336243 72.25892639 C-28.08473338 70.55784566 -27.42774003 68.85613085 -26.77224731 67.15383911 C-25.01727457 62.59778379 -23.24879133 58.04698094 -21.48046875 53.49609375 C-21.11582016 52.55708725 -20.75117157 51.61808075 -20.37547302 50.65061951 C-16.33509433 40.26237622 -12.20627761 29.90984713 -8.0625 19.5625 C-7.71207642 18.68625977 -7.36165283 17.81001953 -7.00061035 16.90722656 C-6.01329025 14.43898455 -5.02458317 11.97130438 -4.03515625 9.50390625 C-3.59409294 8.40212791 -3.59409294 8.40212791 -3.14411926 7.27809143 C-1.11682255 2.23364509 -1.11682255 2.23364509 0 0 Z "
     fill="#F8F8F8"
     transform="translate(134,80)"
     id="path11"
     style="fill:#4d4d4d;fill-opacity:1" />
  <path
     d="M0 0 C2.73524914 3.26628288 4.14559984 6.53635853 5.65234375 10.5078125 C5.90474823 11.16608536 6.15715271 11.82435822 6.41720581 12.50257874 C6.97030755 13.94599291 7.52070976 15.3904437 8.0687561 16.83578491 C9.58548759 20.83250318 11.12541136 24.82027354 12.6640625 28.80859375 C12.99817642 29.67569473 13.33229034 30.54279572 13.67652893 31.43617249 C17.85299041 42.24954383 22.14762907 53.01589941 26.45046997 63.77947998 C27.35973528 66.05460924 28.26783373 68.33020518 29.17477417 70.60626221 C30.45366871 73.81541409 31.73603178 77.0231563 33.01953125 80.23046875 C33.40744843 81.2048439 33.7953656 82.17921906 34.19503784 83.18312073 C34.55066803 84.06910446 34.90629822 84.9550882 35.27270508 85.86791992 C35.58355545 86.64536057 35.89440582 87.42280121 36.2146759 88.22380066 C36.86643767 89.98669702 36.86643767 89.98669702 38 91 C38.33 74.5 38.66 58 39 41 C39.66 40.67 40.32 40.34 41 40 C60.86188897 116.92540383 60.86188897 116.92540383 52.0703125 147.89355469 C50.87138027 152.24979771 50.16804279 156.63281919 49.53125 161.1015625 C49.37271797 162.20680771 49.37271797 162.20680771 49.21098328 163.3343811 C49.00661792 164.77783034 48.80395806 166.22152222 48.6031189 167.66546631 C48.15485716 170.88073105 47.68116568 174.09007226 47.17578125 177.296875 C47.02020752 178.33166992 46.86463379 179.36646484 46.7043457 180.43261719 C45.93392993 183.24082941 45.2780216 184.24445104 43 186 C40.65928589 187.29977823 38.33997706 188.51681179 35.9375 189.6875 C35.30005859 190.00783203 34.66261719 190.32816406 34.00585938 190.65820312 C29.26734075 193 29.26734075 193 27 193 C24.7029377 185.93722074 22.44229817 178.86341276 20.20263672 171.78222656 C19.19729001 168.62046627 18.17764142 165.46380906 17.15190125 162.30862427 C16.12498623 159.12805615 15.12768442 155.93828575 14.125 152.75 C13.7441626 151.59419434 13.3633252 150.43838867 12.97094727 149.24755859 C10.83456797 142.34998219 9.62146833 135.80605904 9.00390625 128.63330078 C8.88088984 127.27347737 8.88088984 127.27347737 8.75538826 125.88618279 C7.72878822 114.3117613 6.89263032 102.72209326 6.0546875 91.1328125 C5.87831524 88.71335916 5.70180913 86.29391558 5.525177 83.8744812 C5.15896802 78.85083847 4.79444524 73.82707709 4.43115234 68.80322266 C3.96601349 62.37307257 3.49642423 55.94325624 3.02558708 49.51352119 C2.66174796 44.53796444 2.30030374 39.56223592 1.93957901 34.58645248 C1.76729724 32.2141764 1.5942586 29.84195516 1.42043686 27.46979141 C1.17872374 24.16639347 0.94025758 20.86277652 0.70263672 17.55908203 C0.6309729 16.58865967 0.55930908 15.6182373 0.48547363 14.6184082 C0.13742899 9.73005939 -0.07577768 4.9006937 0 0 Z "
     fill="#F9F9F9"
     transform="translate(1169,69)"
     id="path12"
     style="fill:#4d4d4d;fill-opacity:1" />
  <path
     d="M0 0 C4.14754261 1.66395188 7.0818082 4.64940805 10.26904297 7.67700195 C10.88731461 8.2580368 11.50558624 8.83907166 12.14259338 9.43771362 C17.83856779 14.81037493 23.46676158 20.2543882 29.07468987 25.71874714 C32.83676272 29.3833824 36.61745023 33.02251125 40.45410156 36.60913086 C44.17403999 40.08758567 47.83310519 43.62072828 51.45804214 47.19798851 C52.84102041 48.54379575 54.24369398 49.86969389 55.66637802 51.17345619 C66.39475872 61.04564984 66.39475872 61.04564984 67.38656044 67.52559662 C67.4761392 73.01582399 66.5908445 78.28042415 65.47570038 83.64095879 C64.85479035 86.7201078 64.5364353 89.80108508 64.23803711 92.92626953 C64.00380325 94.91209988 63.76694204 96.89762224 63.52734375 98.8828125 C63.39936905 99.95578583 63.27139435 101.02875916 63.13954163 102.13424683 C62.87448789 104.35022935 62.60817705 106.5660619 62.34057617 108.78173828 C61.93045649 112.18342143 61.52657763 115.58581084 61.12304688 118.98828125 C60.8623478 121.16150259 60.60129402 123.33468141 60.33984375 125.5078125 C60.22003647 126.52013947 60.10022919 127.53246643 59.97679138 128.57546997 C59.86319778 129.50849945 59.74960419 130.44152893 59.63256836 131.40283203 C59.53423203 132.22107452 59.43589569 133.03931702 59.33457947 133.88235474 C59 136 59 136 58 139 C55.71508789 140.45800781 55.71508789 140.45800781 52.72265625 141.953125 C51.65208984 142.489375 50.58152344 143.025625 49.47851562 143.578125 C48.35123047 144.12984375 47.22394531 144.6815625 46.0625 145.25 C44.93908203 145.8171875 43.81566406 146.384375 42.65820312 146.96875 C36.44231972 150.04865855 36.44231972 150.04865855 34 151 C33.34 150.67 32.68 150.34 32 150 C31.37985229 148.13150024 31.37985229 148.13150024 30.85498047 145.65478516 C30.65492401 144.7293692 30.45486755 143.80395325 30.24874878 142.85049438 C30.04033356 141.84022186 29.83191833 140.82994934 29.6171875 139.7890625 C29.28849167 138.2322023 29.28849167 138.2322023 28.95315552 136.64389038 C28.49000116 134.43716177 28.03130375 132.22949385 27.57666016 130.02099609 C26.88449437 126.67095221 26.17179356 123.32575423 25.45703125 119.98046875 C25.00915213 117.83359675 24.56249998 115.68646835 24.1171875 113.5390625 C23.90472382 112.54903229 23.69226013 111.55900208 23.47335815 110.53897095 C21.51803989 100.88169683 21.49416675 91.88161372 23.5 82.25 C23.78722612 80.83974564 24.06855806 79.42827697 24.34375 78.015625 C24.46943359 77.41008789 24.59511719 76.80455078 24.72460938 76.18066406 C25.69575346 68.4907182 23.84494918 63.03858245 21.0546875 55.9765625 C20.64719269 54.91698334 20.23969788 53.85740417 19.81985474 52.76571655 C18.5158389 49.38112913 17.19607633 46.00296032 15.875 42.625 C14.16000563 38.20208601 12.45109536 33.77683104 10.7421875 29.3515625 C10.32990906 28.28754211 9.91763062 27.22352173 9.49285889 26.1272583 C6.15215551 17.47756698 3.00489884 8.77150796 0 0 Z "
     fill="#FAFAFA"
     transform="translate(1204,32)"
     id="path13"
     style="fill:#333333;fill-opacity:1" />
  <path
     d="M0 0 C1 2 1 2 0.17115784 4.69902039 C-0.27518509 5.84594864 -0.72152802 6.99287689 -1.18139648 8.17456055 C-1.42508972 8.80734421 -1.66878296 9.44012787 -1.91986084 10.09208679 C-2.45130377 11.46949053 -2.98622804 12.84555484 -3.52416801 14.22043419 C-4.37617645 16.39971939 -5.21793456 18.58270733 -6.05690002 20.76704407 C-8.44471222 26.97818528 -10.85162589 33.18187501 -13.26391602 39.38354492 C-14.73795645 43.17519236 -16.2005227 46.97111066 -17.65651131 50.76972389 C-18.21297774 52.21427022 -18.77393844 53.65709386 -19.33953667 55.09808922 C-20.13344664 57.12093284 -20.91272103 59.14888366 -21.68920898 61.1784668 C-22.1363475 62.32937302 -22.58348602 63.48027924 -23.04417419 64.6660614 C-24.53986882 69.88307273 -24.33641061 74.52984275 -22.94042969 79.73266602 C-18.99330458 96.23394253 -21.34710725 109.63816996 -25.25 125.9375 C-25.802151 128.38517465 -26.35035204 130.83374381 -26.89453125 133.28320312 C-28.21782238 139.19985218 -29.5888208 145.10372982 -31 151 C-36.60968387 149.93249302 -41.47306402 147.92288704 -46.6875 145.625 C-47.64978516 145.24472656 -48.61207031 144.86445313 -49.60351562 144.47265625 C-50.52197266 144.06144531 -51.44042969 143.65023437 -52.38671875 143.2265625 C-53.22420654 142.87158691 -54.06169434 142.51661133 -54.92456055 142.15087891 C-58.44176938 138.50582423 -58.39860688 133.88617589 -59 129 C-59.14498428 127.9352243 -59.28996857 126.87044861 -59.43934631 125.77340698 C-59.90732132 122.25025409 -60.3389523 118.72416729 -60.76171875 115.1953125 C-60.91663284 113.91316864 -61.07154694 112.63102478 -61.2311554 111.31002808 C-61.55541467 108.61940945 -61.8768211 105.92846719 -62.1965332 103.23730469 C-62.60580485 99.79678176 -63.02551625 96.35761685 -63.44769573 92.9186573 C-63.85102944 89.61587158 -64.24315386 86.31177639 -64.63671875 83.0078125 C-64.8647242 81.16245407 -64.8647242 81.16245407 -65.09733582 79.27981567 C-65.23110123 78.13447357 -65.36486664 76.98913147 -65.50268555 75.80908203 C-65.623228 74.80523468 -65.74377045 73.80138733 -65.8679657 72.76712036 C-66.04045467 69.15216769 -66.15356106 66.50425794 -63.86737919 63.5230484 C-62.2709845 61.77671275 -60.61277162 60.1183714 -58.91967773 58.46557617 C-58.28554962 57.83086395 -57.65142151 57.19615173 -56.99807739 56.54220581 C-54.90259233 54.44950438 -52.79330245 52.37132202 -50.68359375 50.29296875 C-49.2268367 48.84367304 -47.77096108 47.39349085 -46.31593323 45.94245911 C-42.48599 42.12778037 -38.64418637 38.32526654 -34.79980469 34.52514648 C-30.87819463 30.64447097 -26.96789885 26.75243193 -23.05664062 22.86132812 C-15.3821363 15.22970916 -7.69505663 7.61089143 0 0 Z "
     fill="#FAFAFA"
     transform="translate(99,42)"
     id="path14"
     style="fill:#333333;fill-opacity:1" />
  <path
     d="M0 0 C2.97556083 1.38976292 5.51113476 3.01044833 8.1328125 4.984375 C8.93066162 5.58338623 9.72851074 6.18239746 10.55053711 6.79956055 C11.40010986 7.44320557 12.24968262 8.08685059 13.125 8.75 C14.00357666 9.41233643 14.88215332 10.07467285 15.78735352 10.75708008 C24.59425103 17.41414438 33.3331541 24.16149937 42 31 C42.88155762 31.53858643 43.76311523 32.07717285 44.67138672 32.63208008 C48.07461649 36.09275586 47.87463511 39.10908672 47.98046875 43.8125 C48.01189972 44.68616211 48.04333069 45.55982422 48.07571411 46.45996094 C48.1539454 49.30761742 48.17859042 52.15131888 48.1875 55 C48.19590912 55.96663574 48.20431824 56.93327148 48.21298218 57.92919922 C48.24071061 75.86893943 44.40961786 88.05448045 34.72509766 103.16015625 C32.04309202 107.57525525 30.00415344 112.24664161 28 117 C27.34 117 26.68 117 26 117 C25.71851608 115.77606033 25.43703217 114.55212067 25.14701843 113.29109192 C22.48438062 101.71352148 19.82169168 90.1359628 17.15895367 78.55841541 C15.79026988 72.6073902 14.42160364 66.65636096 13.05297852 60.70532227 C11.73030054 54.95407341 10.40757513 49.20283547 9.08481789 43.45160484 C8.58209381 41.26576813 8.07938635 39.07992759 7.5766964 36.89408302 C7.09707894 34.80857362 6.61737795 32.72308343 6.13758564 30.63761425 C5.6884439 28.68425193 5.23984006 26.73076582 4.79183483 24.77714252 C3.87614787 20.78708766 2.95647474 16.79852013 2.00332642 12.81723022 C1.72741669 11.65768829 1.45150696 10.49814636 1.16723633 9.3034668 C0.93684158 8.35215378 0.70644684 7.40084076 0.46907043 6.42070007 C0 4 0 4 0 0 Z "
     fill="#F8F8F8"
     transform="translate(1257,0)"
     id="path15"
     style="fill:#1a1a1a;fill-opacity:1" />
  <path
     d="M0 0 C-0.66555847 6.26042363 -1.86783474 12.26490123 -3.30078125 18.39160156 C-3.53340668 19.40071594 -3.7660321 20.40983032 -4.00570679 21.44952393 C-4.77081044 24.76412246 -5.54160177 28.0773698 -6.3125 31.390625 C-6.847102 33.70123544 -7.38135793 36.01192597 -7.9152832 38.32269287 C-9.31856446 44.39149907 -10.72672884 50.45916217 -12.13586426 56.52661133 C-13.57025693 62.70712345 -14.99966928 68.88878709 -16.4296875 75.0703125 C-18.51712076 84.08942646 -20.6058692 93.10823377 -22.69921875 102.12597656 C-22.91847015 103.07150391 -23.13772156 104.01703125 -23.36361694 104.99121094 C-23.56548615 105.86022034 -23.76735535 106.72922974 -23.9753418 107.62457275 C-24.15010544 108.3774268 -24.32486908 109.13028084 -24.50492859 109.90594864 C-24.98625111 111.94184499 -25.48783526 113.9716647 -26 116 C-26.66 116 -27.32 116 -28 116 C-40.25810993 96.27961122 -48.95382372 78.35129678 -48.9375 54.75 C-48.96384521 53.37235977 -48.96384521 53.37235977 -48.99072266 51.96688843 C-49.1498151 36.93484295 -49.1498151 36.93484295 -44.52148438 31.79663086 C-41.61401171 29.12351322 -38.35829725 27.06984862 -35 25 C-33.37769827 23.79634168 -31.76465669 22.58003384 -30.1640625 21.34765625 C-28.65358551 20.24909794 -27.14055687 19.15403951 -25.625 18.0625 C-19.01763491 13.26015445 -12.5209164 8.35965928 -6.18798828 3.19946289 C-2.21008057 0 -2.21008057 0 0 0 Z "
     fill="#F8F8F8"
     transform="translate(47,11)"
     id="path16"
     style="fill:#1a1a1a;fill-opacity:1" />
  <path
     d="M0 0 C0.495 0.99 0.495 0.99 1 2 C0.0625 4.625 0.0625 4.625 -1 7 C-1.99 7 -2.98 7 -4 7 C-5.78978403 8.35204278 -5.78978403 8.35204278 -7.56591797 10.2253418 C-8.27029999 10.92995041 -8.97468201 11.63455902 -9.70040894 12.36051941 C-10.45669586 13.13229019 -11.21298279 13.90406097 -11.9921875 14.69921875 C-12.77514191 15.486418 -13.55809631 16.27361725 -14.36477661 17.08467102 C-16.87529055 19.61201339 -19.37521547 22.14954899 -21.875 24.6875 C-23.55269549 26.38024136 -25.23107281 28.07230725 -26.91015625 29.76367188 C-30.00279513 32.88083231 -33.09144903 36.00182435 -36.17529297 39.12768555 C-40.61432651 43.62580421 -45.08673957 48.08930928 -49.57421875 52.5390625 C-51.27870937 54.23431111 -52.98313473 55.92962535 -54.6875 57.625 C-55.55439453 58.48351562 -56.42128906 59.34203125 -57.31445312 60.2265625 C-58.14267578 61.0515625 -58.97089844 61.8765625 -59.82421875 62.7265625 C-60.57791748 63.47502441 -61.33161621 64.22348633 -62.1081543 64.99462891 C-64.15748846 67.05479504 -64.15748846 67.05479504 -66 70 C-65.68895529 64.57758446 -62.59476123 62.05318612 -58.91967773 58.46557617 C-58.28554962 57.83086395 -57.65142151 57.19615173 -56.99807739 56.54220581 C-54.90259233 54.44950438 -52.79330245 52.37132202 -50.68359375 50.29296875 C-49.2268367 48.84367304 -47.77096108 47.39349085 -46.31593323 45.94245911 C-42.48599 42.12778037 -38.64418637 38.32526654 -34.79980469 34.52514648 C-30.87819463 30.64447097 -26.96789885 26.75243193 -23.05664062 22.86132812 C-15.3821363 15.22970916 -7.69505663 7.61089143 0 0 Z "
     fill="#E0E0E0"
     transform="translate(99,42)"
     id="path17"
     style="fill:#262626;fill-opacity:1" />
  <path
     d="M0 0 C0.33 0 0.66 0 1 0 C1 18.48 1 36.96 1 56 C0.67 56 0.34 56 0 56 C-0.33 39.83 -0.66 23.66 -1 7 C-1.99 7.495 -1.99 7.495 -3 8 C-1.125 2.25 -1.125 2.25 0 0 Z "
     fill="#DADADA"
     transform="translate(187,225)"
     id="path18"
     style="fill:#737373;fill-opacity:1" />
  <path
     d="M0 0 C0.33 0 0.66 0 1 0 C0.67 6.6 0.34 13.2 0 20 C-0.33 20 -0.66 20 -1 20 C-1.33 16.7 -1.66 13.4 -2 10 C-2.99 10.495 -2.99 10.495 -4 11 C-3.52269162 9.5410574 -3.04308958 8.08286504 -2.5625 6.625 C-2.29566406 5.81289062 -2.02882812 5.00078125 -1.75390625 4.1640625 C-1 2 -1 2 0 0 Z "
     fill="#BEBEBE"
     transform="translate(134,80)"
     id="path19"
     style="fill:#595959;fill-opacity:1" />
  <path
     d="M0 0 C1.23102992 3.69308976 0.87175152 6.88050712 0.5625 10.6875 C0.51029297 11.38939453 0.45808594 12.09128906 0.40429688 12.81445312 C0.27492135 14.54338054 0.13817469 16.27175355 0 18 C-0.33 18 -0.66 18 -1 18 C-1.33 14.7 -1.66 11.4 -2 8 C-2.99 8.495 -2.99 8.495 -4 9 C-2.94124926 5.59687262 -1.99097846 2.98646769 0 0 Z "
     fill="#C1C1C1"
     transform="translate(484,154)"
     id="path20" />
  <path
     d="M0 0 C1.76462683 3.08809695 2 4.23312136 2 8 C1.34 8 0.68 8 0 8 C0 10.97 0 13.94 0 17 C-0.33 17 -0.66 17 -1 17 C-1.02684679 14.35409986 -1.04676357 11.70846904 -1.0625 9.0625 C-1.07087891 8.30775391 -1.07925781 7.55300781 -1.08789062 6.77539062 C-1.09652441 4.85005687 -1.05224333 2.92464419 -1 1 C-0.67 0.67 -0.34 0.34 0 0 Z "
     fill="#999999"
     transform="translate(1209,109)"
     id="path21"
     style="fill:#595959;fill-opacity:1" />
  <path
     d="M0 0 C2.35333796 4.70667591 2.17102038 6.8693886 2 12 C1.01 11.34 0.02 10.68 -1 10 C-0.67 6.7 -0.34 3.4 0 0 Z "
     fill="#ADADAD"
     transform="translate(227,206)"
     id="path22" />
  <path
     d="M0 0 C0.33 0 0.66 0 1 0 C0.67 2.97 0.34 5.94 0 9 C-0.99 8.01 -1.98 7.02 -3 6 C-1.125 1.125 -1.125 1.125 0 0 Z "
     fill="#B3B3B3"
     transform="translate(191,141)"
     id="path23"
     style="fill:#737373;fill-opacity:1" />
</svg>
