<?xml version="1.0" encoding="UTF-8"?>
<svg version="1.1" xmlns="http://www.w3.org/2000/svg" width="905" height="886">
<path d="M0 0 C1.00054413 -0.00529724 2.00108826 -0.01059448 3.0319519 -0.01605225 C20.13098698 -0.01093242 33.48561579 2.50682176 49.22607422 9.38378906 C52.84478945 10.90488672 56.50908657 12.22727274 60.22265625 13.4921875 C60.85593338 13.70906219 61.48921051 13.92593689 62.14167786 14.14938354 C64.01068377 14.78836223 65.88033658 15.42544774 67.75 16.0625 C79.98662968 20.24612682 90.38559031 25.38991973 100.4375 33.5625 C105.25545254 37.41040852 110.06267428 41.18503692 115.16455078 44.64990234 C125.83096687 51.89989855 134.78294382 61.16404453 143.08203125 71 C144.13287643 72.23441054 145.21546496 73.44232929 146.32421875 74.625 C151.70080296 80.39609249 156.29000565 86.67258833 160.92797852 93.03637695 C165.41512707 99.1904678 169.99273232 105.2670266 174.625 111.3125 C179.87254929 118.17932577 185.09652166 125.06219905 190.25 132 C190.80558594 132.74121094 191.36117187 133.48242188 191.93359375 134.24609375 C198.25629723 142.79943472 203.20008497 151.45607658 206.9453125 161.41796875 C207.33008759 162.41790359 207.71486267 163.41783844 208.11129761 164.44807434 C209.33300899 167.628758 210.54184856 170.81414451 211.75 174 C212.93180844 177.08857335 214.11625335 180.17612501 215.30117798 183.26350403 C216.1157769 185.39308306 216.9258727 187.5243893 217.73178101 189.65727234 C219.93597876 195.47898165 222.20847011 201.25993939 224.59619141 207.0090332 C232.55875806 226.33958292 237.72833802 245.80263507 242.21295166 266.19824219 C243.12119133 270.30230052 244.05844231 274.39973177 244.9921875 278.49804688 C246.645602 285.7799502 248.28813507 293.06392783 249.87374878 300.3609314 C250.31599887 302.39281699 250.7673727 304.42281915 251.23977661 306.44790649 C252.96874401 314.2007638 253.38551588 322.07930046 253.9140625 329.984375 C254.02295442 331.55408118 254.13220456 333.12376255 254.24179077 334.69342041 C254.46953991 337.97778966 254.69250298 341.26243987 254.91210938 344.54736328 C255.18941668 348.6888416 255.47920033 352.82933053 255.7728672 356.96967697 C256.00141722 360.21451547 256.22265173 363.45982484 256.44196701 366.70529938 C256.54574699 368.22795312 256.65169052 369.75046149 256.76015091 371.272789 C258.17855566 391.31674804 257.86042953 410.59169758 254.88671875 430.48046875 C254.60128957 432.4627504 254.3170391 434.44520208 254.03388977 436.42781067 C253.44397358 440.53576253 252.84398937 444.64205925 252.2355957 448.74731445 C251.4602796 453.98074935 250.70495773 459.21682587 249.95636272 464.45414257 C249.37269963 468.5292549 248.78160523 472.60326056 248.18799782 476.6769352 C247.90699543 478.60741921 247.62753876 480.53812894 247.34973717 482.46907616 C245.11231243 497.9506814 241.36604186 511.97761679 235.92578125 526.63671875 C235.36616059 528.15203008 234.80668996 529.66739682 234.24736023 531.18281555 C233.07816235 534.34667828 231.90514608 537.50909442 230.72973633 540.6706543 C229.24245395 544.67286773 227.76783921 548.67961553 226.2965517 552.68773174 C225.14540132 555.817551 223.98577365 558.94418211 222.82393456 562.07004738 C222.27774896 563.54338079 221.73439422 565.01776755 221.19423866 566.49332237 C215.69411822 581.49660277 208.65190943 595.41098392 200.5625 609.1875 C199.25376845 611.43611772 197.94517891 613.6848181 196.63671875 615.93359375 C195.97462402 617.06780762 195.3125293 618.20202148 194.63037109 619.37060547 C191.99910219 623.88675217 189.38841651 628.41459742 186.77978516 632.94384766 C184.90217648 636.20282955 183.0195138 639.45885622 181.13671875 642.71484375 C178.91001474 646.57054798 176.70351551 650.43635662 174.51953125 654.31640625 C167.22912372 667.22316425 158.79402795 677.77751115 148.6640625 688.55859375 C145.82388686 691.58632815 143.07540009 694.68139121 140.36328125 697.82421875 C138.15243511 700.35302928 135.88903557 702.83122564 133.625 705.3125 C130.76028185 708.45333556 127.91314098 711.60350756 125.125 714.8125 C122.33685902 718.02149244 119.48971815 721.17166444 116.625 724.3125 C113.16924587 728.10184126 109.7597711 731.92333698 106.39453125 735.79296875 C102.08630252 740.70986556 97.67813844 745.53889032 93.296875 750.390625 C92.53890625 751.23109375 91.7809375 752.0715625 91 752.9375 C90.25492188 753.7625 89.50984375 754.5875 88.7421875 755.4375 C86.83480642 757.5771452 84.97827569 759.75114712 83.125 761.9375 C76.51922126 769.46116599 68.76698992 775.26851973 60.61328125 780.9921875 C56.17179955 784.11540082 51.80373607 787.33528204 47.4375 790.5625 C46.63521973 791.15498535 45.83293945 791.7474707 45.00634766 792.35791016 C43.36419975 793.57099019 41.72227398 794.78437099 40.08056641 795.99804688 C37.67357264 797.77660898 35.26492126 799.55289553 32.85546875 801.328125 C32.07510254 801.90344971 31.29473633 802.47877441 30.49072266 803.0715332 C28.90757203 804.23659482 27.32259362 805.39917664 25.73583984 806.55932617 C21.81528366 809.43100732 17.93619459 812.33695916 14.12109375 815.34765625 C1.52780605 825.17262119 -11.9266429 832.08704016 -26.375 838.8125 C-27.46393555 839.32071289 -28.55287109 839.82892578 -29.67480469 840.35253906 C-34.14968447 842.43638353 -38.62645961 844.51529832 -43.11645508 846.56640625 C-50.05762733 849.7499837 -56.91665192 853.05956322 -63.73828125 856.4921875 C-65.37249187 857.30864611 -67.00685099 858.12480757 -68.64135742 858.94067383 C-71.03572774 860.13605517 -73.42604317 861.33693645 -75.80557251 862.56161499 C-86.02504221 867.81959144 -95.56723136 871.24528474 -106.86358643 873.32809448 C-109.56125789 873.84842572 -112.23612948 874.43980931 -114.91552734 875.04711914 C-149.46268653 882.8464183 -182.07003659 885.0468103 -217.25900269 884.0743103 C-224.95671511 883.86245784 -232.62177891 883.81998166 -240.3203125 883.97265625 C-271.11794981 884.42744503 -300.29073868 878.36815216 -330.18585205 871.53573608 C-333.14024338 870.86573819 -336.09879617 870.22010068 -339.06005859 869.58129883 C-350.84800026 866.98477906 -362.01935959 863.35358664 -373.28710938 859.03881836 C-376.00181775 857.99930395 -378.72271594 856.97763797 -381.4453125 855.95898438 C-398.33756626 849.60613472 -414.91796626 843.06329993 -430.625 834.125 C-431.8649267 833.42876765 -433.1053345 832.7333915 -434.34619141 832.03881836 C-436.83795983 830.64170908 -439.32629755 829.2387918 -441.81152344 827.83007812 C-445.14127554 825.94273097 -448.47977715 824.07133108 -451.8203125 822.203125 C-457.35548056 819.10221309 -462.86925013 815.96528022 -468.375 812.8125 C-469.09316895 812.40483398 -469.81133789 811.99716797 -470.55126953 811.57714844 C-479.27888831 806.60746001 -487.28906844 801.03805826 -495.2578125 794.9296875 C-499.46788589 791.71307027 -503.78325709 788.66043786 -508.125 785.625 C-525.05846998 773.74065798 -540.35951195 761.10295396 -554.86499023 746.33691406 C-559.24497231 741.88638692 -563.66392782 737.59526146 -568.40258789 733.52929688 C-580.10506865 723.343402 -590.07214627 712.59296649 -597.94091797 699.22216797 C-600.13322946 695.53845765 -602.42746475 691.92025389 -604.71386719 688.29443359 C-605.99698524 686.2504272 -607.26965878 684.19983005 -608.53222656 682.14306641 C-611.66890073 677.04020202 -614.87077766 672.05781491 -618.38671875 667.20703125 C-629.55791679 651.41250843 -633.20617418 635.96397681 -636.54736328 617.27441406 C-637.31250363 613.04804412 -638.22402942 608.86559142 -639.18359375 604.6796875 C-642.70295639 589.07586167 -644.29356018 574.76005674 -643.375 558.8125 C-643.28374037 557.08644895 -643.19295784 555.36037264 -643.10253906 553.63427734 C-642.78636073 547.71255843 -642.43021599 541.79371718 -642.0625 535.875 C-642.00409943 534.90085144 -641.94569885 533.92670288 -641.88552856 532.92303467 C-641.7119774 530.10515326 -641.52082434 527.28901317 -641.32421875 524.47265625 C-641.27403595 523.63284714 -641.22385315 522.79303802 -641.17214966 521.92778015 C-640.51986891 513.16022378 -637.52517749 505.68254406 -633.71484375 497.83984375 C-633.19078697 496.75057335 -633.19078697 496.75057335 -632.65614319 495.63929749 C-631.91853449 494.11110639 -631.17805388 492.5842984 -630.43481445 491.05883789 C-629.32925374 488.78446599 -628.23937268 486.50304961 -627.15039062 484.22070312 C-622.49289701 474.56210031 -617.27677564 465.45901327 -611.44229126 456.46548462 C-610.06813695 454.33724088 -608.73955226 452.18224488 -607.4140625 450.0234375 C-601.8552125 441.12972275 -595.73243643 433.18584236 -588.74902344 425.37207031 C-586.72348048 423.07299988 -584.79990185 420.69604272 -582.875 418.3125 C-578.93976952 413.46475231 -574.89362951 408.72226247 -570.80761719 404.00170898 C-567.81180053 400.53014754 -564.9427994 396.99404389 -562.125 393.375 C-555.96947954 385.78431266 -548.60115671 379.35857038 -541.375 372.8125 C-539.99054688 371.55759766 -539.99054688 371.55759766 -538.578125 370.27734375 C-537.00681336 368.86264978 -535.43267187 367.45109147 -533.85546875 366.04296875 C-530.87946744 363.36691088 -527.9380045 360.65513264 -525 357.9375 C-519.30099201 352.66595936 -513.58463732 347.41385603 -507.85888672 342.17138672 C-505.36335593 339.88607504 -502.86925473 337.5992042 -500.375 335.3125 C-499.37500675 334.39582596 -498.37500676 333.4791593 -497.375 332.5625 C-496.88 332.10875 -496.385 331.655 -495.875 331.1875 C-490.375 326.14583333 -484.875 321.10416667 -479.375 316.0625 C-478.6327417 315.38199585 -478.6327417 315.38199585 -477.87548828 314.68774414 C-476.87413079 313.76996888 -475.87250254 312.85248894 -474.87060547 311.93530273 C-472.38903984 309.66288497 -469.91340282 307.38475328 -467.4453125 305.09765625 C-461.55831072 299.64890253 -455.56388537 294.3551521 -449.45239258 289.15917969 C-445.97846699 286.20203244 -442.56006644 283.19825785 -439.1875 280.125 C-435.89557795 277.1333184 -432.52908693 274.28725577 -429.0625 271.5 C-424.24914563 267.60994069 -419.7273855 263.48378166 -415.21386719 259.25683594 C-411.00106859 255.33371407 -406.61104648 251.69353586 -402.12109375 248.08984375 C-399.11179731 245.59422522 -396.23579924 242.97465811 -393.375 240.3125 C-388.84168796 236.09895614 -384.16549069 232.12956147 -379.34375 228.25 C-375.85219064 225.383246 -372.45957102 222.41492773 -369.0625 219.4375 C-363.69838504 214.74695801 -358.21703934 210.27009785 -352.58154297 205.91113281 C-347.72576939 202.13670424 -343.05811854 198.17035671 -338.40722656 194.14770508 C-334.12905639 190.44894535 -329.78832327 186.83941509 -325.3984375 183.2734375 C-322.37729103 180.8143648 -319.37011897 178.33914711 -316.3659668 175.859375 C-314.16178149 174.04128648 -311.95408006 172.22753201 -309.74609375 170.4140625 C-306.99566856 168.15355491 -304.25904418 165.87832542 -301.53515625 163.5859375 C-291.22175667 154.96895256 -280.30729462 147.35100008 -269.22070312 139.76611328 C-264.91747275 136.81188803 -260.64622087 133.81272831 -256.375 130.8125 C-248.24421619 125.11297998 -240.0947562 119.44061283 -231.94140625 113.7734375 C-225.74445898 109.46468758 -219.55600437 105.14408459 -213.375 100.8125 C-205.31740244 95.16647622 -197.24885211 89.53638954 -189.16552734 83.92724609 C-184.23066883 80.50189319 -179.30671873 77.06263951 -174.40234375 73.59375 C-163.32541442 65.7773721 -152.20759465 58.42421562 -140.375 51.8125 C-138.28246265 50.62776211 -136.19002233 49.44285284 -134.09765625 48.2578125 C-120.06562608 40.34883176 -105.91814266 32.74647121 -91.375 25.8125 C-90.29057617 25.28914063 -89.20615234 24.76578125 -88.08886719 24.2265625 C-70.96137288 16.0169281 -53.90193923 9.62176818 -35.54443359 4.69116211 C-33.62077876 4.15786726 -31.70708255 3.58341771 -29.81884766 2.93579102 C-20.18844363 -0.2341299 -10.03711928 0.04103137 0 0 Z " fill="#FE0000" transform="translate(645.375,0.1875)"/>
</svg>
