<?xml version="1.0" encoding="UTF-8" standalone="no"?>
<svg
   version="1.1"
   width="1476"
   height="602"
   id="svg29"
   sodipodi:docname="upper-teeth.svg"
   inkscape:version="1.3.2 (091e20e, 2023-11-25, custom)"
   xmlns:inkscape="http://www.inkscape.org/namespaces/inkscape"
   xmlns:sodipodi="http://sodipodi.sourceforge.net/DTD/sodipodi-0.dtd"
   xmlns="http://www.w3.org/2000/svg"
   xmlns:svg="http://www.w3.org/2000/svg">
  <defs
     id="defs29">
    <filter
       inkscape:collect="always"
       style="color-interpolation-filters:sRGB"
       id="filter1">
      <feGaussianBlur
         inkscape:collect="always"
         stdDeviation="2.5458588"
         id="feGaussianBlur1" />
    </filter>
    <filter
       inkscape:collect="always"
       style="color-interpolation-filters:sRGB"
       id="filter2">
      <feGaussianBlur
         inkscape:collect="always"
         stdDeviation="2.5458588"
         id="feGaussianBlur2" />
    </filter>
    <filter
       inkscape:collect="always"
       style="color-interpolation-filters:sRGB"
       id="filter3">
      <feGaussianBlur
         inkscape:collect="always"
         stdDeviation="2.5458588"
         id="feGaussianBlur3" />
    </filter>
    <filter
       inkscape:collect="always"
       style="color-interpolation-filters:sRGB"
       id="filter4">
      <feGaussianBlur
         inkscape:collect="always"
         stdDeviation="2.5458588"
         id="feGaussianBlur4" />
    </filter>
    <filter
       inkscape:collect="always"
       style="color-interpolation-filters:sRGB"
       id="filter5">
      <feGaussianBlur
         inkscape:collect="always"
         stdDeviation="2.5458588"
         id="feGaussianBlur5" />
    </filter>
    <filter
       inkscape:collect="always"
       style="color-interpolation-filters:sRGB"
       id="filter6"
       x="-6.1100613"
       y="-1.5275153"
       width="13.220123"
       height="4.0550306">
      <feGaussianBlur
         inkscape:collect="always"
         stdDeviation="2.5458588"
         id="feGaussianBlur6" />
    </filter>
    <filter
       inkscape:collect="always"
       style="color-interpolation-filters:sRGB"
       id="filter7"
       x="-6.1100613"
       y="-1.5275153"
       width="13.220123"
       height="4.0550306">
      <feGaussianBlur
         inkscape:collect="always"
         stdDeviation="2.5458588"
         id="feGaussianBlur7" />
    </filter>
    <filter
       inkscape:collect="always"
       style="color-interpolation-filters:sRGB"
       id="filter8"
       x="-2.1708084"
       y="-0.55546011"
       width="5.3416169"
       height="2.1109202">
      <feGaussianBlur
         inkscape:collect="always"
         stdDeviation="2.5458588"
         id="feGaussianBlur8" />
    </filter>
    <filter
       inkscape:collect="always"
       style="color-interpolation-filters:sRGB"
       id="filter9"
       x="-1.9881483"
       y="-0.6788957"
       width="4.9762966"
       height="2.3577914">
      <feGaussianBlur
         inkscape:collect="always"
         stdDeviation="2.5458588"
         id="feGaussianBlur9" />
    </filter>
    <filter
       inkscape:collect="always"
       style="color-interpolation-filters:sRGB"
       id="filter10"
       x="-1.5275153"
       y="-0.50917177"
       width="4.0550306"
       height="2.0183435">
      <feGaussianBlur
         inkscape:collect="always"
         stdDeviation="2.5458588"
         id="feGaussianBlur10" />
    </filter>
    <filter
       inkscape:collect="always"
       style="color-interpolation-filters:sRGB"
       id="filter11"
       x="-1.2220123"
       y="-0.30550306"
       width="3.4440245"
       height="1.6110061">
      <feGaussianBlur
         inkscape:collect="always"
         stdDeviation="2.5458588"
         id="feGaussianBlur11" />
    </filter>
    <filter
       inkscape:collect="always"
       style="color-interpolation-filters:sRGB"
       id="filter12"
       x="-1.1370367"
       y="-0.33944785"
       width="3.2740734"
       height="1.6788957">
      <feGaussianBlur
         inkscape:collect="always"
         stdDeviation="2.5458588"
         id="feGaussianBlur12" />
    </filter>
    <filter
       inkscape:collect="always"
       style="color-interpolation-filters:sRGB"
       id="filter13"
       x="-1.2220123"
       y="-0.11109202"
       width="3.4440245"
       height="1.222184">
      <feGaussianBlur
         inkscape:collect="always"
         stdDeviation="2.5458588"
         id="feGaussianBlur13" />
    </filter>
    <filter
       inkscape:collect="always"
       style="color-interpolation-filters:sRGB"
       id="filter14"
       x="-0.19017102"
       y="-0.059320983"
       width="1.380342"
       height="1.118642">
      <feGaussianBlur
         inkscape:collect="always"
         stdDeviation="2.5458588"
         id="feGaussianBlur14" />
    </filter>
    <filter
       inkscape:collect="always"
       style="color-interpolation-filters:sRGB"
       id="filter15"
       x="-0.18446692"
       y="-0.046288343"
       width="1.3689338"
       height="1.0925767">
      <feGaussianBlur
         inkscape:collect="always"
         stdDeviation="2.5458588"
         id="feGaussianBlur15" />
    </filter>
    <filter
       inkscape:collect="always"
       style="color-interpolation-filters:sRGB"
       id="filter16"
       x="-0.099621816"
       y="-0.029517204"
       width="1.1992436"
       height="1.0590344">
      <feGaussianBlur
         inkscape:collect="always"
         stdDeviation="2.5458588"
         id="feGaussianBlur16" />
    </filter>
    <filter
       inkscape:collect="always"
       style="color-interpolation-filters:sRGB"
       id="filter17"
       x="-0.10006572"
       y="-0.028156964"
       width="1.2001314"
       height="1.0563139">
      <feGaussianBlur
         inkscape:collect="always"
         stdDeviation="2.5458588"
         id="feGaussianBlur17" />
    </filter>
    <filter
       inkscape:collect="always"
       style="color-interpolation-filters:sRGB"
       id="filter18"
       x="-0.1065015"
       y="-0.02556511"
       width="1.213003"
       height="1.0511302">
      <feGaussianBlur
         inkscape:collect="always"
         stdDeviation="2.5458588"
         id="feGaussianBlur18" />
    </filter>
    <filter
       inkscape:collect="always"
       style="color-interpolation-filters:sRGB"
       id="filter19"
       x="-0.11032677"
       y="-0.023144171"
       width="1.2206535"
       height="1.0462883">
      <feGaussianBlur
         inkscape:collect="always"
         stdDeviation="2.5458588"
         id="feGaussianBlur19" />
    </filter>
    <filter
       inkscape:collect="always"
       style="color-interpolation-filters:sRGB"
       id="filter20"
       x="-0.10048154"
       y="-0.025914584"
       width="1.2009631"
       height="1.0518292">
      <feGaussianBlur
         inkscape:collect="always"
         stdDeviation="2.5458588"
         id="feGaussianBlur20" />
    </filter>
    <filter
       inkscape:collect="always"
       style="color-interpolation-filters:sRGB"
       id="filter21"
       x="-0.10465767"
       y="-0.026000261"
       width="1.2093153"
       height="1.0520005">
      <feGaussianBlur
         inkscape:collect="always"
         stdDeviation="2.5458588"
         id="feGaussianBlur21" />
    </filter>
    <filter
       inkscape:collect="always"
       style="color-interpolation-filters:sRGB"
       id="filter22"
       x="-0.067770384"
       y="-0.018403799"
       width="1.1355408"
       height="1.0368076">
      <feGaussianBlur
         inkscape:collect="always"
         stdDeviation="2.5458588"
         id="feGaussianBlur22" />
    </filter>
    <filter
       inkscape:collect="always"
       style="color-interpolation-filters:sRGB"
       id="filter23"
       x="-0.057642087"
       y="-0.016036906"
       width="1.1152842"
       height="1.0320738">
      <feGaussianBlur
         inkscape:collect="always"
         stdDeviation="2.5458588"
         id="feGaussianBlur23" />
    </filter>
    <filter
       inkscape:collect="always"
       style="color-interpolation-filters:sRGB"
       id="filter24"
       x="-0.063723587"
       y="-0.018916598"
       width="1.1274472"
       height="1.0378332">
      <feGaussianBlur
         inkscape:collect="always"
         stdDeviation="2.5458588"
         id="feGaussianBlur24" />
    </filter>
    <filter
       inkscape:collect="always"
       style="color-interpolation-filters:sRGB"
       id="filter25"
       x="-0.052275115"
       y="-0.01726006"
       width="1.1045502"
       height="1.0345201">
      <feGaussianBlur
         inkscape:collect="always"
         stdDeviation="2.5458588"
         id="feGaussianBlur25" />
    </filter>
    <filter
       inkscape:collect="always"
       style="color-interpolation-filters:sRGB"
       id="filter26"
       x="-0.048164783"
       y="-0.014758602"
       width="1.0963296"
       height="1.0295172">
      <feGaussianBlur
         inkscape:collect="always"
         stdDeviation="2.5458588"
         id="feGaussianBlur26" />
    </filter>
    <filter
       inkscape:collect="always"
       style="color-interpolation-filters:sRGB"
       id="filter27"
       x="-0.047543965"
       y="-0.016925377"
       width="1.0950879"
       height="1.0338508">
      <feGaussianBlur
         inkscape:collect="always"
         stdDeviation="2.5458588"
         id="feGaussianBlur27" />
    </filter>
    <filter
       inkscape:collect="always"
       style="color-interpolation-filters:sRGB"
       id="filter28"
       x="-0.053614465"
       y="-0.014687647"
       width="1.1072289"
       height="1.0293753">
      <feGaussianBlur
         inkscape:collect="always"
         stdDeviation="2.5458588"
         id="feGaussianBlur28" />
    </filter>
    <filter
       inkscape:collect="always"
       style="color-interpolation-filters:sRGB"
       id="filter29"
       x="-0.042672077"
       y="-0.012863287"
       width="1.0853442"
       height="1.0257266">
      <feGaussianBlur
         inkscape:collect="always"
         stdDeviation="2.5458588"
         id="feGaussianBlur29" />
    </filter>
  </defs>
  <sodipodi:namedview
     id="namedview29"
     pagecolor="#0a0a0a"
     bordercolor="#000000"
     borderopacity="0.25"
     inkscape:showpageshadow="2"
     inkscape:pageopacity="0.0"
     inkscape:pagecheckerboard="0"
     inkscape:deskcolor="#d1d1d1"
     inkscape:zoom="0.57520325"
     inkscape:cx="736.26149"
     inkscape:cy="301.63251"
     inkscape:window-width="1366"
     inkscape:window-height="705"
     inkscape:window-x="-8"
     inkscape:window-y="-8"
     inkscape:window-maximized="1"
     inkscape:current-layer="svg29" />
  <path
     d="M0 0 C0.33 0 0.66 0 1 0 C3.64733576 20.20813671 6.29308164 40.41648133 8.9375 60.625 C9.03471643 61.36790881 9.13193286 62.11081762 9.23209524 62.87623882 C18.8537083 136.40406357 18.8537083 136.40406357 23.5625 173.125 C23.65556805 173.85076485 23.74863609 174.57652969 23.84452438 175.32428741 C24.89901211 183.54918496 25.95128946 191.77436372 27 200 C27.29683257 192.10435508 27.58748048 184.20848932 27.875 176.3125 C27.91946259 175.0914859 27.96392517 173.8704718 28.00973511 172.61245728 C28.57676173 156.93841151 29.09496321 141.26383349 29.54296875 125.5859375 C29.57591915 124.43457211 29.57591915 124.43457211 29.60953522 123.25994682 C29.82579293 115.68652893 30.03789438 108.11300768 30.24326324 100.53928661 C30.64729697 85.68210408 31.08865833 70.83654653 32 56 C34.79563775 58.49384792 36.43253404 61.25215081 38.265625 64.50390625 C38.90056885 65.62361816 39.5355127 66.74333008 40.18969727 67.89697266 C40.52494415 68.4934259 40.86019104 69.08987915 41.20559692 69.70440674 C42.62992079 72.23841553 44.06489886 74.76633761 45.4990387 77.2947998 C46.24053345 78.60249586 46.98144351 79.91052361 47.7217865 81.21887207 C51.30012854 87.54129565 54.92620131 93.83574652 58.5625 100.125 C59.80339067 102.27343447 61.04427608 104.42187197 62.28515625 106.5703125 C62.89762207 107.63024414 63.51008789 108.69017578 64.14111328 109.78222656 C66.01054076 113.01824629 67.87859255 116.25505577 69.74609375 119.4921875 C70.36653564 120.56750732 70.98697754 121.64282715 71.6262207 122.75073242 C72.86648973 124.90144779 74.10592279 127.05264548 75.34448242 129.2043457 C78.27003679 134.28402808 81.20455529 139.35786638 84.17169189 144.4133606 C85.57288951 146.80204342 86.96889285 149.19374216 88.36450195 151.58569336 C89.35187825 153.27298801 90.34675124 154.95588864 91.34179688 156.63867188 C91.93798828 157.66154297 92.53417969 158.68441406 93.1484375 159.73828125 C93.94000244 161.08466675 93.94000244 161.08466675 94.74755859 162.45825195 C96.91859228 166.86422305 97.312492 169.49861885 95.83862305 174.18041992 C95.24242147 175.86833335 94.63241263 177.55140736 94.01171875 179.23046875 C93.68146194 180.15313538 93.35120514 181.075802 93.01094055 182.02642822 C92.29145932 184.0312061 91.56630421 186.03395465 90.83618164 188.03488159 C89.67435601 191.22357438 88.53145173 194.41852254 87.39257812 197.61547852 C83.74781063 207.8145722 80.02947364 217.98131201 76.16230774 228.09831238 C74.49023701 232.48175994 72.84440942 236.87487288 71.19985962 241.26870728 C70.41369723 243.34493821 69.61416329 245.41616635 68.79989624 247.48153687 C68.41306671 248.46304718 68.02623718 249.4445575 67.62768555 250.45581055 C67.28827438 251.30451218 66.94886322 252.15321381 66.59916687 253.02763367 C63.40727036 262.04268376 61.4724919 270.14564153 61.30273438 279.73242188 C61.27183968 280.81249228 61.24094498 281.89256269 61.20911407 283.00536251 C61.12031125 286.33681333 61.05603874 289.66784952 61 293 C60.9814093 294.00084688 60.9628186 295.00169376 60.94366455 296.03286934 C60.82087879 303.01258134 60.76476743 309.99208455 60.71875 316.97265625 C60.70087075 319.20933853 60.68258449 321.44601758 60.66392517 323.68269348 C60.62526053 328.38844471 60.5887718 333.09420496 60.5541687 337.79998779 C60.46364488 350.06855902 60.35831816 362.33700932 60.25390625 374.60546875 C60.24366991 375.82255272 60.23343357 377.03963669 60.22288704 378.29360199 C60.03269368 400.82183664 59.76651098 423.34839123 59.4375 445.875 C59.42633148 446.64346882 59.41516296 447.41193764 59.40365601 448.20369339 C59.27373713 457.13586719 59.13997099 466.0679774 59 475 C56.82145678 472.82145678 56.22819476 471.37247408 55.14672852 468.51757812 C54.78700958 467.57597336 54.42729065 466.63436859 54.05667114 465.66423035 C53.47367752 464.11340508 53.47367752 464.11340508 52.87890625 462.53125 C52.46752411 461.44987259 52.05614197 460.36849518 51.6322937 459.25434875 C50.2706514 455.67145817 48.91663205 452.08573504 47.5625 448.5 C46.61062215 445.99158333 45.65829681 443.48334151 44.70532227 440.9753418 C42.74725214 435.81990729 40.79258977 430.66319415 38.84082031 425.50537109 C35.09933017 415.61797509 31.34643218 405.73491714 27.5921936 395.85235596 C26.81871488 393.81608944 26.04542152 391.7797525 25.27230835 389.74334717 C20.01589553 375.89835696 14.73558173 362.06278346 9.41723633 348.24145508 C7.72470842 343.84224527 6.04174097 339.43955308 4.3659668 335.03393555 C0.89297398 325.92770029 -2.5779955 316.83605127 -6.45001221 307.89038086 C-15.00215356 287.96744774 -21.07112991 269.24931707 -23.890625 247.69921875 C-24.21399737 245.36407841 -24.53979421 243.02927276 -24.86779785 240.69477844 C-25.56415251 235.72263208 -26.24930198 230.74911935 -26.92712402 225.77441406 C-28.01133254 217.86164986 -29.15647172 209.95841314 -30.31738281 202.05664062 C-30.4156529 201.38734339 -30.51392299 200.71804615 -30.61517096 200.02846718 C-31.0150027 197.30555881 -31.41493816 194.58266575 -31.81519866 191.85982037 C-32.92171172 184.32807006 -34.01215653 176.79400623 -35.1015625 169.25976562 C-35.49896554 166.51146623 -35.89640815 163.76317257 -36.29394531 161.01489258 C-36.39266583 160.33237364 -36.49138635 159.6498547 -36.5930984 158.94665337 C-37.41199202 153.2884148 -38.2365526 147.63101035 -39.0619235 141.97371358 C-39.87331635 136.40968843 -40.6798389 130.84497028 -41.48276949 125.27971774 C-41.95567467 122.00285027 -42.43128961 118.72641655 -42.91099548 115.45053673 C-43.43815635 111.84765819 -43.95733433 108.24371353 -44.47460938 104.6394043 C-44.63035431 103.58775589 -44.78609924 102.53610748 -44.94656372 101.45259094 C-47.25820144 85.1579663 -47.25820144 85.1579663 -42.703125 76.89453125 C-42.18606995 75.9379084 -42.18606995 75.9379084 -41.65856934 74.96195984 C-40.53980698 72.90204099 -39.39543374 70.85768717 -38.25 68.8125 C-37.46344298 67.37594385 -36.67862757 65.93843282 -35.89550781 64.5 C-33.96329373 60.95950272 -32.01140305 57.43032596 -30.05371094 53.90386963 C-28.07027176 50.32014522 -26.12320878 46.71670222 -24.17089844 43.1159668 C-22.76158044 40.52132034 -21.34288093 37.9320108 -19.921875 35.34375 C-17.76834795 31.41585884 -15.63727623 27.47644998 -13.515625 23.53125 C-12.92942383 22.44263672 -12.34322266 21.35402344 -11.73925781 20.23242188 C-10.61125833 18.13602755 -9.4854708 16.03844095 -8.36230469 13.93945312 C-5.77581025 9.13805892 -3.21842653 4.41043635 0 0 Z "
     fill="#FCFCFC"
     transform="translate(643,127)"
     id="path1"
     style="fill:#e5e5e5;fill-opacity:1;filter:url(#filter29)" />
  <path
     d="M0 0 C3 1 3 1 4.60302734 3.7902832 C5.19124272 5.03885337 5.76803834 6.29284034 6.3359375 7.55078125 C6.65210022 8.22801743 6.96826294 8.9052536 7.29400635 9.60301208 C8.3324276 11.83442791 9.35506988 14.07257678 10.375 16.3125 C11.80519349 19.43976638 13.23799183 22.56583012 14.671875 25.69140625 C15.03225861 26.48010101 15.39264221 27.26879578 15.76394653 28.08139038 C18.04451591 33.03849726 20.46696787 37.89110168 23.015625 42.71484375 C23.63405481 43.91862747 24.25079356 45.12328167 24.86572266 46.32885742 C25.99160105 48.51827373 27.1548921 50.68909729 28.36474609 52.83325195 C33.22149989 62.51538122 31.85392356 70.82977096 30.48272705 81.1784668 C29.91667791 85.65962357 29.43699442 90.14626429 28.97021484 94.63867188 C28.87954554 95.50970299 28.78887623 96.3807341 28.69545937 97.2781601 C28.50616041 99.09730149 28.3169487 100.91645196 28.12781906 102.73561096 C27.63710847 107.42249837 27.13107346 112.10771921 26.625 116.79296875 C26.47178063 118.21283459 26.47178063 118.21283459 26.31546593 119.66138458 C26.10723601 121.59087197 25.89895135 123.52035345 25.69061279 125.4498291 C25.15960196 130.37135787 24.63068014 135.29311114 24.1015625 140.21484375 C23.06970871 149.8101119 22.03560402 159.40513593 21 169 C21.41546585 167.76847702 21.8309317 166.53695404 22.25898743 165.26811218 C34.90354362 127.79931447 34.90354362 127.79931447 40.6875 112.8125 C41.08437012 111.78334473 41.48124023 110.75418945 41.89013672 109.69384766 C43.72723045 105.00633944 45.64381703 100.45056783 48 96 C48.66 96 49.32 96 50 96 C56.05306932 111.54169694 60.85771437 127.38144175 65.5625 143.375 C66.29827872 145.85693377 67.03460435 148.33870548 67.77148438 150.8203125 C69.53546164 156.76786922 71.2811011 162.72062069 73.02130127 168.6751709 C73.96601974 171.88456247 74.92953598 175.08772956 75.89794922 178.29003906 C76.46216092 180.18547341 77.02614081 182.08097678 77.58984375 183.9765625 C77.85197159 184.82616547 78.11409943 185.67576843 78.38417053 186.55111694 C79.87914323 191.63681664 80.54166927 195.0830627 77.96630859 199.95581055 C77.53141113 200.59301025 77.09651367 201.23020996 76.6484375 201.88671875 C76.13772705 202.64412354 75.6270166 203.40152832 75.10083008 204.18188477 C74.53130615 205.00873779 73.96178223 205.83559082 73.375 206.6875 C72.48107544 208.00609009 72.48107544 208.00609009 71.5690918 209.35131836 C70.19397742 211.37865417 68.81536479 213.40361967 67.43408203 215.42675781 C64.62641687 219.54205661 61.8430029 223.67363414 59.05859375 227.8046875 C54.98653453 233.8421845 50.91393773 239.87931112 46.83203125 245.91015625 C46.16716957 246.89488419 46.16716957 246.89488419 45.48887634 247.89950562 C42.13470094 252.85042931 42.13470094 252.85042931 40.3831892 254.7952919 C38.49358843 257.80718508 38.63085387 259.97423537 38.63923645 263.51727295 C38.63667318 264.16997547 38.6341099 264.822678 38.63146895 265.49515939 C38.626531 267.68029318 38.64302323 269.86473465 38.65942383 272.04980469 C38.6602701 273.61687707 38.65979495 275.18395065 38.65809631 276.75102234 C38.65723495 281.00488613 38.67488356 285.25849657 38.69581819 289.51230145 C38.7145614 293.9579153 38.71633357 298.40353485 38.71989441 302.84918213 C38.7292218 311.26748041 38.75384498 319.68566193 38.78394288 328.10390878 C38.81746528 337.68784142 38.83396746 347.27177961 38.84902918 356.85575628 C38.88039393 376.57056938 38.93316793 396.28527734 39 416 C37.05001411 413.44699605 35.43823431 411.08392656 34.12158203 408.15063477 C33.78285568 407.40251022 33.44412933 406.65438568 33.09513855 405.8835907 C32.73632095 405.07766983 32.37750336 404.27174896 32.0078125 403.44140625 C31.62583206 402.59403397 31.24385162 401.74666168 30.85029602 400.87361145 C29.60380021 398.10534053 28.36436475 395.33396991 27.125 392.5625 C26.25832547 390.63408332 25.39121608 388.70586202 24.52368164 386.77783203 C22.38906687 382.030783 20.2599904 377.2812774 18.13323975 372.53070068 C16.58715644 369.0780561 15.03779685 365.62688638 13.48828125 362.17578125 C11.4466163 357.626161 9.40797384 353.07520176 7.37109375 348.5234375 C3.64991121 340.21215536 -0.08865233 331.90871334 -3.82711792 323.60519409 C-15.41159829 297.87386072 -15.41159829 297.87386072 -20.65722656 286.18920898 C-21.47652966 284.36476435 -22.29684372 282.54077381 -23.1171875 280.71679688 C-23.60445313 279.63076172 -24.09171875 278.54472656 -24.59375 277.42578125 C-25.01333984 276.49161377 -25.43292969 275.55744629 -25.86523438 274.5949707 C-26.23970703 273.73863037 -26.61417969 272.88229004 -27 272 C-27.34176773 271.32602676 -27.68353546 270.65205353 -28.03565979 269.95765686 C-29.42917389 265.68371237 -29.43708265 261.55505563 -29.56420898 257.08251953 C-29.60043838 256.04337465 -29.63666777 255.00422977 -29.67399502 253.93359566 C-29.79546999 250.28934248 -29.89952118 246.64489156 -30 243 C-30.01894648 242.32698695 -30.03789296 241.6539739 -30.05741358 240.96056652 C-30.37259589 229.76344256 -30.64509115 218.5653833 -30.90911031 207.36695242 C-30.99524815 203.72430895 -31.08274414 200.08169857 -31.17022032 196.43908703 C-31.37687377 187.83297149 -31.58137568 179.22680677 -31.78442383 170.62060547 C-31.99229621 161.8113502 -32.20363606 153.002183 -32.41671187 144.19305217 C-32.60124718 136.559212 -32.78370595 128.92532408 -32.96453851 121.29139531 C-33.07182689 116.76270552 -33.17981601 112.23403565 -33.28978157 107.70541 C-33.53792945 97.45968095 -33.77093065 87.21388382 -33.96270156 76.96693039 C-33.99828716 75.09032625 -34.03641472 73.21377083 -34.07467079 71.33721924 C-34.13327016 68.22461812 -34.17429006 65.11248129 -34.20654297 61.99951172 C-34.22403626 61.14612654 -34.24152956 60.29274136 -34.25955296 59.41349602 C-34.29120476 52.4539602 -32.38720763 47.73978769 -28.0625 42.25 C-26.7854339 40.44473468 -25.5094431 38.63870833 -24.234375 36.83203125 C-23.55181641 35.90213379 -22.86925781 34.97223633 -22.16601562 34.01416016 C-18.57787547 29.02101561 -15.27583479 23.84410739 -11.94113159 18.67980957 C-9.54109216 14.97478154 -7.10553749 11.29289601 -4.67895508 7.60522461 C-3.06447858 5.10005103 -1.51808552 2.5645019 0 0 Z "
     fill="#FCFCFC"
     transform="translate(512,109)"
     id="path2"
     style="fill:#cccccc;fill-opacity:1;filter:url(#filter28)" />
  <path
     d="M0 0 C2.97 23.1 5.94 46.2 9 70 C12.96 59.11 16.92 48.22 21 37 C21.66 37 22.32 37 23 37 C24.18371353 39.75776114 25.36729309 42.51557964 26.55078125 45.2734375 C26.92109467 46.13625839 27.29140808 46.99907928 27.67294312 47.88804626 C29.71377934 52.64437114 31.75219318 57.40171455 33.78637695 62.16088867 C34.61013693 64.08775004 35.43394865 66.01458929 36.2578125 67.94140625 C36.86978737 69.37274147 36.86978737 69.37274147 37.49412537 70.83299255 C39.58877357 75.72580617 41.69676623 80.61204193 43.83766174 85.48480225 C44.64537863 87.32421232 45.44721107 89.16620296 46.2487793 91.00830078 C47.18499605 93.15843782 48.13126803 95.3042338 49.08911133 97.44482422 C49.49669678 98.38729004 49.90428223 99.32975586 50.32421875 100.30078125 C50.8514856 101.49441284 50.8514856 101.49441284 51.3894043 102.7121582 C52.78826175 107.95353893 50.01773353 112.51787424 47.82421875 117.1953125 C47.50321701 117.8914566 47.18221527 118.58760071 46.85148621 119.30484009 C46.16114348 120.80075686 45.46844422 122.29558795 44.77362061 123.78942871 C42.92799549 127.7582228 41.09999277 131.73513317 39.26953125 135.7109375 C38.90190674 136.50818237 38.53428223 137.30542725 38.15551758 138.12683105 C34.51230467 146.0361707 30.9615388 153.98464967 27.46875 161.96166992 C25.09644616 167.36150468 22.67237474 172.72623303 20.11816406 178.04214478 C18.78446788 180.82209611 17.47052018 183.61120666 16.15704346 186.40075684 C15.52120621 187.73647536 14.87578954 189.06768484 14.21990967 190.39367676 C13.30236741 192.25018388 12.42026927 194.12030411 11.54296875 195.99609375 C11.02758545 197.06013428 10.51220215 198.1241748 9.98120117 199.22045898 C7.48924464 208.81935897 10.69024514 219.94777845 12.33251953 229.54931641 C12.57118264 230.96646804 12.80938953 232.38369658 13.04718018 233.80099487 C13.55567355 236.82642113 14.06714986 239.85132163 14.58099747 242.87584305 C15.39302915 247.65670154 16.19710221 252.43887814 16.99996948 257.22128296 C18.99291108 269.08519908 20.99589091 280.9474175 23.00146484 292.8092041 C24.565199 302.05835762 26.12605941 311.30797542 27.67796791 320.55912149 C28.47634602 325.31634364 29.28080174 330.07248592 30.08982491 334.82790875 C30.5898774 337.77509327 31.08457813 340.72315717 31.57776642 343.67149734 C31.80810853 345.04172757 32.04069841 346.41158203 32.27565384 347.78102875 C32.59499588 349.64415814 32.90567525 351.50876626 33.21585083 353.3734436 C33.39245806 354.41791971 33.56906528 355.46239582 33.75102425 356.53852272 C34 359 34 359 33 361 C24.59267135 347.72362254 16.24462178 334.41102034 7.92333984 321.08056641 C4.78410777 316.05253513 1.64192849 311.02634659 -1.5 306 C-2.75001464 304.00000915 -4.00001462 302.00000914 -5.25 300 C-6.178125 298.515 -6.178125 298.515 -7.125 297 C-12.75 288 -12.75 288 -14.62573242 284.9987793 C-15.87323247 283.00281172 -17.12079088 281.00688061 -18.3684082 279.01098633 C-21.53214182 273.94959084 -24.69479561 268.88752606 -27.85546875 263.82421875 C-28.81839844 262.28217773 -28.81839844 262.28217773 -29.80078125 260.70898438 C-30.99258175 258.80037633 -32.18403429 256.89155093 -33.375 254.98242188 C-33.93574219 254.08458984 -34.49648438 253.18675781 -35.07421875 252.26171875 C-35.66477051 251.29951416 -36.25532227 250.33730957 -36.86376953 249.34594727 C-38.50611242 246.77356906 -40.19568905 244.294481 -41.96044922 241.80834961 C-50.22847688 229.90336779 -53.50905036 219.39008613 -55.75 205.1875 C-56.12300537 203.02504187 -56.5005496 200.86336289 -56.88208008 198.70239258 C-57.63507514 194.42411146 -58.37582423 190.14409498 -59.10434818 185.86158276 C-60.82851782 175.76825224 -62.73283263 165.7110817 -64.65433121 155.6537075 C-65.77680752 149.77619358 -66.89183178 143.89725956 -68.00847816 138.01863575 C-68.93955996 133.11822466 -69.87257565 128.21820005 -70.80969238 123.31893921 C-71.70174973 118.64958503 -72.58204332 113.97814599 -73.45413399 109.30502319 C-73.78103908 107.56377282 -74.11189888 105.8232597 -74.44694328 104.08355713 C-74.90952355 101.67886351 -75.35811123 99.27194801 -75.8034668 96.86401367 C-75.94098736 96.16660159 -76.07850792 95.46918951 -76.22019577 94.75064373 C-77.37831203 88.33505855 -76.58502966 82.93373222 -74.22167969 76.91357422 C-73.67540924 75.50578201 -73.67540924 75.50578201 -73.11810303 74.06954956 C-72.72334778 73.07464508 -72.32859253 72.0797406 -71.921875 71.0546875 C-71.30919769 69.48438278 -71.30919769 69.48438278 -70.68414307 67.88235474 C-69.37976716 64.54377726 -68.06512678 61.20935518 -66.75 57.875 C-65.45429883 54.5678954 -64.16065556 51.2599916 -62.86730957 47.95196533 C-62.0348815 45.8279207 -61.19923508 43.70513429 -60.36022949 41.5836792 C-58.66451282 37.2927256 -56.97754661 33.0078249 -55.45117188 28.65332031 C-55.03931641 27.49155273 -54.62746094 26.32978516 -54.203125 25.1328125 C-53.88504883 24.1855127 -53.56697266 23.23821289 -53.23925781 22.26220703 C-50.25700935 16.8182523 -42.74586255 15.16065539 -37.24609375 12.98828125 C-36.30822525 12.61519333 -35.37035675 12.24210541 -34.40406799 11.85771179 C-32.42725637 11.07304794 -30.44952793 10.29069039 -28.47094727 9.51049805 C-25.44147889 8.31407138 -22.41696178 7.10569746 -19.39257812 5.89648438 C-17.46903925 5.13468591 -15.54522042 4.37359386 -13.62109375 3.61328125 C-12.26473061 3.06961662 -12.26473061 3.06961662 -10.88096619 2.51496887 C-9.61428856 2.01896431 -9.61428856 2.01896431 -8.32202148 1.51293945 C-7.58209457 1.21998489 -6.84216766 0.92703033 -6.07981873 0.62519836 C-4 0 -4 0 0 0 Z "
     fill="#FDFDFD"
     transform="translate(410,118)"
     id="path3"
     style="fill:#999999;fill-opacity:1;filter:url(#filter27)" />
  <path
     d="M0 0 C3.5768374 1.66981339 5.62757398 3.51911287 8.25 6.5 C8.95640625 7.2940625 9.6628125 8.088125 10.390625 8.90625 C10.77637695 9.3811084 11.16212891 9.8559668 11.55957031 10.34521484 C13.03754312 12.10884592 13.03754312 12.10884592 15.08886719 13.89306641 C19.46146591 18.29735063 21.45651411 21.84543206 21.55197144 28.16113281 C21.42557922 32.57818394 21.09454505 36.97049327 20.75 41.375 C20.62441794 43.39652633 20.50367334 45.41835769 20.38720703 47.44042969 C20.11331131 52.13631189 19.81825139 56.83036404 19.51464844 61.52441406 C18.58083854 76.23031694 17.96331397 90.95546321 17.27776337 105.67453575 C17.01249564 111.36089739 16.73996545 117.04684291 16.4598484 122.73249245 C16.28193503 126.34383765 16.1061827 129.95528662 15.93059921 133.56674576 C15.84792623 135.25674167 15.76433009 136.94669273 15.67972183 138.63659286 C15.56225675 140.9870972 15.44847722 143.33775524 15.33544922 145.68847656 C15.3011871 146.35548269 15.26692497 147.02248882 15.2316246 147.70970726 C14.94476928 153.80596685 14.96915271 159.8981045 15 166 C15.13215345 165.35247332 15.26430691 164.70494663 15.40046501 164.03779793 C18.61369546 148.29625267 21.8353092 132.55645027 25.06631279 116.81854439 C26.62858595 109.20783176 28.18799562 101.59655318 29.74072266 93.98388672 C31.09377977 87.35019315 32.45215076 80.71761415 33.81696618 74.08632934 C34.5397171 70.57372209 35.25975982 67.06060765 35.97344589 63.54614639 C36.76944501 59.62685483 37.57729594 55.71009919 38.38623047 51.79345703 C38.62215912 50.62245453 38.85808777 49.45145203 39.10116577 48.2449646 C39.32268311 47.18203186 39.54420044 46.11909912 39.77243042 45.0239563 C40.05726445 43.63297069 40.05726445 43.63297069 40.34785271 42.21388435 C41 40 41 40 43 38 C43.40102868 61.22997651 43.6987754 84.45936532 43.88080692 107.69212723 C43.96765823 118.4850713 44.08555471 129.27583883 44.2824707 140.06738281 C44.45446129 149.49762036 44.56217248 158.92627967 44.59950441 168.35804248 C44.62125518 173.33129926 44.67051512 178.3000506 44.79741096 183.2718277 C45.5103517 212.35062641 39.87166752 235.03803044 27.9688282 261.56140232 C25.4390961 267.20717623 23.22085043 272.95509034 21.03515625 278.7421875 C20.36610082 280.45704745 19.69507358 282.1711411 19.02099609 283.8840332 C18.70217468 284.6965152 18.38335327 285.50899719 18.05487061 286.34609985 C17.72738831 287.1806369 17.39990601 288.01517395 17.0625 288.875 C16.32101395 290.7671272 15.57964446 292.65930008 14.83837891 294.55151367 C13.31766865 298.43311871 11.79648975 302.31453951 10.27490234 306.19580078 C6.8486882 314.93626318 3.42745642 323.67867559 0.00643921 332.4211731 C-1.11690824 335.29182197 -2.24045724 338.1623919 -3.36401367 341.03295898 C-7.07367062 350.51202934 -10.77893706 359.9927919 -14.4765625 369.4765625 C-14.83891998 370.40581039 -15.20127747 371.33505829 -15.57461548 372.29246521 C-17.2839099 376.67614174 -18.9924849 381.06009608 -20.69970703 385.44458008 C-24.41645497 394.98349002 -28.17873985 404.50242197 -32 414 C-32.33 414 -32.66 414 -33 414 C-33.16555971 393.72712371 -32.81438877 373.52449175 -32.04390192 353.26721209 C-31.66445327 343.20693458 -31.37176078 333.14387582 -31.07509518 323.08087265 C-30.78852754 313.36993313 -30.47496375 303.66181683 -30.07470703 293.95483398 C-29.75260217 286.13901136 -29.49288856 278.32373152 -29.30168295 270.50357765 C-29.19935246 266.40462752 -29.07010592 262.31151984 -28.86390686 258.21637154 C-27.69569948 234.48426572 -32.27466867 217.97694642 -44.10052967 197.3645277 C-46.65854591 192.83351905 -48.90593055 188.18169842 -51.12109375 183.4765625 C-51.84577288 181.98472312 -52.57227328 180.49376545 -53.30151367 179.00415039 C-55.6029999 174.28578141 -57.90333424 169.56685186 -60.203125 164.84765625 C-60.59662643 164.04019455 -60.99012787 163.23273285 -61.39555359 162.40080261 C-68.27835413 148.27433036 -75.13848621 134.13682063 -82 120 C-79.29677271 117.20982426 -76.77015349 114.61441198 -73.43359375 112.60546875 C-72.7885791 112.21085449 -72.14356445 111.81624023 -71.47900391 111.40966797 C-70.80530762 111.00635254 -70.13161133 110.60303711 -69.4375 110.1875 C-68.01591684 109.32066502 -66.59535403 108.45215462 -65.17578125 107.58203125 C-64.47404785 107.15229004 -63.77231445 106.72254883 -63.04931641 106.27978516 C-59.03728181 103.77429488 -55.15177408 101.08283063 -51.2578125 98.3984375 C-49 97 -49 97 -47 97 C-46.91459961 96.3620752 -46.82919922 95.72415039 -46.74121094 95.06689453 C-45.70707224 90.78795832 -43.92931171 86.94237276 -42.140625 82.9296875 C-41.56124176 81.61437546 -41.56124176 81.61437546 -40.97015381 80.27249146 C-39.7347891 77.47123061 -38.4924356 74.67313076 -37.25 71.875 C-36.42924096 70.01582207 -35.60892392 68.15644894 -34.7890625 66.296875 C-30.90980923 57.50832742 -27.0115703 48.72911581 -23 40 C-20.05921459 42.94078541 -19.61401173 46.58164001 -18.6171875 50.5078125 C-18.28849167 51.76874222 -18.28849167 51.76874222 -17.95315552 53.05514526 C-17.25395943 55.74346543 -16.56438373 58.4341487 -15.875 61.125 C-15.40297472 62.94677818 -14.93032624 64.76839502 -14.45703125 66.58984375 C-13.29744471 71.0580549 -12.14648082 75.52840898 -11 80 C-7.1382317 53.35759847 -3.44202694 26.6999647 0 0 Z "
     fill="#FBFBFB"
     transform="translate(836,152)"
     id="path4"
     style="fill:#e5e5e5;fill-opacity:1;filter:url(#filter26)" />
  <path
     d="M0 0 C1.51064721 3.02129442 0.5861087 5.25964935 -0.00520325 8.56219482 C-0.18556477 9.58512174 -0.18556477 9.58512174 -0.36956996 10.62871385 C-0.77635763 12.92648423 -1.1925402 15.22245423 -1.60864258 17.51855469 C-1.90138335 19.16103631 -2.19353971 20.80362218 -2.4851532 22.44630432 C-3.11592711 25.99212204 -3.75087265 29.53715882 -4.38901711 33.08165741 C-5.39989696 38.69654072 -6.40168626 44.31302225 -7.40226746 49.92974854 C-8.98858775 58.82811012 -10.58119262 67.72533388 -12.17637509 76.62211061 C-15.02534036 92.51254081 -17.86440018 108.40474142 -20.70016402 124.29753232 C-21.69452106 129.86884329 -22.69179968 135.43962087 -23.69157183 141.00996256 C-24.31698022 144.49679473 -24.940426 147.983976 -25.56344795 151.47123528 C-25.85038801 153.07484393 -26.13815658 154.67830462 -26.42686844 156.28159523 C-28.14640096 165.83307141 -29.70239633 175.38022838 -31 185 C-30.72816769 184.09691133 -30.45633537 183.19382265 -30.17626572 182.26336765 C-27.07694769 171.96691262 -23.97640357 161.67082704 -20.875 151.375 C-20.62568474 150.54733753 -20.37636948 149.71967506 -20.11949921 148.86693192 C-11.79402611 121.23001962 -3.43244581 93.60449331 5 66 C6.27772262 69.72091417 5.81659223 72.79882731 5.29850769 76.6599884 C5.21093509 77.32816973 5.1233625 77.99635105 5.03313619 78.6847803 C4.7378432 80.92343992 4.43178203 83.16049257 4.12573242 85.39770508 C3.91174566 87.00259615 3.69840817 88.6075739 3.485672 90.21263123 C2.90569776 94.57318603 2.31624093 98.93241119 1.72481704 103.29142594 C1.10702731 107.85458619 0.49696796 112.41878045 -0.11418152 116.98283386 C-1.14223626 124.65113564 -2.17633515 132.31860388 -3.21411133 139.9855957 C-4.41288436 148.84249493 -5.60265382 157.70056726 -6.78745157 166.55934602 C-7.9278412 175.08481324 -9.07414816 183.60947438 -10.22330284 192.13376427 C-10.71193439 195.7589377 -11.19858953 199.38436829 -11.68366432 203.0100193 C-12.25585868 207.28453288 -12.8332699 211.55831072 -13.4146595 215.83158302 C-13.62686783 217.39742093 -13.83732484 218.96349736 -14.04587173 220.52982712 C-14.33160726 222.67359149 -14.62378545 224.81638481 -14.91755676 226.95906067 C-15.16009296 228.75567752 -15.16009296 228.75567752 -15.40752888 230.58858967 C-16.34385047 235.97986872 -17.41615323 240.78054239 -20.765625 245.171875 C-21.31863281 245.90857422 -21.87164063 246.64527344 -22.44140625 247.40429688 C-23.33666016 248.56541992 -23.33666016 248.56541992 -24.25 249.75 C-25.52631383 251.44250313 -26.80234775 253.13521737 -28.078125 254.828125 C-29.05749023 256.11686523 -29.05749023 256.11686523 -30.05664062 257.43164062 C-33.07810542 261.42483279 -36.03730654 265.46313078 -39 269.5 C-40.16375137 271.07965635 -41.32781496 272.65908272 -42.4921875 274.23828125 C-44.85343197 277.44263898 -47.21258546 280.64852217 -49.5703125 283.85546875 C-55.4949589 291.91090903 -61.44309079 299.94651873 -67.45703125 307.93554688 C-71.38371638 313.1589755 -75.25769215 318.42001395 -79.125 323.6875 C-83.96040889 330.27012973 -88.86292627 336.79014966 -93.87109375 343.2421875 C-96.27855243 346.3608404 -98.62304763 349.521751 -100.94140625 352.70703125 C-101.29074219 353.13371094 -101.64007812 353.56039063 -102 354 C-102.33 354 -102.66 354 -103 354 C-102.45179077 344.19492996 -101.54241685 334.53649342 -100.20239258 324.80371094 C-100.0211873 323.45982146 -99.84047255 322.11586577 -99.66020203 320.77185059 C-99.2758825 317.91195965 -98.88879709 315.05246257 -98.49961281 312.19322968 C-97.88347073 307.66173808 -97.27763729 303.12890331 -96.67375183 298.59576416 C-94.95699917 285.71735773 -93.23392374 272.83984986 -91.48461914 259.96582031 C-90.51501326 252.8293616 -89.55762771 245.69137408 -88.61374587 238.55146623 C-88.11553498 234.7868538 -87.61115395 231.02330673 -87.09150124 227.26158905 C-86.60328437 223.72729202 -86.13112549 220.19120656 -85.67071724 216.65318298 C-85.41935987 214.75379294 -85.15119905 212.85664965 -84.88235474 210.95965576 C-83.93043 203.49607106 -84.17539287 197.29078442 -86 190 C-86.19543994 189.16557373 -86.39087988 188.33114746 -86.59224224 187.47143555 C-87.21201579 184.88703491 -87.86967287 182.31496909 -88.5378418 179.74267578 C-88.78357941 178.78349747 -89.02931702 177.82431915 -89.28250122 176.83607483 C-89.81073069 174.77544452 -90.34058145 172.71522925 -90.87192345 170.65539932 C-91.71228459 167.39461419 -92.54668405 164.13235683 -93.37934875 160.86959839 C-95.74531279 151.60086014 -98.11773178 142.3338069 -100.50415039 133.0703125 C-101.9679311 127.38653399 -103.42137559 121.70019733 -104.86820412 116.01208115 C-105.42049143 113.84931385 -105.97672131 111.68754936 -106.53696251 109.52682877 C-107.31783641 106.51393351 -108.08554798 103.4979676 -108.8503418 100.48095703 C-109.08456345 99.59049179 -109.3187851 98.70002655 -109.56010437 97.78257751 C-111.47783428 90.11517211 -111.47783428 90.11517211 -110 86 C-108.43359375 83.89453125 -108.43359375 83.89453125 -106.4375 81.8125 C-102.87897074 77.97733595 -99.57659178 74.03569098 -96.33203125 69.93359375 C-92.85952628 65.56533373 -89.3303717 61.24346911 -85.80273438 56.91967773 C-83.32817307 53.88268317 -80.86254259 50.84210663 -78.45703125 47.75 C-77.39548828 46.38875 -77.39548828 46.38875 -76.3125 45 C-75.71050781 44.21625 -75.10851563 43.4325 -74.48828125 42.625 C-73.99714844 42.08875 -73.50601562 41.5525 -73 41 C-72.34 41 -71.68 41 -71 41 C-70.97494385 41.70495605 -70.9498877 42.40991211 -70.92407227 43.13623047 C-70.80681958 46.38261447 -70.6846885 49.62879817 -70.5625 52.875 C-70.52318359 53.98359375 -70.48386719 55.0921875 -70.44335938 56.234375 C-70.19015781 62.8565699 -69.75898051 69.41596045 -69 76 C-61.14876057 67.59135715 -61.14876057 67.59135715 -53.5 59 C-49.89917386 54.83433839 -46.14609026 50.81399952 -42.40234375 46.77734375 C-39.72584071 43.88618383 -37.07681276 40.98101868 -34.5 38 C-30.89917386 33.83433839 -27.14609026 29.81399952 -23.40234375 25.77734375 C-20.18251283 22.29928078 -17.03284373 18.77366457 -13.93359375 15.1875 C-9.38376134 10.04021485 -4.67380883 5.03451329 0 0 Z M-33 188 C-32 191 -32 191 -32 191 Z "
     fill="#FCFCFC"
     transform="translate(1143,118)"
     id="path5"
     style="fill:#999999;fill-opacity:1;filter:url(#filter25)" />
  <path
     d="M0 0 C2.72830896 2.60322251 4.9440304 5.17982165 7.00512695 8.33447266 C7.84168571 9.60697372 7.84168571 9.60697372 8.69514465 10.90518188 C9.28687973 11.81561249 9.87861481 12.72604309 10.48828125 13.6640625 C11.42041695 15.08493668 11.42041695 15.08493668 12.37138367 16.53451538 C14.35628106 19.56174175 16.3346876 22.59314098 18.3125 25.625 C20.28070988 28.63469174 22.25030523 31.64346473 24.22148132 34.6512146 C25.44563574 36.51989623 26.66793872 38.38979258 27.88801575 40.26113892 C31.21039096 45.34137759 34.61013013 50.35210363 38.12492371 55.30136108 C38.74369888 56.19191193 39.36247406 57.08246277 40 58 C40.51221415 58.6227651 41.02442829 59.2455302 41.55216408 59.88716698 C46.48079174 66.30241731 46.64455184 71.13796554 45.9609375 79.02685547 C45.88926361 80.16411009 45.81758972 81.30136471 45.7437439 82.47308159 C45.59320089 84.83313371 45.4294777 87.19238082 45.25280762 89.55062103 C44.94404525 93.76346258 44.72340616 97.97787259 44.5072937 102.19629097 C44.24044939 107.3225432 43.92939465 112.44617788 43.625 117.5703125 C43.49415048 119.80084349 43.36345732 122.03138366 43.23291016 124.26193237 C42.96231864 128.87508209 42.68987113 133.48811715 42.41601562 138.10107422 C42.06608731 143.99804475 41.72098521 149.89528662 41.37722778 155.79261971 C41.10975824 160.37213391 40.83977469 164.95149725 40.56903076 169.53081894 C40.44068109 171.70679047 40.3131052 173.88280779 40.18634033 176.05887222 C40.00959686 179.08644368 39.82945808 182.11379494 39.6484375 185.14111328 C39.59749939 186.02527924 39.54656128 186.90944519 39.49407959 187.82040405 C39.18516545 192.91643835 38.68698575 197.94064382 38 203 C37.67 203 37.34 203 37 203 C32.71 175.28 28.42 147.56 24 119 C21.29816636 185.7893277 28.37765742 241.03269025 45.30203247 305.21359253 C45.55887849 306.19613195 45.81572451 307.17867138 46.08035374 308.19098473 C46.55876082 310.01510445 47.04416641 311.83740877 47.53786373 313.65744972 C47.74685079 314.45542662 47.95583784 315.25340351 48.17115784 316.07556152 C48.44907842 317.11089146 48.44907842 317.11089146 48.73261356 318.16713715 C49 320 49 320 48 323 C45.87436928 320.27132407 43.74951904 317.54204156 41.625 314.8125 C40.66424561 313.57826294 40.66424561 313.57826294 39.68408203 312.3190918 C36.0630117 307.66375381 32.45849344 302.99680515 28.875 298.3125 C24.82757004 293.03957979 20.69481902 287.84060902 16.53295898 282.65771484 C8.85833809 273.09730188 8.85833809 273.09730188 5.23974609 268.37413025 C3.0537104 265.54094766 0.86564983 262.85788136 -1.59667969 260.25317383 C-11.36742827 249.43245865 -14.87100245 236.45276984 -19.0718956 222.74498749 C-20.11310096 219.37075613 -21.18863322 216.00750062 -22.26098633 212.64306641 C-24.01109187 207.13928258 -25.74278272 201.63004796 -27.4609375 196.11621094 C-29.86996356 188.38950351 -32.33233467 180.68076644 -34.8125 172.9765625 C-35.56031274 170.65267249 -36.30811574 168.32877935 -37.0559082 166.00488281 C-37.58941391 164.3471283 -37.58941391 164.3471283 -38.13369751 162.65588379 C-40.08651127 156.57603956 -42.02267495 150.49089214 -43.95788574 144.40542603 C-44.34261047 143.1961293 -44.34261047 143.1961293 -44.73510742 141.96240234 C-44.95680099 141.26480804 -45.17849457 140.56721375 -45.40690613 139.84848022 C-45.92663635 138.22865057 -46.4620439 136.61386829 -47 135 C-46.97411925 132.0018297 -46.87576347 129.04292438 -46.71875 126.05078125 C-46.67190063 125.09851151 -46.62505127 124.14624176 -46.57678223 123.16511536 C-45.81996618 108.61890378 -44.72588801 94.09164531 -43.67181396 79.56463623 C-43.44090532 76.36989414 -43.21348077 73.1749078 -42.98607635 69.97991467 C-42.76438762 66.86983893 -42.54090399 63.75989424 -42.31684875 60.64998817 C-42.21115001 59.18097521 -42.10590306 57.71192965 -42.00114441 56.24284935 C-41.68550739 51.82704144 -41.34857921 47.41335782 -41 43 C-40.9368158 42.06373779 -40.87363159 41.12747559 -40.80853271 40.1628418 C-40.46225267 35.93794796 -40.08199071 33.65055035 -37.078125 30.6640625 C-35.82184142 29.62664016 -34.54441511 28.61443573 -33.25 27.625 C-32.57477295 27.07610107 -31.8995459 26.52720215 -31.20385742 25.96166992 C-29.81642306 24.83445065 -28.42143373 23.71646667 -27.01904297 22.60791016 C-24.05509959 20.24750736 -21.18908495 17.77782906 -18.3125 15.3125 C-12.2374391 10.17365458 -6.12083634 5.08415415 0 0 Z "
     fill="#FCFCFC"
     transform="translate(273,108)"
     id="path6"
     style="fill:#808080;fill-opacity:1;filter:url(#filter24)" />
  <path
     d="M0 0 C0.99 0.495 0.99 0.495 2 1 C1.89177162 1.64660489 1.78354324 2.29320978 1.67203522 2.95940876 C-0.95949113 18.68235515 -3.58833411 34.40574747 -6.21417999 50.12964344 C-7.4840761 57.73354182 -8.75488474 65.33728559 -10.02783203 72.94067383 C-11.13714406 79.56667328 -12.24475377 86.19295463 -13.35030794 92.81958216 C-13.93591472 96.32930699 -14.52238127 99.83888332 -15.11088562 103.34812355 C-15.767324 107.26264839 -16.41996213 111.17780148 -17.07226562 115.09301758 C-17.26863113 116.2604248 -17.46499664 117.42783203 -17.66731262 118.63061523 C-17.84400986 119.69492264 -18.02070709 120.75923004 -18.20275879 121.85578918 C-18.35762001 122.78219113 -18.51248123 123.70859308 -18.67203522 124.66306782 C-19.06948897 127.1018422 -19.06948897 127.1018422 -19 130 C-18.64284912 129.36610352 -18.28569824 128.73220703 -17.91772461 128.07910156 C-6.36516124 107.58339868 -6.36516124 107.58339868 -1.75 99.5625 C-1.22921875 98.65628906 -0.7084375 97.75007813 -0.171875 96.81640625 C0.21484375 96.21699219 0.6015625 95.61757812 1 95 C1.33 95 1.66 95 2 95 C1.97068893 95.87172852 1.94137787 96.74345703 1.91117859 97.64160156 C1.77291813 101.8442543 1.64068592 106.04705316 1.51171875 110.25 C1.48740973 111.03396149 1.4631007 111.81792297 1.43805504 112.62564087 C1.12687181 122.85642344 0.96755922 133.07066777 1.00788879 143.30587769 C1.16393827 186.72159318 -5.03451653 223.0740006 -20.4780426 263.59993649 C-24.48343181 274.12280842 -27.91481475 284.79971171 -31.25039673 295.55102539 C-32.7902455 300.49948264 -34.36988382 305.43512417 -35.94921875 310.37109375 C-36.26392624 311.35661224 -36.57863373 312.34213074 -36.90287781 313.35751343 C-41.36412941 327.30304313 -45.93556595 341.21297965 -50.5 355.125 C-50.82245508 356.107834 -50.82245508 356.107834 -51.15142441 357.11052322 C-53.76464335 365.07465948 -56.38080735 373.03782629 -59 381 C-59.33 381 -59.66 381 -60 381 C-59.98699026 379.89295243 -59.98699026 379.89295243 -59.97371769 378.76354027 C-59.76570296 360.60774145 -59.64448222 342.45313383 -59.61396885 324.2961483 C-59.59722584 315.51446516 -59.55316631 306.73463888 -59.44116211 297.95361328 C-57.9047739 245.68113466 -57.9047739 245.68113466 -74.04922485 196.76025391 C-77.01577443 191.19969202 -79.15992944 185.31671093 -81.36621666 179.42419434 C-82.49385904 176.43226099 -83.67229069 173.46054874 -84.84570312 170.48632812 C-86.22125667 166.98093317 -87.59664268 163.47547254 -88.97192383 159.9699707 C-89.90557046 157.59043828 -90.83943492 155.21099131 -91.77352905 152.83163452 C-92.66069814 150.57163356 -93.54729688 148.3114086 -94.43325806 146.05093384 C-96.25998126 141.39634844 -98.0940496 136.74606673 -99.98388672 132.11669922 C-100.41482887 131.05829079 -100.41482887 131.05829079 -100.85447693 129.97850037 C-101.58291754 128.19712323 -102.31831656 126.41859557 -103.05444336 124.64038086 C-104 122 -104 122 -104 119 C-101.9375 117.34375 -101.9375 117.34375 -99 115.5 C-97.906875 114.78972656 -96.81375 114.07945312 -95.6875 113.34765625 C-93.81785839 112.15029648 -91.942723 110.96456129 -90.0546875 109.79638672 C-79.82694684 103.44165079 -72.48701022 96.7422662 -65.43554688 86.98242188 C-63.98791609 84.9833127 -62.50799267 83.01276375 -61.015625 81.046875 C-57.98542621 77.04966463 -54.99118407 73.02644327 -52 69 C-45.74898056 60.60084248 -39.44503344 52.25158249 -33 44 C-21.71445119 29.54568598 -10.85607141 14.77820248 0 0 Z "
     fill="#FCFCFC"
     transform="translate(1003,138)"
     id="path7"
     style="fill:#cccccc;fill-opacity:1;filter:url(#filter23)" />
  <path
     d="M0 0 C4.21817532 1.53919561 6.34166992 4.65614353 8.9375 8.125 C9.91265879 9.39821176 10.8892813 10.67030346 11.8671875 11.94140625 C12.63240723 12.93938232 12.63240723 12.93938232 13.41308594 13.95751953 C16.5490938 17.99380288 19.80824856 21.93125222 23.05639648 25.87744141 C24.10588408 27.15990337 25.13269912 28.46111971 26.14111328 29.77612305 C28.00572374 32.116778 28.00572374 32.116778 30.55810547 34.28051758 C41.30669791 45.1227187 39.73105145 59.99540487 39.95812607 74.31005478 C40.02869332 78.10594535 40.15388164 81.90001255 40.2746582 85.69458008 C40.46509305 91.84509275 40.62780498 97.99570139 40.77197266 104.14746094 C40.96518159 112.25089706 41.26156438 120.34671821 41.60546875 128.4453125 C41.65534943 129.62904953 41.7052301 130.81278656 41.75662231 132.03239441 C41.85357964 134.3230338 41.95088884 136.61365832 42.04858398 138.90426636 C42.38101193 146.76108996 42.68434518 154.61723687 42.91110229 162.47784424 C42.99692694 164.91281293 43.1316345 167.34082495 43.27563477 169.77294922 C43.73635935 179.38840824 42.13109189 185.71200278 36.5625 193.75 C35.17574354 195.89933942 33.79173884 198.05045619 32.41015625 200.203125 C31.86888596 201.02864868 31.86888596 201.02864868 31.31668091 201.87084961 C27.51266228 207.6729312 24.0368861 213.65339518 20.56588745 219.65856934 C18.78394267 222.737063 16.98606694 225.8061966 15.1875 228.875 C14.65877541 229.77759552 14.65877541 229.77759552 14.11936951 230.69842529 C10.62302171 236.65841535 7.06614754 242.58155117 3.5 248.5 C-1.87505054 257.42248395 -7.17910856 266.38350876 -12.4375 275.375 C-23.51467252 294.31524644 -34.66936083 313.21002338 -46 332 C-47.05766516 328.69249307 -46.93527828 326.1985084 -46.43690491 322.77832031 C-46.21178474 321.19318886 -46.21178474 321.19318886 -45.9821167 319.57603455 C-45.81020813 318.4217244 -45.63829956 317.26741425 -45.46118164 316.078125 C-45.2857634 314.85811295 -45.11034515 313.63810089 -44.92961121 312.38111877 C-44.54718784 309.72818543 -44.16201363 307.0758223 -43.77220345 304.42398071 C-43.15463247 300.22096718 -42.54899259 296.01628759 -41.94517517 291.8112793 C-40.44250234 281.36023502 -38.92266533 270.91169372 -37.40240479 260.4631958 C-36.22283501 252.35424983 -35.04744863 244.24473662 -33.88326353 236.1335659 C-33.28439337 231.96437341 -32.67753619 227.79645001 -32.0643369 223.62934208 C-31.59222704 220.40620891 -31.13115085 217.18149251 -30.66821289 213.95703125 C-30.41338638 212.2498568 -30.41338638 212.2498568 -30.15341187 210.50819397 C-28.76720715 200.72304494 -28.20375504 191.21655262 -30.28515625 181.5065918 C-30.48998123 180.52596519 -30.48998123 180.52596519 -30.69894409 179.52552795 C-31.14251589 177.41426544 -31.60254283 175.30696546 -32.0625 173.19921875 C-32.37763824 171.70882698 -32.69149742 170.21816425 -33.00415039 168.72724915 C-33.82261332 164.83657372 -34.65413785 160.94882737 -35.48986816 157.06182861 C-36.82970294 150.82577781 -38.15506672 144.58671594 -39.4694519 138.3452549 C-39.928386 136.17972417 -40.39648867 134.01632288 -40.86547852 131.85295105 C-41.14894977 130.51752002 -41.43208901 129.18201847 -41.71484375 127.84643555 C-41.96355225 126.69016159 -42.21226074 125.53388763 -42.46850586 124.34257507 C-43.50625118 117.81617828 -42.80810383 112.20097517 -41.19580078 105.84912109 C-41.00394196 105.06609116 -40.81208313 104.28306122 -40.6144104 103.4763031 C-39.98261229 100.90665603 -39.33920745 98.34007766 -38.6953125 95.7734375 C-38.25109037 93.97953085 -37.80748616 92.18547108 -37.36447144 90.39126587 C-36.43630636 86.63946078 -35.50274851 82.88905479 -34.56494141 79.13964844 C-33.36430314 74.33882657 -32.17398594 69.53552273 -30.98729134 64.73123741 C-30.07232948 61.02959644 -29.15352474 57.32891847 -28.23339462 53.62855911 C-27.79323393 51.8577646 -27.35388804 50.08676734 -26.91537857 48.3155632 C-26.30156845 45.84014346 -25.68298735 43.36596572 -25.06298828 40.89208984 C-24.88316406 40.16365372 -24.70333984 39.43521759 -24.51806641 38.68470764 C-23.58790565 34.99574912 -22.51557802 31.49156934 -21 28 C-20.67 28 -20.34 28 -20 28 C-19.67 44.5 -19.34 61 -19 78 C-17.71222656 72.62074219 -16.42445312 67.24148437 -15.09765625 61.69921875 C-14.28204696 58.29488677 -13.46635975 54.89057383 -12.65039062 51.48632812 C-11.35478514 46.0809934 -10.05947133 40.67558994 -8.76586914 35.26977539 C-7.72312155 30.91233303 -6.6790871 26.55520085 -5.63415337 22.19828224 C-5.23538646 20.53459506 -4.8370862 18.87079596 -4.43925667 17.20688438 C-3.8826896 14.87940699 -3.32447636 12.55233026 -2.76586914 10.2253418 C-2.60115112 9.53482224 -2.43643311 8.84430267 -2.26672363 8.13285828 C-1.60346288 5.376232 -0.89725221 2.69175664 0 0 Z "
     fill="#FBFBFB"
     transform="translate(1206,97)"
     id="path8"
     style="fill:#808080;fill-opacity:1;filter:url(#filter22)" />
  <path
     d="M0 0 C0.33 0 0.66 0 1 0 C1.33 16.83 1.66 33.66 2 51 C6.95 34.5 11.9 18 17 1 C17.99 1 18.98 1 20 1 C20.42297363 1.76554199 20.84594727 2.53108398 21.28173828 3.31982422 C22.87943079 6.20945371 24.47874538 9.09817358 26.07910156 11.98632812 C26.76625846 13.22718848 27.452801 14.46838929 28.13867188 15.70996094 C29.1350297 17.51331033 30.13372708 19.3153481 31.1328125 21.1171875 C32.05523526 22.7840216 32.97717697 24.45116337 33.88671875 26.12506104 C35.00061943 28.07536418 35.00061943 28.07536418 36.52929688 30.05218506 C42.08953611 37.92981623 42.1507497 45.87344803 42.359375 55.15625 C42.39779385 56.42639733 42.39779385 56.42639733 42.43698883 57.72220421 C42.63366089 64.31468598 42.70527238 70.90497805 42.75 77.5 C42.76049377 78.47619419 42.77098755 79.45238838 42.78179932 80.45816422 C43.31840306 133.34229226 31.51131958 183.89115896 19 235 C17 234 17 234 16.02954102 231.58946228 C15.69108154 230.51571854 15.35262207 229.44197479 15.00390625 228.33569336 C14.61589844 227.11768539 14.22789062 225.89967743 13.828125 224.64476013 C13.40608865 223.29317171 12.98421866 221.94153133 12.5625 220.58984375 C12.11913904 219.18799125 11.67511625 217.78634791 11.23046875 216.38490295 C10.05043539 212.65921168 8.87969537 208.930661 7.71075439 205.20147705 C6.33467941 200.81824394 4.94810179 196.4383139 3.55936241 192.05907822 C2.39917785 188.39548839 1.25211658 184.72860783 0.1288147 181.05352783 C-1.99126641 174.14831138 -4.1943358 167.36162797 -6.86962891 160.64941406 C-16.02261093 136.78872714 -15.60436292 112.66093787 -15.41357422 87.37011719 C-15.36753541 81.10034766 -15.42180548 74.8359527 -15.50369835 68.56670952 C-15.55528852 63.65526943 -15.54958453 58.74508333 -15.52791214 53.83346939 C-15.52498343 51.52383621 -15.53978877 49.2140958 -15.5744133 46.90472031 C-15.81301371 27.9445222 -10.40788252 15.61182379 0 0 Z "
     fill="#FCFCFC"
     transform="translate(180,109)"
     id="path9"
     style="fill:#666666;fill-opacity:1;filter:url(#filter21)" />
  <path
     d="M0 0 C0.96818542 2.69697571 0.96818542 2.69697571 1.80932617 6.34887695 C1.96582138 7.01249741 2.12231659 7.67611786 2.28355408 8.35984802 C2.80002525 10.56647 3.29699158 12.77696965 3.79296875 14.98828125 C4.14663072 16.52769985 4.5010784 18.06693814 4.85627747 19.60600281 C5.60019156 22.84327592 6.33451049 26.08254139 7.06225586 29.32348633 C7.98928654 33.448455 8.93939987 37.56767364 9.89701366 41.68563557 C10.63493809 44.8708154 11.3602128 48.05877776 12.08190346 51.24767113 C12.4269197 52.76536228 12.77571653 54.28219968 13.12856102 55.79808998 C16.23510037 69.19875416 16.39268075 80.96772554 14.46875 94.59765625 C14.31337769 95.7531749 14.15800537 96.90869354 13.9979248 98.09922791 C13.50609159 101.75471373 13.00425467 105.40870839 12.5 109.0625 C11.83533519 113.8856214 11.1805901 118.70995074 10.53125 123.53515625 C10.37813354 124.62192154 10.22501709 125.70868683 10.06726074 126.8283844 C8.36686639 139.46568931 9.33635703 151.0421121 11.06772041 163.5972271 C11.44823214 166.35812062 11.81947795 169.12012717 12.1884613 171.88258362 C13.10523612 178.73221868 14.0373697 185.5797454 14.96948242 192.42730713 C15.76005798 198.23915399 16.54458137 204.05175391 17.32087517 209.8655262 C17.68657429 212.58515943 18.06121268 215.30346575 18.43617249 218.02183533 C18.65914848 219.6843375 18.88170075 221.34689658 19.10375977 223.00952148 C19.21021317 223.76332092 19.31666656 224.51712036 19.42634583 225.29376221 C19.87982264 228.7571701 20.23128764 231.67695272 19 235 C12.30442432 223.15524696 5.87755723 211.17614695 -0.48577881 199.15087891 C-5.54460375 189.59164729 -10.64255014 180.05792219 -15.89404297 170.60253906 C-16.75325613 169.04450782 -17.59886505 167.47888999 -18.43011475 165.90576172 C-19.53950392 163.85235011 -20.70007796 161.82620431 -21.89559937 159.82171631 C-28.59610199 148.13230643 -30.14032962 136.49619748 -31.66015625 123.265625 C-31.94021661 121.01091516 -32.22268561 118.75650333 -32.50743103 116.50238037 C-33.09366057 111.8147582 -33.66100625 107.12541039 -34.21264648 102.43359375 C-34.92003067 96.41806091 -35.6598201 90.40709915 -36.41166019 84.39697647 C-37.12995996 78.64613409 -37.83356397 72.89352594 -38.53515625 67.140625 C-38.73689296 65.49882641 -38.73689296 65.49882641 -38.94270515 63.82386017 C-39.31892598 60.73796401 -39.68479407 57.65103127 -40.04711914 54.56347656 C-40.15970566 53.64921906 -40.27229218 52.73496155 -40.38829041 51.79299927 C-40.48473846 50.95237946 -40.58118652 50.11175964 -40.68055725 49.2456665 C-40.76695497 48.5179517 -40.85335268 47.79023689 -40.94236851 47.04047012 C-41 45 -41 45 -40 41 C-35.71 53.87 -31.42 66.74 -27 80 C-27.39316406 75.44960937 -27.78632812 70.89921875 -28.19140625 66.2109375 C-28.41989652 63.32181346 -28.64557453 60.43300298 -28.86132812 57.54296875 C-29.20387672 52.95805402 -29.55641231 48.37551477 -29.9699707 43.79638672 C-30.30289235 40.1029419 -30.5896727 36.40849057 -30.84516716 32.7089119 C-30.95049594 31.30024622 -31.0722316 29.89270587 -31.21078682 28.4869194 C-31.62670193 24.20416929 -31.88481914 20.22625232 -31 16 C-28.4169847 13.00610508 -25.58385982 11.57010751 -22 10 C-21.10297363 9.43676025 -20.20594727 8.87352051 -19.28173828 8.29321289 C-16.90228155 6.87231629 -14.51615348 5.46362542 -12.125 4.0625 C-11.28453125 3.55654297 -10.4440625 3.05058594 -9.578125 2.52929688 C-8.77117187 2.05685547 -7.96421875 1.58441406 -7.1328125 1.09765625 C-6.40980957 0.66976807 -5.68680664 0.24187988 -4.94189453 -0.19897461 C-3 -1 -3 -1 0 0 Z "
     fill="#FBFBFB"
     transform="translate(138,69)"
     id="path10"
     style="fill:#4d4d4d;fill-opacity:1;filter:url(#filter20)" />
  <path
     d="M0 0 C0.33 0 0.66 0 1 0 C1.10275993 1.20219681 1.10275993 1.20219681 1.20759583 2.42868042 C1.86842783 10.15882174 2.52972033 17.88892349 3.19147205 25.61898613 C3.53128458 29.58858139 3.87094715 33.55818933 4.21020508 37.52783203 C6.10426987 59.68849109 8.03685372 81.84533415 10 104 C13.3 82.55 16.6 61.1 20 39 C20.33 39 20.66 39 21 39 C20.97265274 39.97457153 20.94530548 40.94914307 20.91712952 41.95324707 C20.78647092 46.64582604 20.66050523 51.3385266 20.53515625 56.03125 C20.5115761 56.90411148 20.48799595 57.77697296 20.46370125 58.67628479 C20.20213567 68.449233 19.9736978 78.21979854 19.89404297 87.99609375 C19.28847518 162.11695899 19.28847518 162.11695899 4.54394531 189.21986389 C-0.30141444 198.16049716 -3.92997596 207.61574012 -7.7175293 217.03952026 C-9.62238092 221.75957449 -11.5765654 226.45894615 -13.52734375 231.16015625 C-18.04900637 242.09416867 -22.5278406 253.04566462 -27 264 C-27.33 264 -27.66 264 -28 264 C-28.19095788 254.55606454 -27.66422333 245.20437554 -27.04345512 235.78789139 C-26.86710576 233.10335391 -26.69656434 230.41850208 -26.52760315 227.73348999 C-26.04711916 220.10790824 -25.55959151 212.48280481 -25.06079102 204.85839844 C-24.75448666 200.17012832 -24.45746837 195.48134247 -24.16603279 190.7921257 C-24.05427755 189.02275863 -23.93911379 187.25360297 -23.82024956 185.48469925 C-22.7881603 170.10323845 -23.78367741 155.50322076 -25.95768929 140.24499893 C-26.29423461 137.88155837 -26.62457355 135.51731713 -26.95347595 133.15280151 C-27.76985484 127.29202536 -28.59563901 121.43258475 -29.42266846 115.57330322 C-30.12575914 110.59060275 -30.82447352 105.60732883 -31.51711845 100.62316513 C-31.84074985 98.30723517 -32.17075405 95.99227227 -32.50099182 93.67727661 C-32.700293 92.2472996 -32.89927905 90.81727863 -33.09790039 89.38720703 C-33.35984947 87.53193893 -33.35984947 87.53193893 -33.62709045 85.63919067 C-34.75883348 74.5946124 -34.75883348 74.5946124 -32.64575195 70.15551758 C-32.34690094 69.50793488 -32.04804993 68.86035217 -31.74014282 68.19314575 C-31.4095285 67.51710297 -31.07891418 66.84106018 -30.73828125 66.14453125 C-30.39590424 65.41257538 -30.05352722 64.68061951 -29.70077515 63.92648315 C-28.58506708 61.54840926 -27.44886415 59.18076243 -26.3125 56.8125 C-25.5351513 55.16397442 -24.7595326 53.51463203 -23.9855957 51.86450195 C-22.80773448 49.35358383 -21.62886573 46.84320688 -20.44432068 44.33543396 C-16.74622642 36.50222799 -13.19940657 28.60554074 -9.6875 20.6875 C-6.59389111 13.71525078 -3.48105431 6.78846933 0 0 Z "
     fill="#FAFAFA"
     transform="translate(1293,82)"
     id="path11"
     style="fill:#666666;fill-opacity:1;filter:url(#filter19)" />
  <path
     d="M0 0 C2.90237638 2.54504315 4.45278726 5.4112937 6.25 8.8046875 C7.16265625 10.51591797 7.16265625 10.51591797 8.09375 12.26171875 C8.72941443 13.46601509 9.36482891 14.67044339 10 15.875 C11.24795758 18.22765473 12.49895239 20.57867219 13.75 22.9296875 C14.57757812 24.49565674 14.57757812 24.49565674 15.421875 26.09326172 C16.90243943 28.9397783 16.90243943 28.9397783 18.5227356 31.22106934 C20.34436276 34.64779212 20.735902 37.51934489 21.21435547 41.36962891 C21.30739456 42.09396118 21.40043365 42.81829346 21.49629211 43.5645752 C21.79903117 45.9505408 22.08405126 48.33819674 22.3671875 50.7265625 C22.57144948 52.39705451 22.77613767 54.06749446 22.98123169 55.73788452 C23.4079109 59.23886432 23.8250444 62.74083215 24.23632812 66.24365234 C24.76191453 70.70814766 25.31757216 75.16831055 25.88146782 79.62810707 C26.31314947 83.07874881 26.72514467 86.53153943 27.13180923 89.98521042 C27.32838195 91.6292775 27.5316815 93.27255604 27.74212265 94.91490555 C28.934553 104.29465094 29.3201465 111.97899579 26 121 C25.56554747 122.32733939 25.13751884 123.65679071 24.71432495 124.98776245 C23.16875846 129.83993125 21.56941731 134.67359248 19.96875 139.5078125 C19.37139093 141.31867966 18.7742687 143.12962496 18.17736816 144.94064331 C16.60592457 149.70612007 15.03102144 154.47044666 13.45544434 159.23455811 C12.20167013 163.02751743 10.95032656 166.82127627 9.6991272 170.6150856 C2.17644831 193.42464631 -5.38739678 216.22029498 -13 239 C-13.33 239 -13.66 239 -14 239 C-14.06194538 224.68752024 -13.99743329 210.38097786 -13.78125 196.0703125 C-13.77026276 195.34218102 -13.75927551 194.61404953 -13.74795532 193.86385345 C-13.66803172 188.61752495 -13.58422346 183.37126092 -13.5 178.125 C-13.46357151 175.84416174 -13.42728989 173.56332137 -13.39128208 171.28247643 C-13.3675168 169.77822185 -13.34351882 168.27397094 -13.31928158 166.76972389 C-13.26106532 163.10038967 -13.20934314 159.43116845 -13.17127991 155.76156616 C-13.04590165 144.13429054 -13.04590165 144.13429054 -12.68530273 138.71337891 C-11.7421946 122.02431696 -16.64621571 105.71204146 -20.47528076 89.59997559 C-22.02818347 83.05489662 -23.55136367 76.50301364 -25.05996513 69.9475975 C-25.58734746 67.67719232 -26.12973186 65.41076297 -26.67384338 63.14431763 C-26.99801188 61.75404879 -27.32168297 60.36366384 -27.64477539 58.97314453 C-27.93123428 57.76772003 -28.21769318 56.56229553 -28.51283264 55.32034302 C-29.25358386 50.27167114 -28.35454463 46.23953654 -26.15234375 41.6953125 C-25.61577148 40.57382813 -25.61577148 40.57382813 -25.06835938 39.4296875 C-24.69517578 38.66914062 -24.32199219 37.90859375 -23.9375 37.125 C-23.56044922 36.34125 -23.18339844 35.5575 -22.79492188 34.75 C-21.87006766 32.83004947 -20.93596022 30.914561 -20 29 C-17.44057796 31.55942204 -17.39982767 33.19981065 -16.76318359 36.74731445 C-16.43306778 38.55477898 -16.43306778 38.55477898 -16.09628296 40.39875793 C-15.86337139 41.7202135 -15.63076372 43.04172265 -15.3984375 44.36328125 C-15.15524096 45.71618189 -14.91146864 47.06897913 -14.66714478 48.42167664 C-14.15628816 51.25967047 -13.65082549 54.09855493 -13.14941406 56.93823242 C-12.50770961 60.57127622 -11.85525677 64.20228268 -11.19904137 67.83273029 C-10.69458417 70.62799724 -10.19462223 73.42405299 -9.69612503 76.22038841 C-9.45719319 77.5589657 -9.21717062 78.89734877 -8.97602463 80.23552895 C-8.63900041 82.11107532 -8.30838281 83.98776948 -7.97802734 85.86450195 C-7.78864594 86.93102493 -7.59926453 87.99754791 -7.40414429 89.09638977 C-7.03073564 91.77917705 -6.9219213 94.29650077 -7 97 C-6.34 97 -5.68 97 -5 97 C-5.01461525 95.26303612 -5.01461525 95.26303612 -5.02952576 93.49098206 C-5.09521518 82.16090214 -4.77430466 70.90163849 -4.16015625 59.58984375 C-4.07256541 57.91786774 -3.98528667 56.24587536 -3.89830017 54.5738678 C-3.71738122 51.11767031 -3.53300062 47.66168131 -3.34594727 44.20581055 C-3.10628892 39.77331661 -2.87529608 35.34041856 -2.6467371 30.90734005 C-2.46898829 27.47663404 -2.28696889 24.04616517 -2.10360527 20.61575508 C-2.0166051 18.97910889 -1.93089888 17.34239338 -1.84651375 15.70561028 C-1.72890866 13.43751573 -1.60560528 11.16980294 -1.48071289 8.90209961 C-1.41187393 7.61371689 -1.34303497 6.32533417 -1.27210999 4.99790955 C-1 2 -1 2 0 0 Z "
     fill="#F9F9F9"
     transform="translate(1352,68)"
     id="path12"
     style="fill:#4d4d4d;fill-opacity:1;filter:url(#filter18)" />
  <path
     d="M0 0 C3.71563534 1.23854511 4.59458591 2.69017178 7 5.75 C8.18916016 7.24080078 8.18916016 7.24080078 9.40234375 8.76171875 C9.82370605 9.29071777 10.24506836 9.8197168 10.67919922 10.36474609 C12.92175798 13.14120794 15.24424935 15.84920383 17.5625 18.5625 C18.87382813 20.09737265 20.18402139 21.6335407 21.46498108 23.19384766 C22.60223454 24.53197644 23.79642861 25.82215715 25.01829529 27.08349609 C30.13962817 32.70850736 31.89502003 36.52324653 31.60144043 44.13096619 C31.47388367 45.79670433 31.47388367 45.79670433 31.34375 47.49609375 C31.28803833 48.68308365 31.23232666 49.87007355 31.17492676 51.09303284 C30.9894644 54.87783694 30.74693434 58.65625743 30.5 62.4375 C30.363156 64.90928531 30.23031205 67.38129548 30.1015625 69.85351562 C30.00596291 71.67957588 30.00596291 71.67957588 29.90843201 73.54252625 C29.653533 78.51946474 29.40800193 83.49676867 29.17459106 88.47476196 C29.06437076 90.70026415 28.94160204 92.92521277 28.80123901 95.14901733 C27.38577882 118.55942607 32.31131244 141.27183048 36.47528076 164.19561768 C38.03043058 172.78118911 39.54662649 181.37370074 41.05996513 189.96672249 C41.58923438 192.94864463 42.13060656 195.92817238 42.67384338 198.90757751 C42.99777406 200.72015346 43.3214333 202.53277795 43.64477539 204.34545898 C43.79798248 205.16762909 43.95118958 205.98979919 44.10903931 206.83688354 C44.76498178 210.565293 45.09318517 213.37646405 44 217 C42.27269871 214.15503316 40.54540051 211.31006445 38.81811523 208.46508789 C37.29816267 205.96162925 35.77813459 203.45821649 34.25805664 200.95483398 C30.67289409 195.05037628 27.08802117 189.14574451 23.50544739 183.23971558 C22.00838286 180.77178774 20.51102096 178.30404039 19.01364136 175.83630371 C17.97112904 174.11793074 16.92903892 172.39930165 15.88696289 170.68066406 C15.23203857 169.60139648 14.57711426 168.52212891 13.90234375 167.41015625 C13.25789307 166.33805908 12.61344238 165.26596191 11.94946289 164.16137695 C10.67847991 162.10026754 9.36393279 160.06521045 8.00170898 158.06323242 C1.39365438 148.1443265 -2.07135617 137.42796679 -5.8125 126.1875 C-6.47181562 124.2423323 -7.13261432 122.29766664 -7.79492188 120.35351562 C-8.72802974 117.61371508 -9.6591418 114.87345778 -10.57832336 112.12895203 C-10.98971809 110.90145988 -10.98971809 110.90145988 -11.40942383 109.64916992 C-11.7629467 108.58879768 -11.7629467 108.58879768 -12.12361145 107.50700378 C-12.62750139 106.06557237 -13.15690476 104.63139969 -13.7549696 103.22642708 C-15.83607069 98.19587 -16.41974 93.98107731 -16.34057617 88.56445312 C-16.34101425 87.76349213 -16.34145233 86.96253113 -16.34190369 86.13729858 C-16.33983172 83.51835828 -16.31657701 80.90007696 -16.29296875 78.28125 C-16.28736711 76.45422719 -16.2830997 74.62719984 -16.28010559 72.8001709 C-16.2687015 68.01285155 -16.23927287 63.22580922 -16.20599365 58.43859863 C-16.17519675 53.54504136 -16.16157976 48.65143894 -16.14648438 43.7578125 C-16.11439861 34.1717539 -16.06325638 24.58590007 -16 15 C-13.63674834 17.36325166 -13.00981998 19.23867643 -11.84521484 22.36767578 C-11.41909912 23.50438721 -10.9929834 24.64109863 -10.55395508 25.81225586 C-10.11075928 27.01116455 -9.66756348 28.21007324 -9.2109375 29.4453125 C-8.80012939 30.54415771 -8.38932129 31.64300293 -7.96606445 32.77514648 C-6.42972085 36.88953303 -4.90294024 41.00748535 -3.375 45.125 C0.04875 54.32375 3.4725 63.5225 7 73 C4.69 48.91 2.38 24.82 0 0 Z "
     fill="#F9F9F9"
     transform="translate(58,45)"
     id="path13"
     style="fill:#323232;fill-opacity:1;filter:url(#filter17)" />
  <path
     d="M0 0 C0.66 0 1.32 0 2 0 C2.76531652 8.02417494 3.53036918 16.04837497 4.2950964 24.07260609 C4.65029891 27.79963685 5.0055881 31.52665931 5.36108398 35.25366211 C5.70494454 38.85871589 6.04856618 42.46379237 6.39203072 46.0688839 C6.52230093 47.43580605 6.65265339 48.80272037 6.78309441 50.16962624 C7.54090286 58.11143095 8.28649003 66.05408479 9 74 C11.28589381 59.96569904 13.29113577 45.90426731 15.1875 31.8125 C15.46269949 29.779271 15.73808917 27.74606772 16.01367188 25.71289062 C16.6779639 20.80888624 17.33971724 15.90454573 18 11 C20.55017102 13.55017102 20.73011174 15.35782779 21.52807617 18.86743164 C21.81144333 20.09953873 22.09481049 21.33164581 22.38676453 22.60108948 C22.68941734 23.95398106 22.99147028 25.30700695 23.29296875 26.66015625 C23.60615531 28.04826551 23.9195794 29.43632121 24.23323059 30.82432556 C24.88984585 33.73939683 25.54035372 36.65575674 26.18725586 39.57299805 C27.01310137 43.29279318 27.85866352 47.00778632 28.70963573 50.72190189 C29.36382001 53.59123841 30.00478692 56.4634128 30.64220619 59.33651543 C30.9481858 60.70613142 31.25873876 62.07473465 31.57411766 63.44221687 C34.06117922 74.26449743 34.54248102 81.78873619 30.53515625 92.203125 C30.27426712 92.89079453 30.01337799 93.57846405 29.74458313 94.28697205 C28.86016359 96.61177523 27.96114547 98.93066255 27.0625 101.25 C26.41828575 102.93616672 25.77526472 104.6227897 25.13330078 106.30981445 C24.04853591 109.1589299 22.96248597 112.00752204 21.87261963 114.85469055 C18.3466748 124.06645988 14.86707955 133.29535369 11.39453125 142.52734375 C11.10697779 143.29168102 10.81942432 144.0560183 10.52315712 144.8435173 C9.3524019 147.95546815 8.18173823 151.0674534 7.01125431 154.1795063 C4.15729909 161.76736499 1.30057149 169.35417639 -1.55893898 176.93994331 C-2.07717131 178.31494133 -2.59523339 179.69000352 -3.11310387 181.06513786 C-6.37390653 189.72368674 -9.6667593 198.36906222 -13 207 C-13.33 207 -13.66 207 -14 207 C-13.98064235 206.15277579 -13.98064235 206.15277579 -13.96089363 205.28843594 C-13.6462216 191.28615148 -13.41746955 177.28441996 -13.27462959 163.27930355 C-13.20364267 156.50501146 -13.10578705 149.73349048 -12.94384766 142.96069336 C-12.16131637 109.37499106 -13.80885949 79.73111784 -26.11463547 48.15137672 C-28.16808193 42.65320796 -28.16808193 42.65320796 -27.24841309 39.07914734 C-26.07970715 37.13274685 -24.92793281 35.23346263 -23.6015625 33.390625 C-23.1276709 32.72627441 -22.6537793 32.06192383 -22.16552734 31.37744141 C-21.65715332 30.67538574 -21.1487793 29.97333008 -20.625 29.25 C-19.54673775 27.74228565 -18.4686171 26.23447002 -17.390625 24.7265625 C-16.83439453 23.9521582 -16.27816406 23.17775391 -15.70507812 22.37988281 C-12.90807322 18.47593037 -10.14247743 14.54990969 -7.375 10.625 C-6.61243896 9.54653809 -6.61243896 9.54653809 -5.83447266 8.44628906 C-5.36058105 7.7756543 -4.88668945 7.10501953 -4.3984375 6.4140625 C-3.98255371 5.8257666 -3.56666992 5.2374707 -3.13818359 4.63134766 C-2.07115334 3.1019834 -1.03440932 1.55161398 0 0 Z "
     fill="#F9F9F9"
     transform="translate(1413,45)"
     id="path14"
     style="fill:#333333;fill-opacity:1;filter:url(#filter16)" />
  <path
     d="M0 0 C3.54208647 2.67350526 6.31740975 5.39471217 9.0625 8.875 C12.1650063 12.74924827 15.31266669 16.5622168 18.56152344 20.31469727 C20.11189634 22.10982767 21.64399421 23.91947555 23.17578125 25.73046875 C24.84837145 27.69818892 26.52817468 29.52992651 28.35546875 31.36328125 C31.33213011 34.5181858 32.94777109 36.67627481 33.12280273 41.11239624 C33.01911377 42.29395294 32.9154248 43.47550964 32.80859375 44.69287109 C32.75330505 45.34639242 32.69801636 45.99991375 32.64105225 46.67323875 C31.92684323 54.6367649 30.8431025 62.55803967 29.75 70.4765625 C29.52922438 72.10219005 29.30885486 73.72787281 29.08886719 75.35360718 C28.6313336 78.72721449 28.17055065 82.10035452 27.70703125 85.47314453 C27.11400472 89.78858137 26.52686971 94.10479336 25.9418335 98.42131996 C25.37994281 102.56501438 24.81504365 106.70829707 24.25 110.8515625 C24.09017639 112.02657759 24.09017639 112.02657759 23.92712402 113.22533035 C23.62495816 115.44293296 23.32063604 117.66022856 23.015625 119.87744141 C22.75700684 121.76482529 22.75700684 121.76482529 22.49316406 123.69033813 C22.07670513 126.485226 21.58701621 129.23674758 21 132 C18.95697885 128.93546827 18.57561283 127.47262972 18.03817749 123.92066956 C17.87555923 122.87055695 17.71294098 121.82044434 17.5453949 120.73851013 C17.37492142 119.58673782 17.20444794 118.43496552 17.02880859 117.24829102 C16.8431987 116.03508179 16.65758881 114.82187256 16.46635437 113.57189941 C15.95886449 110.24419267 15.45813982 106.91560195 14.96055937 103.5864079 C14.4384441 100.10281375 13.90824688 96.6204496 13.37905884 93.13792419 C12.49143379 87.2885912 11.60954803 81.43841616 10.73144531 75.58764648 C9.71633487 68.82422318 8.69398313 62.06192752 7.66732728 55.30024773 C6.57437138 48.1017643 5.48595754 40.90260013 4.39928484 33.70316577 C4.08594127 31.62893121 3.77183439 29.55481336 3.45759201 27.4807148 C2.87220105 23.61472505 2.29198966 19.74796781 1.71240234 15.88110352 C1.5378804 14.73135544 1.36335846 13.58160736 1.18354797 12.39701843 C1.02656937 11.344086 0.86959076 10.29115356 0.70785522 9.20631409 C0.57034033 8.29210473 0.43282543 7.37789537 0.29114342 6.4359827 C0 4 0 4 0 0 Z "
     fill="#F7F7F7"
     transform="translate(1443,0)"
     id="path15"
     style="fill:#191919;fill-opacity:1;filter:url(#filter15)" />
  <path
     d="M0 0 C0.99 0 1.98 0 3 0 C2.52975147 20.78966136 1.59986684 41.55721847 0.60116959 62.32692719 C0.50025368 64.43220789 0.40043385 66.53753812 0.3008728 68.6428833 C0.11072079 72.65664796 -0.08485105 76.67012981 -0.28125 80.68359375 C-0.33854782 81.89195389 -0.39584564 83.10031403 -0.45487976 84.34529114 C-0.76693684 90.60079442 -1.22873171 96.78392515 -2 103 C-5.29509147 99.21573376 -6.90011896 94.82853509 -8.765625 90.23828125 C-9.30035431 88.94219185 -9.30035431 88.94219185 -9.84588623 87.61991882 C-10.98599439 84.85296592 -12.11812107 82.08282798 -13.25 79.3125 C-13.99556599 77.49913188 -14.74165488 75.68597866 -15.48828125 73.87304688 C-16.59479759 71.18602294 -17.69907968 68.49820755 -18.79577637 65.80715942 C-20.52673296 61.56072638 -22.28005874 57.32851159 -24.10742188 53.12255859 C-24.43522644 52.35815964 -24.76303101 51.59376068 -25.10076904 50.80619812 C-25.70899278 49.39141383 -26.32676821 47.98067727 -26.95635986 46.57527161 C-28.81132022 42.22702224 -29.42645141 38.71122103 -29 34 C-27.34765625 31.515625 -27.34765625 31.515625 -25.0625 29.25 C-21.75409848 25.8280496 -18.61045285 22.39637181 -15.625 18.6875 C-14.8928125 17.78773437 -14.160625 16.88796875 -13.40625 15.9609375 C-12.13018988 14.39072067 -10.85453412 12.82017131 -9.58203125 11.24707031 C-8.1051696 9.42812719 -6.61626053 7.61964695 -5.125 5.8125 C-4.6604541 5.2352417 -4.1959082 4.6579834 -3.71728516 4.06323242 C-2.54419144 2.65127055 -1.27797858 1.31778447 0 0 Z "
     fill="#F8F8F8"
     transform="translate(29,0)"
     id="path16"
     style="fill:#1a1a1a;fill-opacity:1;filter:url(#filter14)" />
  <path
     d="M0 0 C0.33 0 0.66 0 1 0 C1.33 18.15 1.66 36.3 2 55 C1.34 55 0.68 55 0 55 C-0.33 38.83 -0.66 22.66 -1 6 C-1.99 6.495 -1.99 6.495 -3 7 C-1.125 1.125 -1.125 1.125 0 0 Z "
     fill="#C6C6C6"
     transform="translate(180,109)"
     id="path17"
     style="fill:#666666;fill-opacity:1;filter:url(#filter13)" />
  <path
     d="M0 0 C1.17384473 4.01801277 0.71468697 7.10669452 0.0625 11.25 C-0.13214844 12.51328125 -0.32679687 13.7765625 -0.52734375 15.078125 C-0.76130859 16.52445313 -0.76130859 16.52445313 -1 18 C-1.99 18 -2.98 18 -4 18 C-5.68550367 14.62899267 -3.68863036 11.27985368 -2.5625 7.875 C-2.19801758 6.74384766 -2.19801758 6.74384766 -1.82617188 5.58984375 C-1.22404181 3.72442121 -0.61286537 1.86192317 0 0 Z "
     fill="#C9C9C9"
     transform="translate(1148,184)"
     id="path18"
     style="fill:#999999;fill-opacity:1;filter:url(#filter12)" />
  <path
     d="M0 0 C2.00993705 3.01490557 2.72623341 5.2149927 3.625 8.6875 C3.88539062 9.68136719 4.14578125 10.67523438 4.4140625 11.69921875 C4.60742188 12.45847656 4.80078125 13.21773437 5 14 C4.34 14 3.68 14 3 14 C3 15.98 3 17.96 3 20 C2.67 20 2.34 20 2 20 C1.34 13.4 0.68 6.8 0 0 Z "
     fill="#CACACA"
     transform="translate(97,110)"
     id="path19"
     style="fill:#4d4d4d;fill-opacity:1;filter:url(#filter11)" />
  <path
     d="M0 0 C0.33 0 0.66 0 1 0 C1.33 3.96 1.66 7.92 2 12 C-1 9 -1 9 -2 6 C-1.34 6 -0.68 6 0 6 C0 4.02 0 2.04 0 0 Z "
     fill="#C6C6C6"
     transform="translate(156,292)"
     id="path20"
     style="fill:#4d4d4d;fill-opacity:1;filter:url(#filter10)" />
  <path
     d="M0 0 C0.66 0 1.32 0 2 0 C1.34 2.97 0.68 5.94 0 9 C-0.33 9 -0.66 9 -1 9 C-1.09765625 2.84765625 -1.09765625 2.84765625 -1 1 C-0.67 0.67 -0.34 0.34 0 0 Z "
     fill="#E4E4E4"
     transform="translate(944,510)"
     id="path21"
     style="filter:url(#filter9)" />
  <path
     d="M0 0 C2.07703891 4.15407782 2.31513157 4.8354167 1 9 C0.34 9.66 -0.32 10.32 -1 11 C-0.67 7.37 -0.34 3.74 0 0 Z "
     fill="#C1C1C1"
     transform="translate(1160,418)"
     id="path22"
     style="filter:url(#filter8)" />
  <path
     d="M0 0 C1 4 1 4 1 4 Z "
     fill="#898989"
     transform="translate(28,152)"
     id="path23"
     style="filter:url(#filter7)" />
  <path
     d="M0 0 C1 4 1 4 1 4 Z "
     fill="#8F8F8F"
     transform="translate(32,68)"
     id="path24"
     style="filter:url(#filter6)" />
  <path
     d=""
     fill="#7C7C7C"
     transform="translate(0,0)"
     id="path25"
     style="filter:url(#filter5)" />
  <path
     d=""
     fill="#767676"
     transform="translate(0,0)"
     id="path26"
     style="filter:url(#filter4)" />
  <path
     d=""
     fill="#848484"
     transform="translate(0,0)"
     id="path27"
     style="filter:url(#filter3)" />
  <path
     d=""
     fill="#909090"
     transform="translate(0,0)"
     id="path28"
     style="filter:url(#filter2)" />
  <path
     d=""
     fill="#9D9D9D"
     transform="translate(0,0)"
     id="path29"
     style="filter:url(#filter1)" />
</svg>
