<?xml version="1.0" encoding="UTF-8"?>
<svg version="1.1" xmlns="http://www.w3.org/2000/svg" width="1156" height="808">
<path d="M0 0 C0.66 0.33 1.32 0.66 2 1 C1.55269531 1.51046875 1.10539063 2.0209375 0.64453125 2.546875 C-11.3124652 16.92586433 -12.82556134 33.84654286 -13.9375 51.8125 C-15.1542825 70.89824048 -17.08440089 91.97250692 -31.98828125 105.8515625 C-42.97609606 114.2355422 -56.18233951 119.97115763 -69 125 C-67.23174858 126.14981374 -65.46030479 127.29471922 -63.6875 128.4375 C-62.70136719 129.07558594 -61.71523438 129.71367187 -60.69921875 130.37109375 C-54.52593692 134.09650406 -47.3018711 133.80580771 -40.3515625 132.50390625 C-35.31453397 131.02291946 -33.09250998 129.32951398 -30 125 C-26.32353502 121.33352542 -23.17461697 119.66538264 -17.9375 119.5 C-13.70083118 119.70698229 -10.62792426 120.70867941 -7 123 C-10 124 -10 124 -12.1875 123 C-16.13416472 121.59674143 -19.16161315 121.3845398 -23 123 C-25.72045881 125.36305696 -28.11395147 127.86257493 -30.5078125 130.5546875 C-36.8942539 136.82100774 -44.32465396 137.34560399 -52.8515625 137.29296875 C-58.89964639 136.73018179 -63.99370025 134.33753317 -69 131 C-73.61278847 129.9749359 -76.85696221 129.51417732 -81 132 C-82.27489266 133.79927039 -82.27489266 133.79927039 -83 136 C-83.33902344 136.74378906 -83.67804687 137.48757812 -84.02734375 138.25390625 C-86.78720272 146.04579723 -85.47867359 154.85007589 -82.375 162.33984375 C-79.80370082 167.31443108 -76.4480318 171.60599843 -73 176 C-65.24397809 185.90719003 -58.53160227 195.67648476 -53 207 C-52.41605469 206.21689453 -52.41605469 206.21689453 -51.8203125 205.41796875 C-37.60552729 186.71602784 -18.9908023 169.36883912 5 165 C7.74802758 164.66740667 10.48543173 164.49870077 13.25 164.375 C13.98871338 164.33415283 14.72742676 164.29330566 15.48852539 164.2512207 C19.82430963 164.03054975 24.09648781 164.03587344 28.4375 164.1875 C36.57022979 164.26569932 42.92915387 161.31199037 49 156 C49.66 156 50.32 156 51 156 C51.40798828 155.16855469 51.40798828 155.16855469 51.82421875 154.3203125 C52.62728892 152.73551623 53.46511337 151.16797901 54.33203125 149.6171875 C57.65356298 143.46490445 60.0135557 137.39688601 61.9375 130.6875 C62.16091064 129.9351709 62.38432129 129.1828418 62.61450195 128.40771484 C64.08726438 122.98981776 64.69309963 118.30899088 62.02026367 113.08520508 C60.78069373 111.03203338 59.47465795 109.0449296 58.125 107.0625 C52.91702809 99.32558496 49.53649692 93.06810662 49.8125 83.5 C49.83957031 82.2728125 49.86664062 81.045625 49.89453125 79.78125 C49.94673828 78.40453125 49.94673828 78.40453125 50 77 C50.33 77 50.66 77 51 77 C51.03867188 78.12535156 51.03867188 78.12535156 51.078125 79.2734375 C51.90331461 94.16435905 58.70497152 104.60944054 68 116 C68.53367187 115.49210937 69.06734375 114.98421875 69.6171875 114.4609375 C73.58206416 110.79788536 77.43943961 107.57710231 82.125 104.875 C91.00064101 99.74807693 96.10237594 94.87569614 98.87109375 84.84375 C100.20770283 79.26708437 101.33757187 73.69688189 102 68 C102.33 68 102.66 68 103 68 C103.58522923 77.55874405 102.33619655 89.30831898 96.55859375 97.24609375 C90.81593633 103.70838243 84.20673826 108.35896992 76.796875 112.75 C70.38746002 117.90617742 68.20325927 124.58525489 66.4375 132.375 C66.02112172 134.05833477 65.60058491 135.74064667 65.17578125 137.421875 C64.97549316 138.21658203 64.77520508 139.01128906 64.56884766 139.83007812 C62.35135441 148.28891075 58.68529064 154.38845415 53 161 C73.3431254 156.88433879 99.23970722 146.19218845 111.49609375 128.5234375 C116.86224556 119.5194529 121.54910941 110.22221678 124 100 C124.28697754 98.83637939 124.57395508 97.67275879 124.86962891 96.47387695 C128.05351254 83.12966776 129.84723301 69.65378374 131.625 56.0625 C132.2125021 51.57298365 132.81009445 47.08498365 133.4140625 42.59765625 C133.609431 41.06504906 133.609431 41.06504906 133.80874634 39.5014801 C133.99937149 38.08741127 133.99937149 38.08741127 134.19384766 36.64477539 C134.30169586 35.81748428 134.40954407 34.99019318 134.5206604 34.13783264 C135 32 135 32 137 29 C131.68018485 118.31570837 131.68018485 118.31570837 108 143 C106.35843434 144.36411794 104.69815963 145.7070153 103 147 C104.134375 147.17015625 105.26875 147.3403125 106.4375 147.515625 C120.15691402 149.68633171 120.15691402 149.68633171 124.6875 152.1875 C128.37370597 154.20448063 129.88239534 154.32693971 134 154 C137.05806574 153.09851924 137.05806574 153.09851924 140.1328125 151.77734375 C141.26847656 151.32166016 142.40414062 150.86597656 143.57421875 150.39648438 C145.94946355 149.42051745 148.32446205 148.44395086 150.69921875 147.46679688 C151.83230469 147.01240234 152.96539063 146.55800781 154.1328125 146.08984375 C155.16293457 145.66566162 156.19305664 145.24147949 157.25439453 144.80444336 C160.06765102 143.98017872 161.30820031 143.96069976 164 145 C163.44127197 145.22139648 162.88254395 145.44279297 162.30688477 145.67089844 C159.72466449 146.69536481 157.14358134 147.7226677 154.5625 148.75 C153.68400391 149.09804687 152.80550781 149.44609375 151.90039062 149.8046875 C147.62080184 151.51020628 143.39417291 153.26381808 139.21484375 155.203125 C134.67571048 157.21878748 131.08351831 158.74203515 126.203125 157.00390625 C125.22859375 156.52824219 124.2540625 156.05257812 123.25 155.5625 C117.61006475 153.24055418 112.83962164 152.49936751 106.75 152.5 C105.65220215 152.49141968 105.65220215 152.49141968 104.53222656 152.48266602 C95.30723826 152.68893261 87.9592124 156.36798461 80.0625 160.8125 C71.04535572 165.72280838 61.89982255 169.30111283 52 172 C51.34523682 172.1863501 50.69047363 172.3727002 50.01586914 172.56469727 C42.0521753 174.60300699 33.82965413 174.66075991 25.65551758 175.02905273 C3.22484833 176.0724027 -12.48167833 182.99938077 -28 199 C-28.845625 199.85980469 -29.69125 200.71960938 -30.5625 201.60546875 C-47.51774902 219.62042083 -57.41603173 244.23153573 -57.29296875 268.91796875 C-56.97696828 275.55718674 -55.75582372 285.24417628 -51 290 C-50.38125 288.93072266 -50.38125 288.93072266 -49.75 287.83984375 C-45.65988212 281.05645628 -41.27568767 274.63784383 -34 271 C-26.72983115 270.22297574 -21.03146458 271.64942344 -14.375 274.4375 C-4.60490917 278.75125258 -4.60490917 278.75125258 5.6875 278.06640625 C15.43534416 271.72701435 21.1356016 265.02284026 27.08203125 255.05078125 C32.86315032 245.85515193 41.94806083 239.3269664 52.56640625 236.8125 C54.93246242 236.29676263 57.2940994 235.82636745 59.6809082 235.41723633 C64.61997801 234.53143376 67.98399266 233.20672101 72 230 C73.86310322 227.39975951 73.86310322 227.39975951 75 225 C75.33 225.66 75.66 226.32 76 227 C72.0721565 233.09492957 70.08779014 236.06696633 63 238 C61.41710513 238.27338426 59.83372851 238.54398716 58.25 238.8125 C47.74023313 240.88928028 37.93512598 246.78352299 31.81591797 255.73144531 C30.2343509 258.27336805 28.73825421 260.85640222 27.2668457 263.46337891 C23.42598613 270.2236343 18.47153844 275.53038073 13 281 C34.75095876 278.87053551 54.40853339 276.84534014 71.875 262.5625 C84.39655932 252.34331975 98.593967 246.16579493 115 247 C115 247.33 115 247.66 115 248 C113.87722656 248.17015625 112.75445313 248.3403125 111.59765625 248.515625 C95.38415058 251.08528534 81.96283664 257.09574228 70 268.625 C60.38779534 277.60998087 45.31230458 284 32 284 C32 284.66 32 285.32 32 286 C32.66 286 33.32 286 34 286 C35.34068424 288.68136848 35.32735049 291.14158281 35.625 294.125 C36.7985846 301.94314448 39.78783278 305.63026622 45.81640625 310.453125 C56.98685692 318.1954833 70.90259649 319.29164302 84 321 C84 321.33 84 321.66 84 322 C68.46892979 322.88842986 51.48027408 319.90225553 39.4375 309.5625 C34.46438369 304.99768552 31.97819005 300.26046645 30.8125 293.625 C30.65394531 292.75101562 30.49539063 291.87703125 30.33203125 290.9765625 C30.22246094 290.32429688 30.11289062 289.67203125 30 289 C23.13226905 287.23886199 16.75804778 286.70457749 9.6875 286.5625 C0.16175032 286.25249263 -8.12989738 285.1006477 -17.1328125 281.87890625 C-24.93944167 278.88570181 -24.93944167 278.88570181 -33 280 C-38.66007471 286.14548565 -45.86506311 295.18977638 -46.06640625 303.859375 C-45.68238117 305.60735122 -45.23857525 307.34305378 -44.7421875 309.0625 C-41.46109856 322.04870465 -44.80057915 334.49971761 -51.125 345.9375 C-55.24950215 352.69070846 -60.03489462 358.85426696 -65 365 C-65.87785156 366.12921875 -65.87785156 366.12921875 -66.7734375 367.28125 C-71.64470995 373.26935077 -77.74447599 377.56258395 -84 382 C-72.26866831 386.7328489 -60.46515252 391.28174775 -48.65769958 395.82051086 C-44.98779891 397.23158701 -41.32359143 398.65602616 -37.6640625 400.09375 C12.16105212 419.41131358 64.03753243 422.92236385 113.6875 401.609375 C127.49034716 395.42906877 139.34299857 387.84669685 150.328125 377.3984375 C152 376 152 376 154 376 C154.2578125 375.41863281 154.515625 374.83726562 154.78125 374.23828125 C156.10214491 371.81240694 157.5866152 370.17538134 159.5 368.1875 C171.59175704 354.84487154 182.69369273 337.93964606 184.1875 319.875 C184.32961914 318.40160156 184.32961914 318.40160156 184.47460938 316.8984375 C185.68450582 303.07528933 185.68450582 303.07528933 180 291 C179.67 290.01 179.34 289.02 179 288 C177.67661368 287.31379969 176.34130719 286.65047464 175 286 C173.51474752 284.67672515 172.08042375 283.29513896 170.6875 281.875 C169.89988281 281.07578125 169.11226562 280.2765625 168.30078125 279.453125 C166.22628297 277.24126606 164.29737383 274.96829993 162.375 272.625 C159.20338908 268.91010388 156.54278594 267.68251331 152 266 C147.94016365 263.25961046 144.99615591 259.78917776 141.8359375 256.09765625 C138.22319362 251.9699042 134.57302514 248.04868343 130 245 C130 244.34 130 243.68 130 243 C129.01 242.67 128.02 242.34 127 242 C121.82046778 235.62519111 118.72985255 228.83199084 116.5625 220.9375 C114.71590937 214.44920613 111.15917411 209.25369362 107 204 C113.35767016 206.83168178 116.26100813 211.91139566 118.73046875 218.25 C119.32489487 219.83161869 119.91462652 221.41500852 120.5 223 C124.51415746 233.72747112 128.88272457 239.44558378 138.16357422 246.26904297 C142.27508487 249.31737511 145.62257471 252.58669011 148.828125 256.6015625 C149.21484375 257.06304687 149.6015625 257.52453125 150 258 C150.33 258 150.66 258 151 258 C150.66226563 257.29875 150.32453125 256.5975 149.9765625 255.875 C144.58138582 244.39855482 141.1762608 231.35764917 144.875 218.6875 C147.91491265 212.12538087 154.05768721 206.32356172 159.65625 201.90234375 C166.97071511 195.96543624 169.84179119 186.03402871 171 177 C171.33 177 171.66 177 172 177 C172.99567826 185.56283303 169.18993167 194.36445279 164.25 201.25 C161.80793121 204.25659897 159.08306207 206.92179357 156.3125 209.625 C150.69893975 215.11591103 148.08495793 220.19380872 147.9453125 228.09375 C148.68110793 242.04187207 153.21685192 252.24821528 162 263 C162.59039063 263.73089844 163.18078125 264.46179688 163.7890625 265.21484375 C168.29294088 270.5721968 173.39022142 275.10298025 178.83984375 279.4765625 C180.25562021 280.61584614 181.63238153 281.80333383 183 283 C183 283.66 183 284.32 183 285 C183.99 285.33 184.98 285.66 186 286 C186 286.66 186 287.32 186 288 C186.66 288 187.32 288 188 288 C190.87342425 293.36372526 192.61960543 298.08047013 194 304 C194.34611328 302.80963135 194.34611328 302.80963135 194.69921875 301.59521484 C212.22192198 241.59034523 212.22192198 241.59034523 229 219 C229.79083984 217.85724609 229.79083984 217.85724609 230.59765625 216.69140625 C231.29181641 215.85416016 231.29181641 215.85416016 232 215 C232.66 215 233.32 215 234 215 C234.37705078 214.13955078 234.37705078 214.13955078 234.76171875 213.26171875 C245.07634124 194.42207704 274.06932504 183.41206395 293 176 C294.04043457 175.59120605 295.08086914 175.18241211 296.15283203 174.76123047 C299.45107571 173.47327092 302.75508036 172.20169558 306.0625 170.9375 C307.64321289 170.32745117 307.64321289 170.32745117 309.25585938 169.70507812 C310.23490234 169.33705078 311.21394531 168.96902344 312.22265625 168.58984375 C313.09672119 168.25847412 313.97078613 167.92710449 314.87133789 167.58569336 C317 167 317 167 319 168 C312.59814802 171.31052512 306.10435922 174.29815356 299.48510742 177.14672852 C281.17227956 185.05629216 264.06985542 193.79665992 249 207 C248.01386719 207.86109375 247.02773438 208.7221875 246.01171875 209.609375 C238.64425406 216.49790354 233.66837876 224.16253433 229 233 C228.53376221 233.86383301 228.06752441 234.72766602 227.5871582 235.61767578 C223.79603272 242.87211125 220.95519493 250.28991052 218.43969727 258.06347656 C217.81197293 260.00162737 217.1698494 261.93454435 216.52539062 263.8671875 C214.00294464 271.50112589 211.81862068 279.1676246 210 287 C210.59441895 286.54939209 211.18883789 286.09878418 211.80126953 285.63452148 C216.93490797 281.74289234 219.94441902 279.51637749 226.50390625 279.58984375 C231.11868415 280.34814059 234.35698441 283.22377088 238 286 C239.57457338 287.09602657 241.15779744 288.17974463 242.75 289.25 C243.44609375 289.72953125 244.1421875 290.2090625 244.859375 290.703125 C252.45608981 295.30551426 261.09805988 296.1583532 269.63671875 294.140625 C272.24065498 293.45224279 274.82500916 292.71734273 277.4140625 291.97265625 C280.60965342 291.10587832 283.72697289 290.4783655 287 290 C284.34352515 292.65647485 281.72690752 293.32092773 278.1875 294.5625 C276.96417969 294.99691406 275.74085938 295.43132812 274.48046875 295.87890625 C264.41965783 299.11959394 253.78119801 299.32043065 244 295 C239.72873469 292.52861958 235.83289149 289.64591585 231.9375 286.625 C228.19019209 284.55202116 225.1145417 283.83652472 221 285 C217.98590768 287.01122161 215.50861243 289.39661777 213 292 C211.68409365 293.35053546 210.35921586 294.69306167 209 296 C208.34 296 207.68 296 207 296 C206.81566406 296.86496094 206.63132812 297.72992188 206.44140625 298.62109375 C196.2123359 343.03799033 173.98035782 383.90513234 135 409 C125.32968717 414.80931569 114.71551104 420.42816299 104 424 C104.27972656 424.6703125 104.55945313 425.340625 104.84765625 426.03125 C106.43408068 430.11830954 107.74424206 434.2911971 109.05664062 438.47265625 C110.30093393 442.31019635 111.68206927 445.68690434 114 449 C118.83334775 451.41667387 124.99810333 450.54994337 130.04296875 449.1640625 C138.03352896 446.08361367 144.75384676 441.47703155 150.65234375 435.2578125 C152 434 152 434 154 434 C154.25394531 433.41734375 154.50789062 432.8346875 154.76953125 432.234375 C156.13320333 429.75811967 157.64225203 428.19479374 159.6875 426.25 C164.76768728 421.29865805 169.37386915 416.02882088 173.8125 410.5 C174.534375 409.675 175.25625 408.85 176 408 C176.66 408 177.32 408 178 408 C178.21140625 407.44957031 178.4228125 406.89914062 178.640625 406.33203125 C180.4818028 403.17345899 182.98962359 401.01896199 185.75 398.6875 C186.31984619 398.20547119 186.88969238 397.72344238 187.47680664 397.22680664 C194.27490992 391.68593123 201.89220582 387.65957212 210.24609375 384.9453125 C213.96194615 383.66980005 215.53022475 382.05472202 218 379 C219.05088372 376.78993537 219.97103502 374.57909667 220.8125 372.28125 C223.686402 366.76033299 228.23266387 364.07023726 233.6875 361.4375 C234.29891846 361.14230469 234.91033691 360.84710938 235.5402832 360.54296875 C249.96877333 353.65625778 249.96877333 353.65625778 254 355 C253.03175293 355.43082886 253.03175293 355.43082886 252.04394531 355.87036133 C249.11028443 357.17922136 246.18013645 358.49576993 243.25 359.8125 C242.23421875 360.26431641 241.2184375 360.71613281 240.171875 361.18164062 C239.1921875 361.62314453 238.2125 362.06464844 237.203125 362.51953125 C236.30239258 362.92276611 235.40166016 363.32600098 234.47363281 363.74145508 C231.96068567 364.93001474 231.96068567 364.93001474 229.79980469 366.6550293 C228 368 228 368 226 368 C225.773125 368.78375 225.54625 369.5675 225.3125 370.375 C223.59339067 375.12301625 221.31915279 379.52102552 219 384 C219.58265625 384.07476562 220.1653125 384.14953125 220.765625 384.2265625 C231.99278519 386.0271448 240.66628698 391.58978109 249.62548828 398.23608398 C261.65827008 407.0118597 273.00727612 411.21735792 288 410 C290.90208127 408.98978184 292.53260535 407.89358194 295 406 C295.66 405.67 296.32 405.34 297 405 C295.36817037 408.77063545 293.53485624 410.48367951 289.734375 412.23828125 C279.32533807 415.13794154 267.68287817 413.46345793 258.21875 408.55859375 C253.20818558 405.71707629 248.38745345 402.60727546 243.57592773 399.44580078 C234.6050144 393.57074616 226.13393546 388.87995274 215.078125 390.40234375 C203.22515958 392.94441375 195.61020274 399.83276589 187 408 C186.23945312 408.71929687 185.47890625 409.43859375 184.6953125 410.1796875 C181.23048557 413.54298104 178.18593426 416.62813147 176 421 C176.66 420.67 177.32 420.34 178 420 C185.12329367 419.23678996 190.05210477 421.05059757 196 425 C198.11094745 426.9143974 200.05120568 428.9255012 202.00390625 431 C206.71901969 435.72434067 212.13224201 439.78351782 218.9765625 440.17578125 C222.88098891 439.83659363 226.36729065 438.39534531 230 437 C240.95256917 433.1027668 240.95256917 433.1027668 247 435 C249.9375 437.5625 249.9375 437.5625 252 440 C250 439 248 438 246 437 C240.07657377 436.59584299 236.01607789 437.47660773 230.625 440 C224.69210329 442.53289901 219.45444106 444.59731117 213 443 C207.03880328 440.45744485 202.29040207 436.46177733 197.375 432.3125 C190.30451599 426.42420203 190.30451599 426.42420203 181.49609375 425.17578125 C172.01812002 426.80017317 167.41009781 430.22934425 161.734375 437.91796875 C161.16203125 438.60503906 160.5896875 439.29210937 160 440 C159.34 440 158.68 440 158 440 C157.67 440.99 157.34 441.98 157 443 C142.946593 456 142.946593 456 138 456 C138.42410156 456.46148437 138.84820313 456.92296875 139.28515625 457.3984375 C143.43557469 462.01406767 146.97842589 466.76579703 150.32421875 471.99609375 C151.84093883 474.11419378 151.84093883 474.11419378 154.0625 474.89453125 C156.22474625 475.22142202 156.22474625 475.22142202 158.3125 473.25 C160.74056416 470.59917766 162.50760759 467.62468934 164.375 464.5625 C167.38776984 459.66261059 170.42529492 456.45436914 175 453 C175.66 453.33 176.32 453.66 177 454 C176.01 454.70125 175.02 455.4025 174 456.125 C169.71064689 459.74305191 167.35047232 464.17719985 164.75390625 469.06103516 C163.10398818 472.15463154 161.54986239 474.60490583 159 477 C167.38914204 476.73395955 173.49045064 473.67942321 180.875 469.875 C183.09705881 468.73854658 185.32343503 467.6104827 187.5546875 466.4921875 C188.52905762 465.99058105 189.50342773 465.48897461 190.50732422 464.97216797 C193 464 193 464 196 465 C190.34045367 468.01360994 184.67388193 471.0134701 179 474 C177.97390625 474.54140625 176.9478125 475.0828125 175.890625 475.640625 C169.12129468 479.13040398 162.78506522 481.84927984 155 481 C150.01224598 478.22379729 147.15023436 474.99271666 143.9375 470.4375 C141.03070013 466.3275697 138.44945625 463.4824952 134 461 C134 460.34 134 459.68 134 459 C133.15179687 459.32226562 132.30359375 459.64453125 131.4296875 459.9765625 C124.53850215 462.03292988 116.09804553 462.41982081 109.4375 459.375 C102.85979033 455.8203024 100.01428486 449.45408725 97.6875 442.75 C97.42388672 442.03070313 97.16027344 441.31140625 96.88867188 440.5703125 C95 435.33108766 95 435.33108766 95 433 C83.50499221 432.67305623 72.73638554 432.87532409 61.47265625 435.265625 C42.25955895 439.3286872 22.07789706 436.87679178 2.84179688 434.36376953 C-1.10052522 433.85912521 -5.04844653 433.42574269 -9 433 C-8.27296875 433.88558594 -7.5459375 434.77117187 -6.796875 435.68359375 C0.3486608 444.45971897 6.9789546 453.4932558 13.44384766 462.77783203 C24.62710198 478.74739288 36.27632049 494.22475047 49 509 C49.61488281 509.72832031 50.22976563 510.45664062 50.86328125 511.20703125 C65.26716086 528.08604052 81.98179712 542.2937627 105.02099609 544.1640625 C130.78586502 545.61254424 153.78464557 537.03179142 173 520 C173.66 520 174.32 520 175 520 C175 519.34 175 518.68 175 518 C176.71484375 516.34375 176.71484375 516.34375 178.9375 514.5 C181.92045179 512.11073001 181.92045179 512.11073001 184 509 C184.66 509 185.32 509 186 509 C186.27239502 508.40541992 186.54479004 507.81083984 186.82543945 507.19824219 C187.97029488 505.05559444 189.12644698 503.57993363 190.79296875 501.828125 C191.33783936 501.24949707 191.88270996 500.67086914 192.4440918 500.07470703 C193.0194165 499.47255371 193.59474121 498.87040039 194.1875 498.25 C195.36561412 497.00357765 196.54270474 495.75618708 197.71875 494.5078125 C198.28464844 493.90743164 198.85054687 493.30705078 199.43359375 492.68847656 C201.96386244 489.96102359 204.36104593 487.12511404 206.73046875 484.2578125 C208 483 208 483 210 483 C210 482.34 210 481.68 210 481 C211.90551122 479.45802033 213.79109513 478.06315086 215.8125 476.6875 C216.69023071 476.08518555 216.69023071 476.08518555 217.58569336 475.47070312 C229.26582607 467.64708386 240.05421615 464.739694 254 466 C257.95731876 466.86028669 261.37992327 468.20127437 265 470 C265.804375 470.38929688 266.60875 470.77859375 267.4375 471.1796875 C276.38322594 476.02528905 283.62459638 483.50287944 290.66796875 490.7421875 C292.61343692 492.6257396 294.12108447 493.85621029 296.5 495.0625 C298.85834554 496.31282975 300.44774458 497.3917765 302.5 499.1875 C305.93531961 501.67810671 307.72019267 502.06793345 312 502 C315.07310914 500.93800038 317.98867016 499.69275813 320.9375 498.32421875 C324 497 324 497 327.16015625 496.265625 C332.79294782 494.73946491 337.56453411 491.16176898 342.4375 488.0625 C360.42692613 476.64635676 360.42692613 476.64635676 369 478 C374.11426932 480.57126248 378.26978085 484.18879983 382.4375 488.0625 C394.40638224 498.93007884 407.6826381 499.34207508 423 499 C415.28211443 503.35594021 403.54059534 501.94768251 395.14453125 500.1953125 C387.20926427 497.44593684 381.92019821 492.80114487 376 487 C372.39435096 483.82500225 369.15036706 482.26205247 364.18359375 482.5625 C354.80956634 484.44065934 346.61042566 491.52478781 339 497 C343.02736509 499.68491006 347.25826439 501.97971624 351.48046875 504.34375 C352.31191406 504.8903125 353.14335938 505.436875 354 506 C354 506.66 354 507.32 354 508 C354.59079346 508.26627197 355.18158691 508.53254395 355.7902832 508.80688477 C358.04941613 510.02668176 359.54245566 511.2842643 361.35546875 513.08984375 C361.97301025 513.70327637 362.59055176 514.31670898 363.22680664 514.94873047 C363.87383545 515.60502441 364.52086426 516.26131836 365.1875 516.9375 C365.86095459 517.61699707 366.53440918 518.29649414 367.22827148 518.99658203 C372.52412683 524.39755179 377.31911539 530.06006557 382 536 C384.90363626 539.56240663 387.83415347 543.10267804 390.76220703 546.64501953 C393.48607423 549.94217692 396.20283592 553.24276971 398.875 556.58203125 C404.56260391 563.64787084 409.75443127 569.92446416 419 572 C424.75189354 572.28288001 430.2971234 571.73926178 436 571 C429.9308114 575.04612574 423.09688593 574.58073194 416 574 C401.85952991 570.41030948 390.04665674 552.70737557 380.82421875 542.078125 C361.42742237 517.80301749 361.42742237 517.80301749 335.0390625 504.66015625 C327.99869594 504.32372848 323.42724536 505.31993457 317.35546875 508.81640625 C313.72550894 510.6404159 310.03996751 511.11566369 306 511 C305.01 510.67 304.02 510.34 303 510 C303.30180176 510.5576001 303.60360352 511.1152002 303.91455078 511.68969727 C315.61243565 533.39745731 322.56542019 554.33692275 328.56640625 578.2265625 C336.0398333 607.83683765 347.81437384 636.61245366 375.14916992 653.33447266 C388.99932763 661.39309002 403.15960348 664.75485157 419 662 C419.33 662.66 419.66 663.32 420 664 C405.19845225 668.83315845 390.43292105 665.9222882 376.8125 659.25 C370.65292231 656.10359582 365.18756058 652.60577808 360 648 C358.70255859 646.88044922 358.70255859 646.88044922 357.37890625 645.73828125 C353.19712738 642.06632738 349.28385293 638.52375163 346 634 C346 633.34 346 632.68 346 632 C345.34 632 344.68 632 344 632 C328.03282305 613.65932378 321.91334301 588.33076488 315.37548828 565.56518555 C315.16677597 564.84025406 314.95806366 564.11532257 314.74302673 563.36842346 C314.35031079 562.00134503 313.95998846 560.63357578 313.57252502 559.26499939 C312.56491302 555.75195988 311.42515712 552.36592476 310 549 C296.5898351 573.17653872 296.5898351 573.17653872 297.1875 599.75 C298.15223517 602.21489836 299.25364985 604.46135802 300.53125 606.78515625 C304.31033922 613.69268961 306.49870807 619.1016991 305 627 C303.65946981 631.17381193 302.12027351 635.1578074 300 639 C299.34 639.33 298.68 639.66 298 640 C298.4908214 636.85874304 299.32926844 634.158565 300.5625 631.25 C302.69545384 625.53368371 303.16101752 620.85997316 300.828125 615.11328125 C298.87186403 611.17554976 296.83918181 607.32707821 294.48828125 603.609375 C289.6791391 595.50686617 289.53429231 586.07393194 291.41601562 576.9921875 C293.59413426 568.68337973 297.26317331 560.75213593 300.765625 552.92578125 C303.50511728 546.432491 304.90861409 538.77330573 302.21044922 532.02539062 C300.55505139 528.63178448 298.68375876 525.39308048 296.75 522.15234375 C295 519 295 519 295 516 C294.34 516 293.68 516 293 516 C291.48360285 513.9652274 290.07224849 511.93425513 288.6875 509.8125 C285.78549502 505.37791998 282.77464208 501.76128052 279 498 C279 497.34 279 496.68 279 496 C278.42378906 495.74863281 277.84757813 495.49726563 277.25390625 495.23828125 C274.71780865 493.84496593 273.00446921 492.20810728 270.9375 490.1875 C264.59760637 484.44295058 256.71124208 480.15555789 248 480 C233.93588142 481.04663208 223.74351784 489.31102273 214.6875 499.63671875 C212.4201254 502.39614513 210.20392359 505.1897059 208 508 C190.65126483 529.57277504 190.65126483 529.57277504 182 537 C181.34 537 180.68 537 180 537 C180 537.66 180 538.32 180 539 C159.09906347 557.9624011 130.89463028 566.88275576 102.921875 566.29296875 C92.97913059 565.55023386 83.34460623 563.50422734 74 560 C74.144375 560.7528125 74.28875 561.505625 74.4375 562.28125 C77.54554102 580.0661514 76.05239304 594.6026425 69.5625 611.3125 C67.3869652 617.55016617 68.50974468 622.02338722 71 628 C71.391875 628.969375 71.78375 629.93875 72.1875 630.9375 C75.91713339 635.18156559 80.13768582 636.86683768 85.71484375 637.265625 C90.37543528 637.16439017 94.46771594 635.85122838 98.875 634.4375 C109.74763672 631.25472652 116.31813532 631.57552619 126.66210938 636.77294922 C132.42262673 639.92924583 137.0253317 644.14739825 141.671875 648.7421875 C143.78407501 651.01772372 143.78407501 651.01772372 146 652 C146 652.66 146 653.32 146 654 C146.58523438 654.27714844 147.17046875 654.55429687 147.7734375 654.83984375 C149.88263882 655.93884865 151.69189437 657.18464811 153.625 658.5625 C158.22792884 661.51532228 162.62314475 661.87880039 168 662 C166 664 166 664 164.1171875 664.1171875 C153.76255852 662.99874326 148.30249 658.57426203 140.796875 651.53515625 C131.80349624 643.38333668 121.18005435 636.57507786 108.6875 636.63671875 C105.37619082 637.08432304 102.65297085 638.17288516 99.5625 639.4375 C90.95792894 642.94936563 84.18904123 644.07542826 75.26953125 641.02734375 C71.36042404 639.25781673 67.96395688 636.92791377 66 633 C65.34967561 645.23573297 67.46321906 656.09804659 75 666 C83.26475943 674.98673842 93.91368812 676.72037237 105.671875 677.23828125 C107.40618674 677.30631951 109.14056558 677.37266431 110.875 677.4375 C140.07489912 678.59043931 165.50614005 683.53112363 186.296875 705.41796875 C193.0294552 713.09078859 197.61349368 721.84829618 202 731 C202.47421387 731.97356445 202.47421387 731.97356445 202.95800781 732.96679688 C205.12124726 737.63625823 205.12124726 737.63625823 204 741 C203.70867188 740.42145264 203.41734375 739.84290527 203.1171875 739.24682617 C193.77905896 720.7999846 185.297805 705.65374382 167 695 C166.33097656 694.608125 165.66195312 694.21625 164.97265625 693.8125 C150.86689961 686.17809472 135.13717206 685.1261846 119.44921875 684.765625 C118.68365662 684.7474321 117.91809448 684.7292392 117.1293335 684.710495 C113.25263637 684.6221271 109.37704033 684.55394148 105.49951172 684.5168457 C92.03022505 684.32495445 79.78128916 682.50338598 69.703125 672.78515625 C66.31491743 669.06925707 63.50862311 665.36515765 61 661 C56.75647279 676.93848611 55.34461496 694.72492414 63.3125 709.8125 C65.09212524 712.75697086 67.083547 715.46775588 69.1875 718.1875 C72.68845489 722.77122444 74.26804318 726.48739856 73.875 732.3125 C73.18909329 737.29167464 71.262362 741.54893429 69 746 C67.74420295 742.23260884 68.88401837 740.72982679 70.2734375 737.171875 C71.4438019 733.67336637 71.83039214 730.57136134 71 727 C68.94542832 722.98264164 66.21305176 719.51928787 63.40625 716.00390625 C52.95673586 702.75541511 51.5634327 686.34211655 53 670 C53.65294855 666.17929641 54.55650915 662.44586959 55.66455078 658.73217773 C57.43262809 652.60114149 56.54980622 648.05447899 55.4375 641.875 C54.12075962 630.21244233 54.99647429 619.38354602 58.46875 608.2109375 C63.41611934 592.210026 64.50895708 579.18474996 60.046875 562.85546875 C59 559 59 559 58.453125 555.98828125 C57.40463035 550.80140998 55.88028729 548.54568487 51.5 545.5625 C50.53578125 544.93472656 49.5715625 544.30695312 48.578125 543.66015625 C43.61746409 540.19664475 39.49268369 535.78486482 35.25 531.5 C34.44626953 530.69248291 33.64253906 529.88496582 32.81445312 529.05297852 C28.56051295 524.73526443 24.45769898 520.32958509 20.50146484 515.73779297 C18.61177195 513.55066549 16.64962497 511.43464293 14.6875 509.3125 C9.89444298 503.99951815 5.56693452 498.37501206 1.26171875 492.66894531 C-2.45578247 487.75160044 -6.23210575 482.8787588 -10 478 C-10.45020508 477.41541016 -10.90041016 476.83082031 -11.36425781 476.22851562 C-16.67198417 469.34744081 -22.05740261 462.63954983 -27.9453125 456.23828125 C-29.88102603 454.12960473 -31.75819976 451.98213672 -33.625 449.8125 C-39.13267876 443.08080469 -39.13267876 443.08080469 -46 438 C-46 437.34 -46 436.68 -46 436 C-46.55171875 435.75378906 -47.1034375 435.50757813 -47.671875 435.25390625 C-50.45521361 433.75482622 -52.7496488 431.87424745 -55.25 429.9375 C-71.16452101 418.46652259 -93.13219644 413.33680971 -112 409 C-112.78785889 408.81155518 -113.57571777 408.62311035 -114.38745117 408.42895508 C-120.88693782 407.24382524 -124.90195615 409.40249823 -130.4375 412.6875 C-132.09816992 413.62221345 -133.76091459 414.55325097 -135.42578125 415.48046875 C-136.60648193 416.1444165 -136.60648193 416.1444165 -137.81103516 416.82177734 C-141.21452064 418.65372258 -144.73687239 420.01967903 -148.3828125 421.28125 C-150.20865057 421.88754509 -150.20865057 421.88754509 -151 424 C-149.72286133 424.14731567 -149.72286133 424.14731567 -148.41992188 424.29760742 C-144.59493578 425.08319316 -141.74059903 426.43292739 -138.28125 428.23828125 C-137.66028442 428.56032028 -137.03931885 428.88235931 -136.39953613 429.2141571 C-135.09325311 429.89365946 -133.78903677 430.57714822 -132.48681641 431.2644043 C-130.51015836 432.30714121 -128.5272922 433.33717287 -126.54296875 434.36523438 C-114.69492458 440.54677813 -114.69492458 440.54677813 -110 444 C-110 444.66 -110 445.32 -110 446 C-109.40445313 446.23460937 -108.80890625 446.46921875 -108.1953125 446.7109375 C-105.46665115 448.31317637 -104.4795451 449.91155462 -102.875 452.625 C-102.37742187 453.44226563 -101.87984375 454.25953125 -101.3671875 455.1015625 C-100.16653273 457.64695062 -99.73749639 459.34746138 -99.27734375 462.0546875 C-98.72357218 464.43770248 -98.35241585 465.66962504 -96.55566406 467.35400391 C-94.64639914 468.54040886 -92.7169927 469.5338213 -90.6875 470.5 C-89.23583015 471.25299732 -87.78532496 472.00824378 -86.3359375 472.765625 C-85.60858398 473.13623047 -84.88123047 473.50683594 -84.13183594 473.88867188 C-80.9420357 475.55151781 -77.88570817 477.37935155 -74.8125 479.25 C-73.80832031 479.85328125 -72.80414062 480.4565625 -71.76953125 481.078125 C-68.80428495 483.13581354 -66.40393392 485.31040666 -64 488 C-64 488.66 -64 489.32 -64 490 C-63.34 490 -62.68 490 -62 490 C-60.6328125 491.90625 -60.6328125 491.90625 -59.125 494.5 C-58.38636719 495.75296875 -58.38636719 495.75296875 -57.6328125 497.03125 C-57.09398437 498.0109375 -56.55515625 498.990625 -56 500 C-55.36578125 501.12664062 -54.7315625 502.25328125 -54.078125 503.4140625 C-50.73944914 510.15503833 -49.06279189 517.63604579 -47.078125 524.86767578 C-43.69813795 537.1050396 -39.89679015 547.64422085 -28.64453125 554.41796875 C-17.27095279 560.38871372 -4.44779664 562.32199598 8 565 C25.40138965 568.7863498 44.96481981 573.91858708 56 589 C55.67 589.66 55.34 590.32 55 591 C54.65710938 590.50371094 54.31421875 590.00742187 53.9609375 589.49609375 C42.23888538 574.28052363 19.46101535 570.67946227 1.5 568 C-33.98354673 562.70648943 -33.98354673 562.70648943 -44.6171875 549.109375 C-48.9561901 542.49055747 -51.62105763 535.21814403 -54.1328125 527.76171875 C-54.51332764 526.6322583 -54.89384277 525.50279785 -55.28588867 524.33911133 C-56.03611609 522.08238527 -56.77144103 519.82063291 -57.48950195 517.5534668 C-63.14685701 500.36177379 -72.76480829 490.69777963 -88.546875 482.6640625 C-91.3374123 481.31930131 -94.10443145 480.09412705 -97 479 C-96.91298828 480.45792969 -96.91298828 480.45792969 -96.82421875 481.9453125 C-96.21992724 497.02656915 -99.87015686 510.92206659 -104.14208984 525.28857422 C-108.00113838 538.37785976 -108.21712188 549.0916572 -103 562 C-101.20566347 565.40277812 -101.20566347 565.40277812 -99 568 C-98.29875 568.969375 -97.5975 569.93875 -96.875 570.9375 C-88.85057446 580.24680334 -76.35909348 585.33324455 -65.25390625 590.01953125 C-53.39879008 595.06372173 -43.14655538 601.04653646 -33 609 C-32.40413086 609.46212891 -31.80826172 609.92425781 -31.19433594 610.40039062 C-29.75452161 611.54988587 -28.37091477 612.76914773 -27 614 C-27 614.66 -27 615.32 -27 616 C-26.360625 616.268125 -25.72125 616.53625 -25.0625 616.8125 C-23 618 -23 618 -22 621 C-21.34 621 -20.68 621 -20 621 C-18.25274857 622.9167379 -16.65139214 624.83154799 -15.0625 626.875 C-14.58393555 627.48835205 -14.10537109 628.1017041 -13.61230469 628.73364258 C-9.69664593 633.8680023 -6.15575708 639.20387026 -2.75 644.6875 C-2.26023682 645.46528809 -1.77047363 646.24307617 -1.26586914 647.04443359 C-0.60059204 648.14198975 -0.60059204 648.14198975 0.078125 649.26171875 C0.47418945 649.91100342 0.87025391 650.56028809 1.27832031 651.22924805 C2 653 2 653 1 656 C0.53851562 655.21238281 0.07703125 654.42476562 -0.3984375 653.61328125 C-11.7197413 634.70715138 -25.34772726 618.96175719 -44 607 C-44.71309326 606.52997559 -45.42618652 606.05995117 -46.16088867 605.57568359 C-53.06205344 601.20201324 -60.29982951 598.34211438 -67.9375 595.5 C-90.34396825 587.13523993 -90.34396825 587.13523993 -98.5625 579.1875 C-101.53132813 576.23598648 -101.53132813 576.23598648 -105 574 C-97.12182971 598.64064265 -97.12182971 598.64064265 -83 620 C-82.2884375 620.82886719 -81.576875 621.65773438 -80.84375 622.51171875 C-77.47716855 626.36829922 -74.08134765 630.0466489 -70.1875 633.375 C-53.91003887 647.31318528 -44.79739241 660.24423113 -42 682 C-41.79560024 686.31593186 -41.7721365 690.62820408 -41.75976562 694.94873047 C-41.75015445 696.96755721 -41.71910984 698.98532151 -41.6875 701.00390625 C-41.63998691 713.15537983 -43.17182534 724.73425912 -48 736 C-49.20679775 732.37960676 -48.64667972 731.00243166 -47.625 727.375 C-43.86401599 712.9493079 -44.1471866 698.12223673 -46.3125 683.4375 C-46.43012695 682.62949951 -46.54775391 681.82149902 -46.66894531 680.98901367 C-49.98676912 660.41383906 -61.89628707 648.33429227 -77.33251953 635.39892578 C-97.09319175 618.82079228 -107.51899416 598.42328377 -115 574 C-115.34804688 572.91589844 -115.69609375 571.83179688 -116.0546875 570.71484375 C-121.65685284 551.32068089 -118.58638264 531.0535182 -113.67724609 511.90307617 C-113.46148926 511.06107666 -113.24573242 510.21907715 -113.0234375 509.3515625 C-112.82669434 508.60729004 -112.62995117 507.86301758 -112.42724609 507.09619141 C-111.8668573 504.70331203 -111.8668573 504.70331203 -112 501 C-112.495 501.680625 -112.99 502.36125 -113.5 503.0625 C-116.03631 506.04266425 -118.71520554 508.4564401 -121.70703125 510.9609375 C-127.36932358 515.99622983 -132.34978975 521.36196507 -136.875 527.4375 C-137.38748291 528.12416748 -137.89996582 528.81083496 -138.42797852 529.51831055 C-143.63865936 536.64841703 -147.95756378 544.16045263 -152 552 C-152.50273438 552.95261719 -153.00546875 553.90523437 -153.5234375 554.88671875 C-159.80310893 567.61732538 -161.62731502 580.98704469 -162 595 C-162.33 595 -162.66 595 -163 595 C-166.67317294 566.67673878 -152.95886017 540.61545449 -136.25244141 518.59130859 C-133.67419971 515.31548415 -130.88671102 512.2442879 -128.04296875 509.19921875 C-126.13621016 507.14662776 -124.34402005 505.03611755 -122.5625 502.875 C-121.716875 501.92625 -120.87125 500.9775 -120 500 C-119.34 500 -118.68 500 -118 500 C-117.72414063 499.40703125 -117.44828125 498.8140625 -117.1640625 498.203125 C-116 496 -116 496 -114.7109375 494.421875 C-109.44462681 487.83128736 -110.13738251 479.95349153 -111 472 C-113.19698339 463.20091424 -117.35843185 457.81078711 -125 453 C-127.12284533 451.93342963 -129.27056462 450.9152829 -131.4375 449.94140625 C-132.03949219 449.67037582 -132.64148438 449.3993454 -133.26171875 449.12010193 C-134.53119144 448.55029205 -135.80188451 447.98319392 -137.07373047 447.41870117 C-138.97079555 446.57548099 -140.86250878 445.72107815 -142.75390625 444.86523438 C-150.15080352 441.5467221 -157.579846 438.63080999 -165.26953125 436.05834961 C-168 435 -168 435 -170 433 C-181.11855469 433.55660652 -191.1843861 441.20379289 -198.55078125 449.09375 C-212.14818136 464.83016188 -212.14818136 464.83016188 -216.52734375 484.48046875 C-215.3048073 492.63976759 -212.18591674 500.44904934 -209.1730957 508.09985352 C-207.57178458 512.20232543 -206.45288026 516.05335824 -205.8125 520.4375 C-205.65394531 521.46746094 -205.49539063 522.49742187 -205.33203125 523.55859375 C-204.62650722 530.87114286 -205.04265232 537.76735436 -206.25 545 C-206.38204834 545.81235107 -206.51409668 546.62470215 -206.65014648 547.46166992 C-208.21843062 556.77657342 -210.03045107 566.2461035 -213.09375 575.1953125 C-216.046068 584.33222769 -213.2236473 592.71369643 -209 601 C-206.34849627 605.24988519 -203.30446777 609.22232303 -200.30517578 613.22949219 C-191.59097263 625.05055489 -183.59185563 637.93195432 -184.11767578 653.07763672 C-184.52166816 666.00821782 -181.25721623 670.76973557 -172.41015625 680.203125 C-162.49878555 691.70481288 -162.71748765 705.21550208 -162.875 719.5625 C-162.88504912 721.1594996 -162.89417156 722.75650532 -162.90234375 724.35351562 C-162.92420609 728.23583006 -162.9586294 732.11784644 -163 736 C-163.33 736 -163.66 736 -164 736 C-164.06731323 734.6402002 -164.06731323 734.6402002 -164.13598633 733.25292969 C-164.31112437 729.83043133 -164.49698224 726.40884171 -164.68969727 722.98730469 C-164.77037424 721.51747606 -164.84699755 720.04741825 -164.91918945 718.57714844 C-165.73262047 702.12901223 -167.7902109 690.69573547 -180.171875 678.953125 C-182 677 -182 677 -182 675 C-182.66 675 -183.32 675 -184 675 C-187 670.61538462 -187 670.61538462 -187 668 C-187.66 668 -188.32 668 -189 668 C-189.39445313 668.88751953 -189.39445313 668.88751953 -189.796875 669.79296875 C-195.94815681 681.07697597 -211.67260384 685.64176065 -223.08105469 689.72192383 C-229.77037966 692.16635139 -235.80692935 695.48697162 -242 699 C-242.75925781 699.36222656 -243.51851563 699.72445312 -244.30078125 700.09765625 C-246.61790942 701.32813121 -246.90581518 702.61853893 -248 705 C-248.763125 705.928125 -249.52625 706.85625 -250.3125 707.8125 C-259.08690629 720.05525568 -259.97673127 737.39515732 -261.70703125 751.8671875 C-263.75092652 768.82889965 -266.30114877 787.30114877 -279 800 C-279.66 800 -280.32 800 -281 800 C-279.62539147 797.07404755 -278.0140382 794.55572652 -276.125 791.9375 C-266.49045183 777.38018999 -266.237363 759.10783088 -265.0625 742.1875 C-263.84536988 725.34113801 -260.98327708 707.11165778 -248 695 C-240.76150726 689.2377559 -232.90924405 685.32776265 -224.5 681.5625 C-223.32179688 681.02173828 -222.14359375 680.48097656 -220.9296875 679.92382812 C-212.29825774 676 -212.29825774 676 -210 676 C-210 675.34 -210 674.68 -210 674 C-210.845625 673.7525 -211.69125 673.505 -212.5625 673.25 C-216 672 -216 672 -218.875 669.875 C-224.72692237 666.39264798 -232.47025528 667.35236683 -239 668 C-244.78110592 669.48481292 -248.43953846 673.05657431 -252.359375 677.4140625 C-255.2491556 680.20751708 -257.43346305 680.95879731 -261.4375 681.25 C-264.78156767 681.01532858 -267.01044495 680.44948124 -270 679 C-267.00488375 678.00162792 -265.83539768 678.06468484 -262.8125 678.375 C-258.66571289 678.44253725 -256.78783885 677.47876266 -253.6875 674.75 C-251.69686019 672.80638317 -249.81752238 670.8009335 -247.9375 668.75 C-242.34321601 663.69709833 -235.26941516 663.01028206 -228 663 C-222.71531723 663.48201916 -218.53960723 665.14846645 -213.875 667.625 C-209.68632438 669.79066201 -206.77566496 671.10207653 -202 670 C-197.34332717 666.33273571 -194.87718553 661.84790352 -194 656 C-193.84695117 641.61341034 -201.42816955 630.41403086 -210.37207031 619.69018555 C-217.05049824 611.6796133 -221.7514708 603.50920799 -226 594 C-228.95413897 596.84839798 -231.53394315 599.83237824 -234.0625 603.0625 C-238.77513186 609.0776635 -238.77513186 609.0776635 -241 611 C-241.66 611 -242.32 611 -243 611 C-243 611.66 -243 612.32 -243 613 C-257.74467427 626.4951256 -274.96883893 635.83994914 -295.23828125 636.140625 C-296.38876953 636.15996094 -297.53925781 636.17929687 -298.72460938 636.19921875 C-301.10464914 636.23290467 -303.48495768 636.25128912 -305.86523438 636.25390625 C-315.09897832 636.44982042 -321.84235593 638.38465733 -328.875 644.5 C-329.57625 645.325 -330.2775 646.15 -331 647 C-331.65226562 647.75667969 -332.30453125 648.51335938 -332.9765625 649.29296875 C-338.12945907 656.18670876 -340.22216653 665.20543541 -342.4375 673.4375 C-342.62570312 674.09919189 -342.81390625 674.76088379 -343.0078125 675.44262695 C-344.47504984 681.23748084 -343.36425568 684.66799644 -340.4140625 689.7109375 C-339.82367188 690.59007812 -339.23328125 691.46921875 -338.625 692.375 C-333.01973238 701.03344874 -330.31026147 707.65583048 -329 718 C-329.66 718 -330.32 718 -331 718 C-331.06316406 717.34515625 -331.12632812 716.6903125 -331.19140625 716.015625 C-332.81773569 703.89519088 -339.95415622 694.68000422 -347 685 C-347.70962891 685.54527344 -347.70962891 685.54527344 -348.43359375 686.1015625 C-354.48073991 690.69880812 -360.69506766 694.99111956 -367.1875 698.9375 C-375.79551195 705.2500421 -378.45973035 713.06566977 -380.46484375 723.39453125 C-380.69212242 724.92321384 -380.85685191 726.461158 -381 728 C-381.33 728 -381.66 728 -382 728 C-382.64077475 718.54857243 -380.67878508 708.11125526 -374.60546875 700.54296875 C-371.11829249 697.19154631 -367.02557564 694.65098884 -363 692 C-350.54034788 683.34746381 -347.69459211 674.90309299 -344.125 660.375 C-341.95905124 652.02796425 -338.16636999 645.79140032 -333 639 C-356.41075766 646.13230968 -382.9224159 655.76315482 -395.13989258 678.56835938 C-405.62906341 699.16047662 -408.30246963 721.29207901 -411.35546875 743.9140625 C-411.46750641 744.74007462 -411.57954407 745.56608673 -411.69497681 746.41712952 C-412.24546309 750.48747576 -412.78369365 754.55881737 -413.30078125 758.63354492 C-413.49590816 760.11639813 -413.69121164 761.59922812 -413.88671875 763.08203125 C-413.96987839 763.76911163 -414.05303802 764.45619202 -414.13871765 765.16409302 C-414.35687384 766.78682989 -414.6693272 768.39640324 -415 770 C-415.66 770.33 -416.32 770.66 -417 771 C-410.14531143 677.48823567 -410.14531143 677.48823567 -386.5625 656.9375 C-385.90378906 656.41027344 -385.24507813 655.88304687 -384.56640625 655.33984375 C-382.87043021 654.06503043 -382.87043021 654.06503043 -382 652 C-383.21623047 652.06960938 -383.21623047 652.06960938 -384.45703125 652.140625 C-392.44559409 652.40102053 -398.75282282 651.44379221 -406 648 C-406.33 647.67 -406.66 647.34 -407 647 C-412.04369969 646.6821885 -415.73360796 647.34228669 -420.4140625 649.1875 C-422.17363281 649.86425781 -422.17363281 649.86425781 -423.96875 650.5546875 C-425.77859375 651.27011719 -425.77859375 651.27011719 -427.625 652 C-430.0309214 652.94500098 -432.43968303 653.88281078 -434.8515625 654.8125 C-435.91197754 655.23144531 -436.97239258 655.65039062 -438.06494141 656.08203125 C-440.90797143 656.97121715 -443.04697563 657.19082548 -446 657 C-443.2322404 655.57393473 -440.44718601 654.33618081 -437.55078125 653.1953125 C-436.70193359 652.85886719 -435.85308594 652.52242187 -434.97851562 652.17578125 C-433.22074217 651.48297384 -431.46293055 650.79026327 -429.70507812 650.09765625 C-424.70587036 648.11605619 -419.77789433 646.04232337 -414.89916992 643.77880859 C-411.20864307 642.26540319 -408.48634943 642.40916948 -404.80859375 643.87109375 C-403.27448837 644.56106207 -401.75223711 645.27829919 -400.24609375 646.02734375 C-390.83223101 650.10395561 -379.32816913 648.45851417 -370 645 C-366.52218506 643.31386871 -363.15681351 641.4242297 -359.77539062 639.55444336 C-342.15714428 629.96059945 -324.18746275 626.01681615 -304.28295898 625.33349609 C-282.0932194 624.55568481 -265.01284675 616.35267531 -249.84765625 600.22265625 C-233.83728417 582.47615436 -222.78730159 559.3502539 -222.8125 535.1875 C-222.81330566 534.38723389 -222.81411133 533.58696777 -222.81494141 532.76245117 C-222.87261082 527.21544477 -223.42252354 522.34589245 -225 517 C-225.37528985 515.64591363 -225.75030595 514.29175135 -226.125 512.9375 C-226.558125 511.4834375 -226.558125 511.4834375 -227 510 C-229.86262994 512.53232649 -231.84644044 515.23451122 -233.875 518.4375 C-237.13607103 523.44439694 -241.14877944 528.04959315 -247 530 C-254.07399886 530.59856913 -259.31786006 528.20658571 -265.70898438 525.57617188 C-272.10353555 523.05679144 -278.97319491 520.75617727 -285.76953125 522.85546875 C-286.44371094 523.29503906 -287.11789062 523.73460937 -287.8125 524.1875 C-288.54855469 524.661875 -289.28460938 525.13625 -290.04296875 525.625 C-290.68878906 526.07875 -291.33460938 526.5325 -292 527 C-292.86625 527.556875 -293.7325 528.11375 -294.625 528.6875 C-299.01968225 532.96653272 -302.26561192 538.21775246 -305.5 543.40625 C-312.08447043 553.85551829 -321.94153656 561.35649184 -334.01953125 564.53076172 C-337.24618943 565.21634946 -340.45400411 565.74223537 -343.72265625 566.19921875 C-347.5091159 567.12439662 -349.2751983 568.23247493 -352 571 C-353.63856609 573.76662259 -353.63856609 573.76662259 -354.8125 576.75 C-355.44091797 578.22726562 -355.44091797 578.22726562 -356.08203125 579.734375 C-356.53642578 580.85585937 -356.53642578 580.85585937 -357 582 C-357.90679764 579.51616299 -358.12304943 578.3422121 -357.21484375 575.81640625 C-356.58255859 574.70072266 -356.58255859 574.70072266 -355.9375 573.5625 C-355.53402344 572.82128906 -355.13054687 572.08007812 -354.71484375 571.31640625 C-350.42368834 565.51992525 -346.34435581 563.40434569 -339.375 562.125 C-327.5173529 559.51713729 -318.07966029 554.06563946 -311 544 C-309.47556933 541.2956204 -308.0568114 538.55140411 -306.640625 535.7890625 C-303.24051281 530.00887178 -298.58569697 524.72379798 -293 521 C-313.83034958 520.09578868 -333.44895471 523.7689284 -350 537 C-365.54443714 548.86631681 -378.55630083 553.65869495 -398 553 C-398 552.67 -398 552.34 -398 552 C-397.14019531 551.97421875 -396.28039062 551.9484375 -395.39453125 551.921875 C-377.05695843 551.04199146 -363.72498247 544.60215748 -350.38671875 532.1015625 C-340.2319764 523.16007087 -326.99608393 518.83425235 -314 516 C-313.8509288 513.9254644 -313.8509288 513.9254644 -315 512 C-315.07762332 510.29228701 -315.13752276 508.58374554 -315.1875 506.875 C-315.72386964 500.75077945 -317.58514002 497.22897114 -322 493 C-334.50516956 482.53450858 -350.32441664 480.85831724 -366 480 C-366 479.67 -366 479.34 -366 479 C-348.68678177 478.38573339 -332.59567988 480.12421634 -318.5 491.3125 C-312.4381399 497.03408937 -310.58885024 503.90330922 -310 512 C-303.7472837 513.75955836 -297.93355153 514.04927228 -291.5 513.875 C-278.91951377 513.62653573 -266.80713419 516.36212706 -255.26171875 521.36328125 C-252.37061682 522.17718386 -250.84302752 521.96530702 -248 521 C-243.0387818 517.93980933 -240.7745059 513.76140096 -238.125 508.75 C-237.70992188 508.02425781 -237.29484375 507.29851562 -236.8671875 506.55078125 C-233.58268469 500.40876099 -233.78676366 496.65953087 -235.5390625 489.9296875 C-238.5982262 477.12268015 -234.59129218 464.61138055 -227.93676758 453.69970703 C-219.26997632 440.11514693 -209.84097657 427.56822359 -196 419 C-198.65945778 417.22702814 -200.76912196 416.23981093 -203.734375 415.15234375 C-204.68876465 414.79906006 -205.6431543 414.44577637 -206.62646484 414.08178711 C-207.65723145 413.70417236 -208.68799805 413.32655762 -209.75 412.9375 C-217.06859509 410.23519034 -224.35282904 407.47848265 -231.5871582 404.55786133 C-285.27486248 382.98216513 -339.23365127 375.83982675 -393.67578125 399.06640625 C-409.1325144 405.88467239 -421.9076155 415.38011099 -434 427 C-434.69480469 427.6084375 -435.38960938 428.216875 -436.10546875 428.84375 C-447.74850487 439.40650441 -462.5631977 460.34867412 -464.0625 476.375 C-464.07923006 478.58336823 -464.05372911 480.79222209 -464 483 C-464.02783157 484.59386655 -464.06215975 486.18762753 -464.1015625 487.78125 C-464.13261919 489.47912428 -464.16126983 491.1770443 -464.1875 492.875 C-464.20792358 494.07068604 -464.20792358 494.07068604 -464.22875977 495.29052734 C-464.23239895 500.24501275 -463.58513879 504.30097198 -462 509 C-461.34 509 -460.68 509 -460 509 C-458.73046875 510.29296875 -458.73046875 510.29296875 -457.1875 512.1875 C-453.17299258 516.93501727 -448.79545408 521.26130919 -444.35620117 525.60620117 C-440.10139165 529.79721669 -440.10139165 529.79721669 -439 532 C-438.154375 532.226875 -437.30875 532.45375 -436.4375 532.6875 C-429.95277939 535.16348423 -425.57347802 540.25358811 -421.125 545.4375 C-418.30004745 548.72865297 -415.42218324 551.29707246 -411.9375 553.875 C-403.17647661 560.73086976 -399.38600187 569.64135624 -396.12792969 579.98608398 C-394.65771305 584.57917345 -392.85647618 588.10369308 -390 592 C-390.33 592.66 -390.66 593.32 -391 594 C-396.27084662 588.43632857 -398.38449575 582.46562151 -400.9609375 575.34375 C-402.98754462 569.96108149 -405.15818129 566.26868746 -409 562 C-409 561.34 -409 560.68 -409 560 C-409.54527344 559.76152344 -410.09054687 559.52304687 -410.65234375 559.27734375 C-413.59113683 557.67836648 -415.98704897 555.69644514 -418.5625 553.5625 C-419.51253906 552.78003906 -420.46257812 551.99757813 -421.44140625 551.19140625 C-425.55715959 547.66631064 -425.55715959 547.66631064 -427 546 C-427 545.34 -427 544.68 -427 544 C-428.32 543.67 -429.64 543.34 -431 543 C-430.66226562 543.556875 -430.32453125 544.11375 -429.9765625 544.6875 C-429.53054688 545.450625 -429.08453125 546.21375 -428.625 547 C-428.18414062 547.7425 -427.74328125 548.485 -427.2890625 549.25 C-424.25654484 555.71937101 -423.65749786 561.96749883 -423.6875 569 C-423.66333008 570.13308594 -423.66333008 570.13308594 -423.63867188 571.2890625 C-423.63254602 578.41955852 -425.24621015 584.72215111 -430.1875 590.0625 C-430.7959375 590.7225 -431.404375 591.3825 -432.03125 592.0625 C-434.00697373 594.00686303 -436.0611469 595.78524965 -438.1875 597.5625 C-445.7854666 604.07713418 -449.65126028 614.36074336 -450.75 624.1875 C-450.8325 625.445625 -450.915 626.70375 -451 628 C-451.33 628 -451.66 628 -452 628 C-452.65450506 616.60676374 -449.91761819 607.16341808 -443 598 C-440.23802874 595.10368393 -437.42752186 592.35627193 -434.48828125 589.640625 C-429.14741185 583.9727636 -427.7123025 578.06427215 -427.859375 570.5390625 C-428.78303379 553.86188984 -436.5624955 542.3587338 -448 531 C-448.87398438 530.10152344 -449.74796875 529.20304688 -450.6484375 528.27734375 C-454.40500742 524.44564243 -458.20889559 520.7705936 -462.3125 517.3125 C-468.83366903 511.66082017 -471.70020317 506.55537912 -473 498 C-474.67494646 500.51241969 -475.44849725 502.03200226 -476.29345703 504.81860352 C-476.6449028 505.9623922 -476.6449028 505.9623922 -477.00344849 507.12928772 C-477.25238861 507.95416183 -477.50132874 508.77903595 -477.7578125 509.62890625 C-478.3069399 511.40570771 -478.85643198 513.1823965 -479.40625 514.95898438 C-480.25945423 517.73456439 -481.10938841 520.51102507 -481.95214844 523.28979492 C-493.32022964 560.66861366 -510.35645815 592.91368168 -545.64453125 612.24316406 C-558.86219052 619.24171704 -572.77202523 624.90332512 -586.75 630.1875 C-587.54204834 630.49131592 -588.33409668 630.79513184 -589.15014648 631.1081543 C-594.63926542 633.12024486 -594.63926542 633.12024486 -598 632 C-595.58448412 630.85169129 -593.16776233 629.70606494 -590.75 628.5625 C-589.98929199 628.20196533 -589.22858398 627.84143066 -588.44482422 627.4699707 C-584.34881524 625.53918506 -580.24045487 623.65334243 -576.0859375 621.8515625 C-558.63372679 614.26686828 -542.44161972 605.4935932 -528 593 C-527.16082031 592.27425781 -526.32164062 591.54851563 -525.45703125 590.80078125 C-518.97664835 584.76655208 -514.38084585 577.61705733 -510 570 C-509.65582031 569.40364746 -509.31164062 568.80729492 -508.95703125 568.19287109 C-499.32122758 551.12254649 -494.30165216 531.75969226 -489 513 C-489.54527344 513.49371094 -490.09054687 513.98742187 -490.65234375 514.49609375 C-495.16348754 518.32863814 -498.77134443 521.06266126 -504.81640625 521.26171875 C-510.71021217 520.55530552 -514.89363933 517.14798482 -519.375 513.5 C-527.85984934 506.79004261 -536.11442656 504.7643401 -546.953125 505.703125 C-551.98344537 506.43271345 -556.76439812 508.11489074 -561.5390625 509.80859375 C-564.38232393 510.78736885 -567.04269342 511.50711557 -570 512 C-566.63783386 509.13251666 -563.21609549 507.82011433 -559.0625 506.375 C-557.85722656 505.94960938 -556.65195312 505.52421875 -555.41015625 505.0859375 C-546.17455754 502.14493356 -534.52840802 501.16538536 -525.30859375 504.73828125 C-522.17330149 506.45181661 -519.32700176 508.53437257 -516.4375 510.625 C-511.57129688 514.14558973 -508.15217268 516.53966427 -502 516 C-498.65247442 514.18621008 -498.65247442 514.18621008 -496 512 C-495.34 512 -494.68 512 -494 512 C-493.62875 511.13375 -493.62875 511.13375 -493.25 510.25 C-491.81700012 507.67060021 -490.21575324 505.93878408 -488 504 C-487.34 504 -486.68 504 -486 504 C-485.90074219 503.071875 -485.80148437 502.14375 -485.69921875 501.1875 C-480.27459008 463.47071011 -456.96388648 423.02543836 -426.76928711 399.84741211 C-413.21379833 389.75810321 -398.5031352 382.58524377 -383 376 C-383.61488281 374.98292969 -384.22976563 373.96585937 -384.86328125 372.91796875 C-386.82210668 369.48808182 -388.08445525 366.11687882 -389.1875 362.3125 C-389.51105469 361.21550781 -389.83460938 360.11851562 -390.16796875 358.98828125 C-390.81481083 356.66511604 -391.43534545 354.34417192 -392 352 C-398.87605783 350.35682442 -404.34030424 349.33093905 -411 352 C-411.74507813 352.28617187 -412.49015625 352.57234375 -413.2578125 352.8671875 C-426.14296444 358.54328337 -435.91497 369.57551045 -445 380 C-446.0209375 381.16789063 -446.0209375 381.16789063 -447.0625 382.359375 C-448.21512163 383.68091532 -449.36632569 385.00369436 -450.515625 386.328125 C-452.58051127 388.65383901 -454.77228518 390.83090926 -457 393 C-457.721875 393.7425 -458.44375 394.485 -459.1875 395.25 C-460.115625 396.1575 -461.04375 397.065 -462 398 C-462.68707031 398.68320312 -463.37414062 399.36640625 -464.08203125 400.0703125 C-471.62404571 407.25898541 -480.01267325 412.64972234 -490.0625 415.625 C-494.11288354 416.87411463 -495.82617608 418.21593615 -498 422 C-498.54332117 423.62444756 -499.08481352 425.24950735 -499.625 426.875 C-502.58593322 434.52124135 -508.703578 437.55554338 -515.8828125 440.796875 C-526.27560432 445.24146523 -526.27560432 445.24146523 -530 444 C-529.18378174 443.63032104 -529.18378174 443.63032104 -528.35107422 443.25317383 C-525.85455876 442.11586054 -523.36484948 440.96432919 -520.875 439.8125 C-520.0190625 439.42513672 -519.163125 439.03777344 -518.28125 438.63867188 C-510.63349332 435.07952358 -505.24189125 432.04486854 -502.1875 423.75 C-500.0332681 418.0332681 -500.0332681 418.0332681 -499 417 C-500.02738281 416.72027344 -501.05476562 416.44054687 -502.11328125 416.15234375 C-511.0900686 413.60027974 -518.37287438 410.51213245 -526 405 C-528.22358447 403.42949153 -530.45445593 401.869523 -532.6875 400.3125 C-533.24171631 399.92602295 -533.79593262 399.5395459 -534.36694336 399.14135742 C-543.71694028 392.6805698 -553.40575048 388.64322612 -565 390 C-569.54837392 391.17741594 -573.43408756 392.87982661 -577 396 C-575.59008837 392.59271356 -574.2024372 390.85404259 -571 389 C-560.15468134 385.50743975 -549.75524961 386.5795624 -539.31640625 391.18359375 C-534.46271794 393.72943621 -529.95456953 396.69091876 -525.44555664 399.79125977 C-515.5589364 406.56884872 -506.41153719 411.69248234 -494 410 C-477.90049887 406.34102247 -465.07455672 393.20606222 -456 380 C-457.4540625 380.3403125 -457.4540625 380.3403125 -458.9375 380.6875 C-466.00213839 381.6398758 -471.54454707 378.5867927 -477.0625 374.4375 C-479.34765625 372.62109375 -479.34765625 372.62109375 -481 371 C-481 370.34 -481 369.68 -481 369 C-481.57363281 368.73445313 -482.14726562 368.46890625 -482.73828125 368.1953125 C-485.09508323 366.94974876 -487.0612675 365.47838845 -489.1875 363.875 C-493.08041138 361.29871556 -495.81668352 360.15537485 -500.48828125 360.45703125 C-504.77978224 361.38474297 -508.72332291 363.2064682 -512.7734375 364.87109375 C-517.24389283 366.4352119 -521.33971341 367.01077233 -526 366 C-528.625 364 -528.625 364 -530 362 C-529.175 362.350625 -528.35 362.70125 -527.5 363.0625 C-520.95414625 364.81585368 -516.46803078 363.34554206 -510.5625 360.5 C-503.68635911 357.25135492 -498.39955697 355.87752997 -491.0625 358.4375 C-485.30021475 361.01536445 -480.80498889 364.98044199 -476 369 C-470.99086293 373.01069421 -466.93255947 376.01815414 -460.3046875 375.421875 C-459.54414063 375.28265625 -458.78359375 375.1434375 -458 375 C-457.21882812 374.86078125 -456.43765625 374.7215625 -455.6328125 374.578125 C-448.5955745 372.55463804 -445.03393873 367.98447403 -440.61547852 362.50195312 C-434.19550702 354.58333594 -426.52417558 348.55705842 -418 343 C-418.825 342.4225 -419.65 341.845 -420.5 341.25 C-424.74401891 337.78220308 -427.31477046 333.16151523 -430.16796875 328.546875 C-431.81170822 325.73749938 -431.81170822 325.73749938 -435 325 C-439.54600039 327.83569731 -441.92983134 331.58759066 -444.625 336.0625 C-449.2190694 343.58218454 -449.2190694 343.58218454 -452 346 C-452.66 345.67 -453.32 345.34 -454 345 C-453.319375 344.2575 -452.63875 343.515 -451.9375 342.75 C-448.58016802 338.76137483 -446.17389576 334.24942789 -443.6484375 329.70703125 C-442.24956328 327.40982786 -441.00012336 325.76374514 -439 324 C-444.62140242 323.63639053 -448.67566238 324.76012555 -453.6875 327.125 C-454.3786792 327.43759766 -455.0698584 327.75019531 -455.78198242 328.07226562 C-461.17018817 330.53359851 -466.43365946 333.21378553 -471.64453125 336.03125 C-474 337 -474 337 -477 336 C-471 333 -471 333 -469.12573242 332.06396484 C-465.61843645 330.31184767 -462.11389028 328.55450604 -458.61328125 326.7890625 C-457.89591797 326.428125 -457.17855469 326.0671875 -456.43945312 325.6953125 C-455.04020525 324.99119144 -453.64174384 324.28550491 -452.24414062 323.578125 C-445.89591814 320.38806345 -441.06842376 319.26763584 -434 320 C-428.19976274 322.43609965 -425.4554737 327.37833551 -421.9375 332.35546875 C-419.45335293 335.74612916 -417.64389482 337.87439469 -414 340 C-410.51679065 339.91583489 -410.51679065 339.91583489 -408.203125 339.41015625 C-399.3711116 337.76589844 -392.32339039 339.28728446 -384.8125 344 C-378.58095224 349.62193982 -376.51514067 359.27194995 -374 367 C-370.35423608 367.05878077 -366.70859648 367.0938558 -363.0625 367.125 C-362.04091797 367.14175781 -361.01933594 367.15851563 -359.96679688 367.17578125 C-354.43533522 367.21112605 -349.48373846 366.85042227 -344.12060547 365.50634766 C-335.74324493 363.50604306 -326.99376176 363.77001958 -318.4375 363.75 C-317.76202118 363.74832825 -317.08654236 363.74665649 -316.39059448 363.74493408 C-300.74476387 363.74263021 -285.1563246 364.92286005 -270 369 C-270.42772705 368.45472656 -270.8554541 367.90945313 -271.29614258 367.34765625 C-275.50893544 361.9571243 -279.63410089 356.51120564 -283.6875 351 C-284.28908936 350.18329834 -284.89067871 349.36659668 -285.51049805 348.52514648 C-289.50737962 343.08087348 -293.43335265 337.59113263 -297.3125 332.0625 C-302.07962657 325.27109439 -306.94458434 318.58157888 -312 312 C-312.4316748 311.43684082 -312.86334961 310.87368164 -313.30810547 310.29345703 C-318.6247926 303.37629042 -324.04321846 296.64613758 -329.9609375 290.2265625 C-331.82341382 288.19282399 -333.60084557 286.11048702 -335.375 284 C-339.83294745 278.88891141 -344.87093462 274.42372305 -350 270 C-350.58394531 269.49339844 -351.16789062 268.98679687 -351.76953125 268.46484375 C-362.80589204 259.77545589 -376.91378042 256.61296489 -390.625 256.6875 C-391.68952393 256.69241455 -392.75404785 256.6973291 -393.85083008 256.70239258 C-415.37667351 257.02186434 -434.74128102 264.97236707 -451 279 C-451.85851562 279.73605469 -452.71703125 280.47210938 -453.6015625 281.23046875 C-458.34531549 285.39379275 -462.64759677 289.66157968 -466.625 294.56640625 C-467.07875 295.03949219 -467.5325 295.51257813 -468 296 C-468.66 296 -469.32 296 -470 296 C-470.24878906 296.56589844 -470.49757813 297.13179688 -470.75390625 297.71484375 C-479.26215941 313.31775315 -497.47922397 327.60737138 -514.01953125 333.75 C-525.09802682 336.99909035 -536.70894542 335.0199395 -546.75 329.625 C-550.66944297 327.28745834 -554.41316112 324.82368167 -558 322 C-558 321.34 -558 320.68 -558 320 C-558.5775 319.7525 -559.155 319.505 -559.75 319.25 C-562.32939979 317.81700012 -564.06121592 316.21575324 -566 314 C-566 313.34 -566 312.68 -566 312 C-566.99 311.67 -567.98 311.34 -569 311 C-570.01522223 310.01545756 -571.01351999 309.01333962 -572 308 C-574.17559027 306.41890242 -576.40753056 304.96095769 -578.66796875 303.50390625 C-580.08899488 302.58749911 -581.49319185 301.64328892 -582.86328125 300.65234375 C-586.18973408 298.39647344 -587.79036181 297.97250647 -591.8125 298.5 C-593.22153548 298.96148643 -594.61710758 299.46524843 -596 300 C-596.81984375 300.30808594 -597.6396875 300.61617188 -598.484375 300.93359375 C-601.00849785 301.91647189 -603.50604126 302.9429828 -606 304 C-607.0725 304.42539062 -608.145 304.85078125 -609.25 305.2890625 C-613.74876882 307.22144813 -617.80429266 309.8320098 -621.9375 312.4375 C-640.12165885 323.8662207 -640.12165885 323.8662207 -650 322 C-654.46151103 319.95287375 -657.93030741 317.38024851 -660.9375 313.5 C-666.36165651 306.92526483 -674.84663951 303.72751779 -683 302 C-686.72286842 301.6827138 -690.39247583 301.71027497 -694.125 301.8125 C-695.55972656 301.83280273 -695.55972656 301.83280273 -697.0234375 301.85351562 C-699.3495811 301.88840778 -701.6744653 301.93741661 -704 302 C-697.36385225 297.5759015 -687.69721326 298.15163213 -680.05859375 299.53125 C-670.21616877 302.0500347 -663.78881074 305.78563153 -656.4921875 312.87890625 C-652.64433418 316.15380335 -649.45439732 317.94984837 -644.375 318.125 C-638.25952764 317.06093119 -633.13540579 313.29365031 -628 310 C-627.09765625 309.43023437 -626.1953125 308.86046875 -625.265625 308.2734375 C-620.96843507 305.76703544 -620.96843507 305.76703544 -618 302 C-618.556875 301.85304688 -619.11375 301.70609375 -619.6875 301.5546875 C-620.450625 301.33039063 -621.21375 301.10609375 -622 300.875 C-622.7425 300.66617187 -623.485 300.45734375 -624.25 300.2421875 C-632.2515317 296.62785926 -638.35337369 289.96616616 -644.4375 283.8125 C-645.69699463 282.5450293 -645.69699463 282.5450293 -646.98193359 281.25195312 C-652.72134426 275.42420943 -658.01553116 269.48804828 -663 263 C-664.45217141 261.20333538 -665.91073043 259.41181846 -667.375 257.625 C-668.10332031 256.73167969 -668.83164062 255.83835937 -669.58203125 254.91796875 C-671.37350184 252.75604867 -673.18035683 250.6159014 -675.01171875 248.48828125 C-675.77186279 247.60245361 -675.77186279 247.60245361 -676.54736328 246.69873047 C-677.54273125 245.54169139 -678.542291 244.38824271 -679.54638672 243.23876953 C-683 239.22130102 -683 239.22130102 -683 237 C-683.7734375 236.6596875 -683.7734375 236.6596875 -684.5625 236.3125 C-687.34954731 234.81178222 -689.78833948 233.01855144 -692.31640625 231.12109375 C-695.8812437 228.74729248 -699.52566131 228.72594427 -703.6875 228.4375 C-704.86699219 228.35371094 -706.04648437 228.26992187 -707.26171875 228.18359375 C-708.16535156 228.12300781 -709.06898438 228.06242188 -710 228 C-705.18534293 225.34875712 -700.94574141 225.35034996 -695.6796875 226.51171875 C-684.19945013 230.29539827 -676.18008544 240.51131977 -668.65869141 249.50292969 C-664.74528535 254.17958416 -660.67070703 258.6766813 -656.5 263.125 C-655.91234863 263.75245117 -655.32469727 264.37990234 -654.71923828 265.02636719 C-652.3857309 267.5063516 -650.0536948 269.94857153 -647.59375 272.3046875 C-646 274 -646 274 -646 276 C-645.4121875 276.25523437 -644.824375 276.51046875 -644.21875 276.7734375 C-641.78072736 278.12121762 -640.36828375 279.56824903 -638.5 281.625 C-631.33903039 288.97371039 -622.05833912 296.05669541 -611.4375 296.5 C-605.69145533 296.43087465 -601.41377133 294.06539847 -596.46875 291.3125 C-591.89181967 289.58068852 -587.83502729 289.73968946 -583 290 C-583.27150879 289.50298584 -583.54301758 289.00597168 -583.82275391 288.49389648 C-595.28649303 267.40265406 -602.04840527 246.50810339 -607.9765625 223.28125 C-613.62959444 201.22513851 -620.20833329 182.70199464 -635 165 C-635.48082031 164.38382813 -635.96164062 163.76765625 -636.45703125 163.1328125 C-646.59556205 150.45234458 -661.8656782 140.59370472 -678 138 C-685.32589462 137.46338195 -692.66809217 137.67051023 -700 138 C-692.00250322 132.66833548 -679.39257405 134.06850438 -670.24609375 135.6484375 C-658.12499541 139.12860561 -647.32197946 145.59194009 -638 154 C-637.50000488 154.45084961 -637.00000977 154.90169922 -636.48486328 155.36621094 C-615.10791251 174.92979313 -606.04739394 198.45870917 -597.97802734 225.70068359 C-596.7229197 229.93471372 -595.43311174 234.15710196 -594.125 238.375 C-593.77695312 239.51710937 -593.42890625 240.65921875 -593.0703125 241.8359375 C-591.8896634 245.32617753 -590.49201321 248.63231303 -589 252 C-588.69707031 251.26136719 -588.39414062 250.52273437 -588.08203125 249.76171875 C-585.967412 244.64108691 -583.81440399 239.56728542 -581.4375 234.5625 C-576.84599795 224.49316165 -572.84867515 214.33981418 -576.0625 203.375 C-577.17181634 200.68248461 -578.44511685 198.11767948 -579.7578125 195.515625 C-583.99354814 187.05816149 -587.06176804 180.48850531 -584.0703125 171.07421875 C-581.43421108 164.29444156 -577.93082976 158.10561873 -574 152 C-573.67 152.66 -573.34 153.32 -573 154 C-574.23170726 156.71332613 -575.52214218 159.34834207 -576.875 162 C-581.91012824 172.28742881 -581.91012824 172.28742881 -581.35546875 183.47265625 C-579.70645404 188.01270951 -577.44072086 191.98382335 -574.875 196.0625 C-569.70594185 204.4769415 -569.23449785 212.35238501 -571 222 C-573.23762519 230.21614499 -576.32232621 237.94239566 -579.9296875 245.65625 C-581.35102009 248.76865713 -582.3391485 251.63566511 -583 255 C-583.15339844 255.72703125 -583.30679688 256.4540625 -583.46484375 257.203125 C-584.86228891 269.68441603 -575.18542361 282.66763841 -567.875 292.125 C-566.26711292 294.09740807 -564.64351017 296.05717506 -563 298 C-562.01773438 299.22589844 -562.01773438 299.22589844 -561.015625 300.4765625 C-553.21508958 309.85654517 -542.70381755 318.6735789 -530.28515625 320.37109375 C-519.22829203 320.88284202 -511.05826655 316.19114325 -503 309 C-495.44894771 301.64072047 -488.51891207 293.77345695 -482.01171875 285.484375 C-479.16845386 281.97308088 -476.1345927 278.6500514 -473.078125 275.32421875 C-470.96329956 273.01566851 -470.96329956 273.01566851 -469.0546875 270.4765625 C-466.07879008 266.88964431 -462.54551052 264.22108149 -458.91015625 261.328125 C-457.11832706 259.89466165 -455.34923205 258.43151305 -453.62109375 256.921875 C-432.64048276 238.8877796 -403.7175593 233.55549354 -376.81738281 234.77099609 C-368.5296172 235.44464637 -360.65430889 237.79989346 -353 241 C-353.4640625 239.2984375 -353.4640625 239.2984375 -353.9375 237.5625 C-355.05340548 233.05139273 -355.67449532 228.63276424 -356 224 C-356.06574219 223.19046875 -356.13148438 222.3809375 -356.19921875 221.546875 C-356.66286216 210.86708878 -353.39652244 200.56529687 -349.625 190.6875 C-347.08384564 183.36299625 -348.78883126 177.70079338 -351.125 170.5625 C-354.25955769 166.2786045 -358.08914462 164.48679834 -363.2890625 163.6171875 C-368.3903407 163.36793938 -372.54883142 164.38551111 -377.375 166 C-387.66022704 169.36410122 -395.52172863 168.92480944 -405.3515625 164.37109375 C-408.46850166 162.7574571 -411.26485964 161.20330751 -414 159 C-414 158.34 -414 157.68 -414 157 C-414.86625 156.5978125 -414.86625 156.5978125 -415.75 156.1875 C-418.05550043 154.97070811 -420.02056192 153.69666121 -422 152 C-422 151.34 -422 150.68 -422 150 C-422.88751953 149.59587891 -422.88751953 149.59587891 -423.79296875 149.18359375 C-425.98708841 148.00692427 -427.50429216 146.75850401 -429.3125 145.0625 C-434.62795324 140.41572851 -440.0148692 138.71276845 -447 138 C-447 137.67 -447 137.34 -447 137 C-439.37135612 136.38478678 -434.34958229 137.67073935 -428 142 C-425.44790809 144.22025154 -422.98393916 146.49190479 -420.54296875 148.83129883 C-415.80342034 153.32945315 -410.70094972 156.79834664 -405 160 C-403.88625 160.639375 -402.7725 161.27875 -401.625 161.9375 C-392.32464715 164.66346549 -384.27987372 163.05130786 -375.39233398 159.796875 C-367.91879438 157.12129532 -361.19833419 156.81056535 -353.828125 159.94140625 C-350.58632254 161.81860383 -348.42528768 164.15028698 -346 167 C-346 167.66 -346 168.32 -346 169 C-345.34 169 -344.68 169 -344 169 C-346.09758066 150.70709953 -346.09758066 150.70709953 -355 135 C-355 134.34 -355 133.68 -355 133 C-355.86625 132.5978125 -355.86625 132.5978125 -356.75 132.1875 C-359 131 -359 131 -360.75 129.5625 C-368.09018062 124.46515235 -376.86218378 123.92626132 -385.51953125 123.38671875 C-387.19991608 123.27216142 -388.88025325 123.15690311 -390.56054688 123.04101562 C-393.16819626 122.8634477 -395.77580628 122.68976745 -398.38452148 122.52856445 C-420.29934346 121.15901916 -442.36436731 117.51560989 -459 102 C-459.9075 101.154375 -460.815 100.30875 -461.75 99.4375 C-462.4925 98.633125 -463.235 97.82875 -464 97 C-464.68449219 96.27103516 -464.68449219 96.27103516 -465.3828125 95.52734375 C-471.84794295 88.36831187 -477.20227478 79.86135885 -481 71 C-480.67 70.01 -480.34 69.02 -480 68 C-479.3709375 69.12277344 -478.741875 70.24554688 -478.09375 71.40234375 C-473.7577027 79.02232173 -469.61520976 86.15539094 -463.3984375 92.43359375 C-462 94 -462 94 -462 96 C-461.4121875 96.27328125 -460.824375 96.5465625 -460.21875 96.828125 C-458.06518444 97.9655716 -456.3823156 99.21442675 -454.5 100.75 C-438.43037095 112.88360573 -420.02168985 114.95291222 -400.55691528 115.38760376 C-361.17893496 116.31465811 -361.17893496 116.31465811 -348 129 C-342 136.5308642 -342 136.5308642 -342 140 C-341.34 140 -340.68 140 -340 140 C-336.37336603 124.06871508 -335.35497485 104.2676416 -343.8125 89.75 C-345.38068414 87.33107597 -347.01603417 84.9774705 -348.6875 82.62890625 C-349.491875 81.48228516 -349.491875 81.48228516 -350.3125 80.3125 C-350.80363281 79.64863281 -351.29476563 78.98476562 -351.80078125 78.30078125 C-354.33341048 73.44176296 -354.27739749 69.30579835 -352.78515625 64.16015625 C-352.22586588 62.45596559 -351.6512913 60.75672441 -351.0625 59.0625 C-350.77181641 58.18787109 -350.48113281 57.31324219 -350.18164062 56.41210938 C-349.46757514 54.26991291 -348.74021844 52.13327064 -348 50 C-347.67 50 -347.34 50 -347 50 C-346.52790969 54.36683534 -347.44978161 57.39031093 -349.0625 61.375 C-350.90799392 66.31852523 -352.11222197 70.00076722 -350 75 C-348.03758219 78.01973725 -345.95149639 80.85733847 -343.71484375 83.6796875 C-342 86 -342 86 -342 88 C-341.34 88 -340.68 88 -340 88 C-339.19842242 89.80813875 -338.40930825 91.62180373 -337.625 93.4375 C-337.18414062 94.44683594 -336.74328125 95.45617187 -336.2890625 96.49609375 C-333.42289075 104.28686969 -332.61518573 111.66406904 -332.625 119.9375 C-332.62089111 121.43724365 -332.62089111 121.43724365 -332.61669922 122.96728516 C-332.71072382 130.26057588 -333.66527431 136.9863389 -335.75244141 143.97631836 C-337.0954049 148.74366557 -336.81135917 151.97869653 -335.55517578 156.75341797 C-332.06022585 170.89613092 -336.10884457 185.21072021 -340.15380859 198.76025391 C-343.47790218 210.26650392 -344.3831499 221.11525492 -341.1875 232.75 C-341.00010254 233.46534912 -340.81270508 234.18069824 -340.61962891 234.91772461 C-340.24979602 236.31975631 -339.87382251 237.72018756 -339.49072266 239.11865234 C-339.06864772 240.73681625 -338.73448814 242.37745417 -338.41796875 244.01953125 C-337.03578107 250.49294261 -334.05569893 253.17051683 -328.76171875 256.99609375 C-321.99142457 261.90862687 -315.68685099 267.86418709 -310 274 C-310 274.66 -310 275.32 -310 276 C-309.34 276 -308.68 276 -308 276 C-306.58984375 277.3984375 -306.58984375 277.3984375 -304.9375 279.375 C-302.16471468 282.64457602 -299.33398783 285.83930551 -296.4375 289 C-286 300.58133562 -286 300.58133562 -286 304 C-285.01 304.33 -284.02 304.66 -283 305 C-281.08984375 307.265625 -281.08984375 307.265625 -278.9375 310.25 C-278.12833169 311.35600139 -277.31841064 312.46145237 -276.5078125 313.56640625 C-276.09176758 314.13762207 -275.67572266 314.70883789 -275.24707031 315.29736328 C-271.60021924 320.27644304 -267.81160186 325.14672627 -264 330 C-263.49903809 330.64066406 -262.99807617 331.28132813 -262.48193359 331.94140625 C-248.25461813 351.31415808 -248.25461813 351.31415808 -230 366 C-230 366.66 -230 367.32 -230 368 C-229.26910156 368.26425781 -228.53820312 368.52851563 -227.78515625 368.80078125 C-224.99782118 370.00093814 -222.89413223 371.41888668 -220.4375 373.1875 C-205.09763259 383.09878162 -176.39314218 393.48331792 -158 392 C-155.97527368 391.051062 -153.97013573 390.05762244 -152 389 C-151.52228509 375.14075544 -151.56762749 362.26975721 -156 349 C-156.18506104 348.21560547 -156.37012207 347.43121094 -156.56079102 346.62304688 C-157.38969735 343.90359963 -158.13687409 342.16029809 -160 340 C-164.360517 338.2456796 -168.78829023 337.77541614 -173.4375 337.25 C-196.2656318 334.30364912 -217.38384168 324.25060037 -232.328125 306.3046875 C-242.6712099 292.04669664 -246.33712492 276.32118394 -245.9375 258.9375 C-245.8666652 250.35232263 -246.34519872 240.78576153 -252 234 C-258.182478 229.69651041 -265.30538121 227.96966917 -272.484375 226.01953125 C-284.78398815 222.45264344 -297.43839137 216.75072094 -306 207 C-305.67 206.34 -305.34 205.68 -305 205 C-304.175 205.825 -303.35 206.65 -302.5 207.5 C-291.15664016 217.13502251 -276.02760288 221.53610322 -261.765625 224.72265625 C-254.24239679 226.45798651 -249.16098334 229.4519583 -244.69140625 235.8828125 C-240.28512402 243.85608511 -239.92459124 252.47641236 -239.5625 261.375 C-238.81424359 278.28526729 -233.84870844 293.08615216 -221.87109375 305.46484375 C-216.6821377 310.04665664 -210.9944744 313.57063517 -205 317 C-203.64841797 317.7734375 -203.64841797 317.7734375 -202.26953125 318.5625 C-191.45323292 324.34036366 -180.00659987 325.71949688 -168 327 C-169.10794922 325.45505859 -169.10794922 325.45505859 -170.23828125 323.87890625 C-180.13895929 310.00774672 -189.3320465 295.7714281 -198.30651855 281.28634644 C-199.3458058 279.60960079 -200.38819082 277.93477646 -201.43066406 276.26000977 C-211.60910936 259.74087292 -215.31700499 245.01262837 -217.5625 225.9375 C-217.67116394 225.03437073 -217.77982788 224.13124146 -217.89178467 223.20074463 C-219.58812051 208.93937353 -220.56888916 194.72297742 -221.125 180.375 C-222.14118279 151.30187486 -222.14118279 151.30187486 -228.9140625 123.14453125 C-229.85533419 120.41890641 -230.51914777 117.83702817 -231 115 C-227.3412864 116.8293568 -226.6095045 121.91223038 -225.32299805 125.63037109 C-219.42080108 143.35310292 -217.99429419 161.65396134 -216.34570312 180.15478516 C-214.85475258 196.73845116 -212.78476601 213.14952119 -210 229.5625 C-209.87434662 230.31188843 -209.74869324 231.06127686 -209.61923218 231.83337402 C-207.27248139 247.43912015 -207.27248139 247.43912015 -200.6875 261.5625 C-200.0790625 262.46871094 -199.470625 263.37492187 -198.84375 264.30859375 C-197.93109375 265.64083984 -197.93109375 265.64083984 -197 267 C-196.4328125 267.87785156 -195.865625 268.75570313 -195.28125 269.66015625 C-192.77315887 273.99606787 -192.77315887 273.99606787 -189 277 C-189.17789063 276.32582031 -189.35578125 275.65164063 -189.5390625 274.95703125 C-191.75692192 260.72889923 -185.21898949 244.28273518 -179.19921875 231.73046875 C-174.99254277 222.15240193 -172.81491444 212.6426558 -172.875 202.25 C-172.87790039 201.05044678 -172.87790039 201.05044678 -172.88085938 199.82666016 C-172.92002919 194.48542007 -173.21630387 189.28994885 -174 184 C-167.59888615 193.60167077 -168.97686096 208.79894417 -171 219.75 C-172.69489133 226.83251693 -175.35776415 233.55343764 -178.13085938 240.27832031 C-183.95703642 254.68898783 -186.00356087 273.991784 -181.40625 289.08203125 C-178.44485148 295.22693318 -174.07290102 300.41569522 -169.82226562 305.7109375 C-166.47371821 309.91725858 -163.24037665 314.2101922 -160 318.5 C-159.36545898 319.32435547 -158.73091797 320.14871094 -158.07714844 320.99804688 C-155.25162743 324.72211679 -152.72162702 328.31287589 -150.6875 332.53125 C-149.41200012 336.04760815 -149.41200012 336.04760815 -147 337 C-146.71225225 334.88331012 -146.42454001 332.76661541 -146.13696289 330.64990234 C-145.87469652 328.72683625 -145.61081122 326.80399038 -145.34545898 324.88134766 C-144.54821792 319.09258528 -143.78134342 313.30148674 -143.05078125 307.50390625 C-142.72136174 304.96093652 -142.39193475 302.41796776 -142.0625 299.875 C-141.9171582 298.67979736 -141.77181641 297.48459473 -141.62207031 296.25317383 C-138.95107601 275.95107601 -138.95107601 275.95107601 -132 269 C-131.21882812 268.19433594 -130.43765625 267.38867188 -129.6328125 266.55859375 C-128.26577952 265.23009731 -126.89837166 263.90197479 -125.52636719 262.57861328 C-111.82955441 249.35696046 -103.31758671 236.53497993 -102.4375 217.1875 C-102.37272461 215.86202148 -102.37272461 215.86202148 -102.30664062 214.50976562 C-102.20108464 212.34000377 -102.10008929 210.1700209 -102 208 C-101.67 208 -101.34 208 -101 208 C-98.63548489 223.96047702 -100.93343334 238.2659233 -110 252 C-114.00353695 257.28139745 -118.45023903 262.18736395 -123 267 C-123.74894531 267.80179687 -124.49789062 268.60359375 -125.26953125 269.4296875 C-127 271 -127 271 -129 271 C-134.53619144 283.7758264 -135.58244324 296.96549722 -136.42578125 310.7109375 C-137.84752432 333.48399015 -137.84752432 333.48399015 -142 344 C-143.4271603 347.7956391 -142.52925595 350.04325626 -141.1875 353.8125 C-138.19606219 362.98348234 -136.82297931 372.33762054 -137 382 C-136.42668945 381.72325439 -135.85337891 381.44650879 -135.26269531 381.16137695 C-116.40118843 372.07297537 -116.40118843 372.07297537 -109.5 369.3125 C-92.96795481 362.52590758 -78.22610779 352.45221558 -70 336 C-69.34 336 -68.68 336 -68 336 C-67.731875 335.175 -67.46375 334.35 -67.1875 333.5 C-66 330 -66 330 -65.1640625 328.20703125 C-61.09010822 319.14341738 -63.90750598 310.34846853 -67.23828125 301.43945312 C-67.65464844 300.36630859 -68.07101562 299.29316406 -68.5 298.1875 C-69.32756962 296.01609055 -70.15064544 293.84296195 -70.96875 291.66796875 C-71.51692383 290.24907349 -71.51692383 290.24907349 -72.07617188 288.80151367 C-77.18937394 273.2957014 -74.51933815 255.26145729 -70 240 C-69.43026779 237.11659918 -68.94040538 234.23630017 -68.4921875 231.33203125 C-68 229 -68 229 -66.96875 226.58984375 C-64.62019535 220.31124805 -64.99670845 212.45613149 -67.625 206.3125 C-68.38500314 204.85801123 -69.17745371 203.42005633 -70 202 C-70.38929688 201.28199219 -70.77859375 200.56398437 -71.1796875 199.82421875 C-73.9483416 194.95040458 -77.11468713 190.42510077 -80.40283203 185.89501953 C-89.63251195 173.13825313 -96.42447934 161.21117957 -95.82080078 144.98779297 C-95.55214041 136.97059704 -96.42209089 132.03782128 -102 126 C-114.75442782 112.07703786 -117.36306345 100.66734771 -117.1875 81.9375 C-117.18685547 80.62716797 -117.18621094 79.31683594 -117.18554688 77.96679688 C-117.15501001 71.23172182 -116.91377249 64.6741943 -116 58 C-115.67 58 -115.34 58 -115 58 C-114.97812622 59.64029175 -114.97812622 59.64029175 -114.95581055 61.3137207 C-114.89728506 65.41982684 -114.82006197 69.52541523 -114.73754883 73.63110352 C-114.70455215 75.39892088 -114.67644396 77.16683721 -114.65356445 78.93481445 C-114.40847621 97.37900827 -111.91983896 110.33411078 -98.3125 123.625 C-95.7490333 126.25774958 -93.94946011 128.89530426 -92 132 C-91.5359375 131.443125 -91.071875 130.88625 -90.59375 130.3125 C-80.59312203 119.2670303 -66.42353079 114.52461113 -52.80200195 109.3203125 C-40.46458565 104.48856155 -30.75034879 97.29835015 -25.1171875 85.01953125 C-20.29306106 71.9808958 -19.06038433 57.89018011 -17.48217773 44.1652832 C-15.53274527 27.68562039 -11.95907688 12.25076169 0 0 Z " fill="#EC0402" transform="translate(717,4)"/>
<path d="M0 0 C1.73662334 3.22515763 2.8905928 6.51329166 4 10 C1.2027092 7.93243723 0.97307727 6.85559629 0.3125 3.3125 C0.209375 2.219375 0.10625 1.12625 0 0 Z " fill="#EC0402" transform="translate(407,199)"/>
<path d="M0 0 C1.0326802 2.78823655 1.04509293 3.8677274 0.0625 6.75 C-0.288125 7.4925 -0.63875 8.235 -1 9 C-2.25541557 5.23375329 -1.37061958 3.62811066 0 0 Z " fill="#EC0402" transform="translate(795,220)"/>
<path d="M0 0 C2.50298434 2.93828597 3.46930939 5.17902761 4 9 C1.49701566 6.06171403 0.53069061 3.82097239 0 0 Z " fill="#EC0402" transform="translate(232,63)"/>
<path d="M0 0 C0.33 0.66 0.66 1.32 1 2 C-0.4375 4.625 -0.4375 4.625 -2 7 C-2.33 6.34 -2.66 5.68 -3 5 C-1.5625 2.375 -1.5625 2.375 0 0 Z " fill="#EC0402" transform="translate(1014,644)"/>
<path d="M0 0 C0.33 0 0.66 0 1 0 C1 2.97 1 5.94 1 9 C0.67 9 0.34 9 0 9 C0 6.03 0 3.06 0 0 Z " fill="#EC0402" transform="translate(370,45)"/>
<path d="M0 0 C0.33 0 0.66 0 1 0 C1 2.64 1 5.28 1 8 C0.67 8 0.34 8 0 8 C0 5.36 0 2.72 0 0 Z " fill="#EC0402" transform="translate(334,732)"/>
<path d="M0 0 C2.64 0 5.28 0 8 0 C8 0.33 8 0.66 8 1 C5.36 1 2.72 1 0 1 C0 0.67 0 0.34 0 0 Z " fill="#EC0503" transform="translate(263,661)"/>
<path d="M0 0 C2.475 0.99 2.475 0.99 5 2 C4.01 2.495 4.01 2.495 3 3 C2.01 2.01 1.02 1.02 0 0 Z " fill="#EC0402" transform="translate(442,679)"/>
<path d="M0 0 C0.33 0.66 0.66 1.32 1 2 C0.01 2.99 -0.98 3.98 -2 5 C-1.34 3.35 -0.68 1.7 0 0 Z " fill="#EC0402" transform="translate(1016,404)"/>
<path d="M0 0 C0.66 0.33 1.32 0.66 2 1 C0.02 1.99 0.02 1.99 -2 3 C-1.34 2.01 -0.68 1.02 0 0 Z " fill="#EC0402" transform="translate(434,804)"/>
<path d="M0 0 C0.99 0.33 1.98 0.66 3 1 C1.35 1.33 -0.3 1.66 -2 2 C-1.34 1.34 -0.68 0.68 0 0 Z " fill="#EC0402" transform="translate(184,449)"/>
<path d="M0 0 C1.98 0 3.96 0 6 0 C6 0.33 6 0.66 6 1 C4.02 1 2.04 1 0 1 C0 0.67 0 0.34 0 0 Z " fill="#EC0402" transform="translate(881,147)"/>
<path d="M0 0 C0.99 0.99 1.98 1.98 3 3 C2.01 2.67 1.02 2.34 0 2 C0 1.34 0 0.68 0 0 Z " fill="#EC0402" transform="translate(183,362)"/>
<path d="M0 0 C0.66 0.33 1.32 0.66 2 1 C0.68 1.33 -0.64 1.66 -2 2 C-1.34 1.34 -0.68 0.68 0 0 Z " fill="#EC0402" transform="translate(261,350)"/>
<path d="M0 0 C0.33 0 0.66 0 1 0 C1 1.65 1 3.3 1 5 C0.67 5 0.34 5 0 5 C0 3.35 0 1.7 0 0 Z " fill="#EC0402" transform="translate(614,207)"/>
<path d="M0 0 C0 0.99 0 1.98 0 3 C-0.66 2.67 -1.32 2.34 -2 2 C-1.34 1.34 -0.68 0.68 0 0 Z " fill="#EC0402" transform="translate(722,0)"/>
<path d="M0 0 C0.99 0.33 1.98 0.66 3 1 C2.01 1 1.02 1 0 1 C0 0.67 0 0.34 0 0 Z " fill="#EC0402" transform="translate(328,599)"/>
<path d="M0 0 C0.66 0.33 1.32 0.66 2 1 C1.01 1 0.02 1 -1 1 C-0.67 0.67 -0.34 0.34 0 0 Z " fill="#EC0503" transform="translate(178,452)"/>
<path d="M0 0 C0 3 0 3 0 3 Z " fill="#EC0402" transform="translate(139,400)"/>
<path d="M0 0 C4 1 4 1 4 1 Z " fill="#EC0503" transform="translate(233,342)"/>
<path d="M0 0 C4 1 4 1 4 1 Z " fill="#EC0402" transform="translate(3,232)"/>
<path d="M0 0 C0.99 0.33 1.98 0.66 3 1 C2.01 1 1.02 1 0 1 C0 0.67 0 0.34 0 0 Z " fill="#EC0402" transform="translate(710,128)"/>
<path d="" fill="#EC0604" transform="translate(0,0)"/>
<path d="" fill="#EC0402" transform="translate(0,0)"/>
<path d="" fill="#EC0402" transform="translate(0,0)"/>
<path d="M0 0 C3 1 3 1 3 1 Z " fill="#EC0503" transform="translate(1153,574)"/>
<path d="M0 0 C3 1 3 1 3 1 Z " fill="#EC0402" transform="translate(1140,502)"/>
<path d="M0 0 C3 1 3 1 3 1 Z " fill="#EC0402" transform="translate(913,467)"/>
<path d="M0 0 C3 1 3 1 3 1 Z " fill="#EC0402" transform="translate(916,466)"/>
<path d="M0 0 C3 1 3 1 3 1 Z " fill="#EC0402" transform="translate(896,455)"/>
<path d="M0 0 C3 1 3 1 3 1 Z " fill="#EC0402" transform="translate(237,341)"/>
<path d="M0 0 C3 1 3 1 3 1 Z " fill="#EC0503" transform="translate(7,307)"/>
<path d="M0 0 C3 1 3 1 3 1 Z " fill="#EC0402" transform="translate(10,306)"/>
<path d="M0 0 C3 1 3 1 3 1 Z " fill="#EC0402" transform="translate(0,233)"/>
<path d="" fill="#EC0402" transform="translate(0,0)"/>
<path d="" fill="#EC0402" transform="translate(0,0)"/>
<path d="" fill="#EC0402" transform="translate(0,0)"/>
<path d="M0 0 C2 1 2 1 2 1 Z " fill="#EC0402" transform="translate(440,678)"/>
<path d="M0 0 C2 1 2 1 2 1 Z " fill="#EC0402" transform="translate(437,676)"/>
<path d="" fill="#EC0503" transform="translate(0,0)"/>
<path d="" fill="#EC0402" transform="translate(0,0)"/>
<path d="" fill="#EC0402" transform="translate(0,0)"/>
<path d="" fill="#EC0402" transform="translate(0,0)"/>
<path d="" fill="#EC0402" transform="translate(0,0)"/>
<path d="" fill="#EC0402" transform="translate(0,0)"/>
<path d="" fill="#EC0402" transform="translate(0,0)"/>
<path d="M0 0 C2 1 2 1 2 1 Z " fill="#EC0402" transform="translate(331,601)"/>
<path d="M0 0 C2 1 2 1 2 1 Z " fill="#EC0402" transform="translate(145,516)"/>
<path d="M0 0 C2 1 2 1 2 1 Z " fill="#EC0402" transform="translate(1143,501)"/>
<path d="M0 0 C2 1 2 1 2 1 Z " fill="#EC0402" transform="translate(894,456)"/>
<path d="M0 0 C2 1 2 1 2 1 Z " fill="#EC0402" transform="translate(899,454)"/>
<path d="M0 0 C2 1 2 1 2 1 Z " fill="#EC0402" transform="translate(180,451)"/>
<path d="" fill="#EC0402" transform="translate(0,0)"/>
<path d="M0 0 C2 1 2 1 2 1 Z " fill="#EC0402" transform="translate(971,357)"/>
<path d="M0 0 C2 1 2 1 2 1 Z " fill="#EC0402" transform="translate(973,356)"/>
<path d="M0 0 C2 1 2 1 2 1 Z " fill="#EC0402" transform="translate(975,355)"/>
<path d="" fill="#EC0605" transform="translate(0,0)"/>
<path d="M0 0 C2 1 2 1 2 1 Z " fill="#EC0402" transform="translate(255,353)"/>
<path d="M0 0 C2 1 2 1 2 1 Z " fill="#EC0402" transform="translate(257,352)"/>
<path d="M0 0 C2 1 2 1 2 1 Z " fill="#EC0402" transform="translate(1004,293)"/>
<path d="M0 0 C2 1 2 1 2 1 Z " fill="#EC0402" transform="translate(1006,292)"/>
<path d="M0 0 C2 1 2 1 2 1 Z " fill="#EC0402" transform="translate(821,206)"/>
<path d="" fill="#EC0402" transform="translate(0,0)"/>
<path d="" fill="#EC0402" transform="translate(0,0)"/>
<path d="M0 0 C2 1 2 1 2 1 Z " fill="#EC0504" transform="translate(268,142)"/>
<path d="M0 0 C2 1 2 1 2 1 Z " fill="#EC0402" transform="translate(717,132)"/>
<path d="M0 0 C2 1 2 1 2 1 Z " fill="#EC0402" transform="translate(715,131)"/>
<path d="M0 0 C2 1 2 1 2 1 Z " fill="#EC0402" transform="translate(713,130)"/>
<path d="" fill="#EC0402" transform="translate(0,0)"/>
<path d="" fill="#EC0503" transform="translate(0,0)"/>
<path d="" fill="#E05355" transform="translate(0,0)"/>
<path d="" fill="#EC0402" transform="translate(0,0)"/>
<path d="" fill="#EC0402" transform="translate(0,0)"/>
<path d="" fill="#EC0402" transform="translate(0,0)"/>
<path d="" fill="#EC0402" transform="translate(0,0)"/>
<path d="" fill="#EC0402" transform="translate(0,0)"/>
<path d="" fill="#EC0402" transform="translate(0,0)"/>
<path d="" fill="#EC0402" transform="translate(0,0)"/>
<path d="" fill="#EC0605" transform="translate(0,0)"/>
<path d="" fill="#EC0402" transform="translate(0,0)"/>
<path d="" fill="#EC0402" transform="translate(0,0)"/>
<path d="" fill="#EC0402" transform="translate(0,0)"/>
<path d="" fill="#EC0403" transform="translate(0,0)"/>
<path d="" fill="#EC0403" transform="translate(0,0)"/>
<path d="" fill="#EC0503" transform="translate(0,0)"/>
<path d="" fill="#EC0403" transform="translate(0,0)"/>
<path d="" fill="#EC0403" transform="translate(0,0)"/>
<path d="" fill="#EC0403" transform="translate(0,0)"/>
<path d="" fill="#EC0503" transform="translate(0,0)"/>
<path d="" fill="#EC0403" transform="translate(0,0)"/>
<path d="" fill="#EC0402" transform="translate(0,0)"/>
<path d="" fill="#EC0503" transform="translate(0,0)"/>
<path d="" fill="#EC0402" transform="translate(0,0)"/>
<path d="" fill="#EC0402" transform="translate(0,0)"/>
</svg>
